SourceSans_Black.ufo
<glyph name="exclam" format="1">
  <advance width="360"/>
  <unicode hex="0021"/>
  <outline>
    <contour>
      <point x="124" y="244" type="line"/>
      <point x="236" y="244" type="line"/>
      <point x="260" y="522" type="line"/>
      <point x="266" y="670" type="line"/>
      <point x="94" y="670" type="line"/>
      <point x="100" y="522" type="line"/>
    </contour>
    <contour>
      <point x="180" y="-12" type="curve" smooth="yes"/>
      <point x="238" y="-12"/>
      <point x="280" y="34"/>
      <point x="280" y="92" type="curve" smooth="yes"/>
      <point x="280" y="150"/>
      <point x="238" y="196"/>
      <point x="180" y="196" type="curve" smooth="yes"/>
      <point x="122" y="196"/>
      <point x="80" y="150"/>
      <point x="80" y="92" type="curve" smooth="yes"/>
      <point x="80" y="34"/>
      <point x="122" y="-12"/>
    </contour>
  </outline>
</glyph>
<glyph name="dollar" format="1">
  <advance width="540"/>
  <unicode hex="0024"/>
  <outline>
    <contour>
      <point x="246" y="-12" type="curve" smooth="yes"/>
      <point x="404" y="-12"/>
      <point x="480" y="76"/>
      <point x="480" y="194" type="curve" smooth="yes"/>
      <point x="480" y="376"/>
      <point x="222" y="380"/>
      <point x="222" y="456" type="curve" smooth="yes"/>
      <point x="222" y="496"/>
      <point x="243" y="508"/>
      <point x="286" y="508" type="curve" smooth="yes"/>
      <point x="323" y="508"/>
      <point x="354" y="492"/>
      <point x="390" y="460" type="curve"/>
      <point x="475" y="558" type="line"/>
      <point x="426" y="610"/>
      <point x="364" y="646"/>
      <point x="276" y="646" type="curve" smooth="yes"/>
      <point x="141" y="646"/>
      <point x="58" y="570"/>
      <point x="58" y="448" type="curve" smooth="yes"/>
      <point x="58" y="273"/>
      <point x="316" y="262"/>
      <point x="316" y="182" type="curve" smooth="yes"/>
      <point x="316" y="143"/>
      <point x="296" y="126"/>
      <point x="246" y="126" type="curve" smooth="yes"/>
      <point x="204" y="126"/>
      <point x="162" y="142"/>
      <point x="108" y="182" type="curve"/>
      <point x="34" y="66" type="line"/>
      <point x="94" y="12"/>
      <point x="186" y="-12"/>
    </contour>
    <contour>
      <point x="212" y="-110" type="line"/>
      <point x="324" y="-110" type="line"/>
      <point x="324" y="60" type="line"/>
      <point x="212" y="60" type="line"/>
    </contour>
    <contour>
      <point x="212" y="594" type="line"/>
      <point x="324" y="594" type="line"/>
      <point x="324" y="744" type="line"/>
      <point x="212" y="744" type="line"/>
    </contour>
  </outline>
</glyph>
<glyph name="quotesingle" format="1">
  <advance width="320"/>
  <unicode hex="0027"/>
  <outline>
    <contour>
      <point x="114" y="324" type="line"/>
      <point x="206" y="324" type="line"/>
      <point x="240" y="536" type="line"/>
      <point x="246" y="684" type="line"/>
      <point x="74" y="684" type="line"/>
      <point x="80" y="536" type="line"/>
    </contour>
  </outline>
</glyph>
<glyph name="parenleft" format="1">
  <advance width="360"/>
  <unicode hex="0028"/>
  <outline>
    <contour>
      <point x="200" y="-180" type="curve"/>
      <point x="308" y="-136" type="line"/>
      <point x="236" y="-6"/>
      <point x="206" y="140"/>
      <point x="206" y="278" type="curve" smooth="yes"/>
      <point x="206" y="416"/>
      <point x="236" y="562"/>
      <point x="308" y="692" type="curve"/>
      <point x="200" y="736" type="line"/>
      <point x="116" y="598"/>
      <point x="68" y="454"/>
      <point x="68" y="278" type="curve" smooth="yes"/>
      <point x="68" y="102"/>
      <point x="116" y="-42"/>
    </contour>
  </outline>
</glyph>
<glyph name="parenright" format="1">
  <advance width="360"/>
  <unicode hex="0029"/>
  <outline>
    <contour>
      <point x="160" y="-180" type="line"/>
      <point x="244" y="-42"/>
      <point x="292" y="102"/>
      <point x="292" y="278" type="curve" smooth="yes"/>
      <point x="292" y="454"/>
      <point x="244" y="598"/>
      <point x="160" y="736" type="curve"/>
      <point x="52" y="692" type="line"/>
      <point x="124" y="562"/>
      <point x="154" y="416"/>
      <point x="154" y="278" type="curve" smooth="yes"/>
      <point x="154" y="140"/>
      <point x="124" y="-6"/>
      <point x="52" y="-136" type="curve"/>
    </contour>
  </outline>
</glyph>
<glyph name="asterisk" format="1">
  <advance width="472"/>
  <unicode hex="002A"/>
  <outline>
    <contour>
      <point x="152" y="321" type="line"/>
      <point x="236" y="412" type="line"/>
      <point x="320" y="321" type="line"/>
      <point x="390" y="372" type="line"/>
      <point x="329" y="479" type="line"/>
      <point x="442" y="531" type="line"/>
      <point x="415" y="614" type="line"/>
      <point x="294" y="589" type="line"/>
      <point x="280" y="712" type="line"/>
      <point x="192" y="712" type="line"/>
      <point x="178" y="590" type="line"/>
      <point x="57" y="614" type="line"/>
      <point x="30" y="531" type="line"/>
      <point x="142" y="479" type="line"/>
      <point x="82" y="372" type="line"/>
    </contour>
  </outline>
</glyph>
<glyph name="period" format="1">
  <advance width="320"/>
  <unicode hex="002E"/>
  <outline>
    <contour>
      <point x="160" y="-12" type="curve" smooth="yes"/>
      <point x="218" y="-12"/>
      <point x="260" y="34"/>
      <point x="260" y="92" type="curve" smooth="yes"/>
      <point x="260" y="150"/>
      <point x="218" y="196"/>
      <point x="160" y="196" type="curve" smooth="yes"/>
      <point x="102" y="196"/>
      <point x="60" y="150"/>
      <point x="60" y="92" type="curve" smooth="yes"/>
      <point x="60" y="34"/>
      <point x="102" y="-12"/>
    </contour>
  </outline>
</glyph>
<glyph name="slash" format="1">
  <advance width="334"/>
  <unicode hex="002F"/>
  <outline>
    <contour>
      <point x="14" y="-160" type="line"/>
      <point x="124" y="-160" type="line"/>
      <point x="300" y="710" type="line"/>
      <point x="190" y="710" type="line"/>
    </contour>
  </outline>
</glyph>
<glyph name="one" format="1">
  <advance width="540"/>
  <unicode hex="0031"/>
  <outline>
    <contour>
      <point x="66" y="0" type="line"/>
      <point x="488" y="0" type="line"/>
      <point x="488" y="138" type="line"/>
      <point x="374" y="138" type="line"/>
      <point x="374" y="634" type="line"/>
      <point x="248" y="634" type="line"/>
      <point x="200" y="604"/>
      <point x="154" y="586"/>
      <point x="82" y="572" type="curve"/>
      <point x="82" y="466" type="line"/>
      <point x="202" y="466" type="line"/>
      <point x="202" y="138" type="line"/>
      <point x="66" y="138" type="line"/>
    </contour>
  </outline>
</glyph>
<glyph name="two" format="1">
  <advance width="540"/>
  <unicode hex="0032"/>
  <outline>
    <contour>
      <point x="36" y="0" type="line"/>
      <point x="496" y="0" type="line"/>
      <point x="496" y="144" type="line"/>
      <point x="390" y="144" type="line" smooth="yes"/>
      <point x="362" y="144"/>
      <point x="316" y="140"/>
      <point x="284" y="136" type="curve"/>
      <point x="370" y="224"/>
      <point x="466" y="336"/>
      <point x="466" y="438" type="curve" smooth="yes"/>
      <point x="466" y="564"/>
      <point x="376" y="646"/>
      <point x="248" y="646" type="curve" smooth="yes"/>
      <point x="154" y="646"/>
      <point x="94" y="614"/>
      <point x="28" y="544" type="curve"/>
      <point x="120" y="452" type="line"/>
      <point x="150" y="482"/>
      <point x="182" y="512"/>
      <point x="224" y="512" type="curve" smooth="yes"/>
      <point x="270" y="512"/>
      <point x="302" y="485"/>
      <point x="302" y="428" type="curve" smooth="yes"/>
      <point x="302" y="342"/>
      <point x="186" y="236"/>
      <point x="36" y="98" type="curve"/>
    </contour>
  </outline>
</glyph>
<glyph name="four" format="1">
  <advance width="540"/>
  <unicode hex="0034"/>
  <outline>
    <contour>
      <point x="290" y="0" type="line"/>
      <point x="450" y="0" type="line"/>
      <point x="450" y="634" type="line"/>
      <point x="236" y="634" type="line"/>
      <point x="20" y="262" type="line"/>
      <point x="20" y="142" type="line"/>
      <point x="518" y="142" type="line"/>
      <point x="518" y="272" type="line"/>
      <point x="182" y="272" type="line"/>
      <point x="240" y="380" type="line"/>
      <point x="258" y="418"/>
      <point x="276" y="456"/>
      <point x="292" y="494" type="curve"/>
      <point x="296" y="494" type="line"/>
      <point x="294" y="451"/>
      <point x="290" y="387"/>
      <point x="290" y="344" type="curve" smooth="yes"/>
    </contour>
  </outline>
</glyph>
<glyph name="five" format="1">
  <advance width="540"/>
  <unicode hex="0035"/>
  <outline>
    <contour>
      <point x="252" y="-12" type="curve" smooth="yes"/>
      <point x="381" y="-12"/>
      <point x="492" y="70"/>
      <point x="492" y="212" type="curve" smooth="yes"/>
      <point x="492" y="346"/>
      <point x="398" y="408"/>
      <point x="288" y="408" type="curve" smooth="yes"/>
      <point x="267" y="408"/>
      <point x="250" y="406"/>
      <point x="228" y="398" type="curve"/>
      <point x="236" y="490" type="line"/>
      <point x="464" y="490" type="line"/>
      <point x="464" y="634" type="line"/>
      <point x="88" y="634" type="line"/>
      <point x="72" y="308" type="line"/>
      <point x="146" y="260" type="line"/>
      <point x="184" y="284"/>
      <point x="200" y="290"/>
      <point x="234" y="290" type="curve" smooth="yes"/>
      <point x="284" y="290"/>
      <point x="320" y="262"/>
      <point x="320" y="208" type="curve" smooth="yes"/>
      <point x="320" y="152"/>
      <point x="286" y="126"/>
      <point x="226" y="126" type="curve" smooth="yes"/>
      <point x="180" y="126"/>
      <point x="136" y="152"/>
      <point x="98" y="186" type="curve"/>
      <point x="22" y="78" type="line"/>
      <point x="74" y="26"/>
      <point x="148" y="-12"/>
    </contour>
  </outline>
</glyph>
<glyph name="six" format="1">
  <advance width="540"/>
  <unicode hex="0036"/>
  <outline>
    <contour>
      <point x="286" y="-12" type="curve" smooth="yes"/>
      <point x="406" y="-12"/>
      <point x="506" y="68"/>
      <point x="506" y="204" type="curve" smooth="yes"/>
      <point x="506" y="340"/>
      <point x="422" y="400"/>
      <point x="314" y="400" type="curve" smooth="yes"/>
      <point x="277" y="400"/>
      <point x="218" y="374"/>
      <point x="188" y="328" type="curve"/>
      <point x="196" y="220" type="line"/>
      <point x="219" y="264"/>
      <point x="250" y="280"/>
      <point x="280" y="280" type="curve" smooth="yes"/>
      <point x="316" y="280"/>
      <point x="350" y="265"/>
      <point x="350" y="204" type="curve" smooth="yes"/>
      <point x="350" y="137"/>
      <point x="318" y="116"/>
      <point x="282" y="116" type="curve" smooth="yes"/>
      <point x="243" y="116"/>
      <point x="194" y="148"/>
      <point x="194" y="306" type="curve" smooth="yes"/>
      <point x="194" y="458"/>
      <point x="245" y="508"/>
      <point x="312" y="508" type="curve" smooth="yes"/>
      <point x="348" y="508"/>
      <point x="388" y="486"/>
      <point x="408" y="464" type="curve"/>
      <point x="498" y="566" type="line"/>
      <point x="456" y="608"/>
      <point x="390" y="646"/>
      <point x="300" y="646" type="curve" smooth="yes"/>
      <point x="164" y="646"/>
      <point x="38" y="536"/>
      <point x="38" y="306" type="curve" smooth="yes"/>
      <point x="38" y="76"/>
      <point x="164" y="-12"/>
    </contour>
  </outline>
</glyph>
<glyph name="seven" format="1">
  <advance width="540"/>
  <unicode hex="0037"/>
  <outline>
    <contour>
      <point x="152" y="0" type="curve"/>
      <point x="324" y="0" type="line"/>
      <point x="336" y="247"/>
      <point x="352" y="357"/>
      <point x="498" y="528" type="curve"/>
      <point x="498" y="634" type="line"/>
      <point x="44" y="634" type="line"/>
      <point x="44" y="490" type="line"/>
      <point x="316" y="490" type="line"/>
      <point x="198" y="327"/>
      <point x="164" y="200"/>
    </contour>
  </outline>
</glyph>
<glyph name="eight" format="1">
  <advance width="540"/>
  <unicode hex="0038"/>
  <outline>
    <contour>
      <point x="268" y="-12" type="curve" smooth="yes"/>
      <point x="407" y="-12"/>
      <point x="500" y="64"/>
      <point x="500" y="166" type="curve" smooth="yes"/>
      <point x="500" y="250"/>
      <point x="453" y="300"/>
      <point x="391" y="333" type="curve"/>
      <point x="391" y="337" type="line"/>
      <point x="436" y="366"/>
      <point x="472" y="412"/>
      <point x="472" y="470" type="curve" smooth="yes"/>
      <point x="472" y="578"/>
      <point x="392" y="646"/>
      <point x="274" y="646" type="curve" smooth="yes"/>
      <point x="150" y="646"/>
      <point x="62" y="578"/>
      <point x="62" y="466" type="curve" smooth="yes"/>
      <point x="62" y="400"/>
      <point x="96" y="354"/>
      <point x="146" y="316" type="curve"/>
      <point x="146" y="312" type="line"/>
      <point x="86" y="280"/>
      <point x="42" y="236"/>
      <point x="42" y="162" type="curve" smooth="yes"/>
      <point x="42" y="58"/>
      <point x="139" y="-12"/>
    </contour>
    <contour>
      <point x="306" y="378" type="curve"/>
      <point x="246" y="402"/>
      <point x="212" y="424"/>
      <point x="212" y="466" type="curve" smooth="yes"/>
      <point x="212" y="510"/>
      <point x="239" y="528"/>
      <point x="270" y="528" type="curve" smooth="yes"/>
      <point x="310" y="528"/>
      <point x="334" y="502"/>
      <point x="334" y="458" type="curve" smooth="yes"/>
      <point x="334" y="430"/>
      <point x="324" y="404"/>
    </contour>
    <contour>
      <point x="272" y="106" type="curve" smooth="yes"/>
      <point x="228" y="106"/>
      <point x="189" y="132"/>
      <point x="189" y="182" type="curve" smooth="yes"/>
      <point x="189" y="214"/>
      <point x="203" y="246"/>
      <point x="222" y="268" type="curve"/>
      <point x="297" y="236"/>
      <point x="341" y="218"/>
      <point x="341" y="172" type="curve" smooth="yes"/>
      <point x="341" y="124"/>
      <point x="310" y="106"/>
    </contour>
  </outline>
</glyph>
<glyph name="nine" format="1">
  <advance width="540"/>
  <unicode hex="0039"/>
  <outline>
    <contour>
      <point x="238" y="-12" type="curve" smooth="yes"/>
      <point x="374" y="-12"/>
      <point x="500" y="98"/>
      <point x="500" y="328" type="curve" smooth="yes"/>
      <point x="500" y="558"/>
      <point x="374" y="646"/>
      <point x="252" y="646" type="curve" smooth="yes"/>
      <point x="132" y="646"/>
      <point x="32" y="566"/>
      <point x="32" y="430" type="curve" smooth="yes"/>
      <point x="32" y="294"/>
      <point x="116" y="234"/>
      <point x="224" y="234" type="curve" smooth="yes"/>
      <point x="261" y="234"/>
      <point x="320" y="260"/>
      <point x="350" y="306" type="curve"/>
      <point x="342" y="414" type="line"/>
      <point x="319" y="370"/>
      <point x="288" y="354"/>
      <point x="258" y="354" type="curve" smooth="yes"/>
      <point x="222" y="354"/>
      <point x="188" y="369"/>
      <point x="188" y="430" type="curve" smooth="yes"/>
      <point x="188" y="497"/>
      <point x="220" y="518"/>
      <point x="256" y="518" type="curve" smooth="yes"/>
      <point x="295" y="518"/>
      <point x="344" y="486"/>
      <point x="344" y="328" type="curve" smooth="yes"/>
      <point x="344" y="176"/>
      <point x="294" y="126"/>
      <point x="226" y="126" type="curve" smooth="yes"/>
      <point x="190" y="126"/>
      <point x="150" y="148"/>
      <point x="130" y="170" type="curve"/>
      <point x="40" y="68" type="line"/>
      <point x="82" y="26"/>
      <point x="148" y="-12"/>
    </contour>
  </outline>
</glyph>
<glyph name="J" format="1">
	<unicode hex="004A"/>
	<advance width="520"/>
	<outline>
		<contour>
			<point x="220" y="-12" type="curve" smooth="yes"/>
			<point x="378" y="-12"/>
			<point x="452" y="98"/>
			<point x="452" y="232" type="curve" smooth="yes"/>
			<point x="452" y="650" type="line"/>
			<point x="280" y="650" type="line"/>
			<point x="280" y="246" type="line" smooth="yes"/>
			<point x="280" y="160"/>
			<point x="254" y="136"/>
			<point x="202" y="136" type="curve" smooth="yes"/>
			<point x="170" y="136"/>
			<point x="142" y="156"/>
			<point x="126" y="188" type="curve"/>
			<point x="14" y="114" type="line"/>
			<point x="58" y="24"/>
			<point x="124" y="-12"/>
		</contour>
		<contour>
			<point name="aboveUC" x="364" y="672" type="move"/>
		</contour>
		<contour>
			<point name="belowLC" x="276" y="-22" type="move"/>
		</contour>
	</outline>
</glyph>
<glyph name="bracketleft" format="1">
  <advance width="360"/>
  <unicode hex="005B"/>
  <outline>
    <contour>
      <point x="84" y="-152" type="line"/>
      <point x="308" y="-152" type="line"/>
      <point x="308" y="-62" type="line"/>
      <point x="212" y="-62" type="line"/>
      <point x="212" y="618" type="line"/>
      <point x="308" y="618" type="line"/>
      <point x="308" y="708" type="line"/>
      <point x="84" y="708" type="line"/>
    </contour>
  </outline>
</glyph>
<glyph name="underscore" format="1">
  <advance width="500"/>
  <unicode hex="005F"/>
  <outline>
    <contour>
      <point x="12" y="-146" type="line"/>
      <point x="488" y="-146" type="line"/>
      <point x="488" y="-52" type="line"/>
      <point x="12" y="-52" type="line"/>
    </contour>
  </outline>
</glyph>
<glyph name="i" format="1">
	<unicode hex="0069"/>
	<advance width="288"/>
	<outline>
		<component base="dotlessi"/>
		<component base="dotaccentcmb" xOffset="144"/>
		<contour>
			<point name="aboveLC" x="144" y="734" type="move"/>
		</contour>
		<contour>
			<point name="belowLC" x="144" y="-22" type="move"/>
		</contour>
		<contour>
			<point name="ogonekLC" x="140" y="0" type="move"/>
		</contour>
	</outline>
</glyph>
<glyph name="j" format="1">
	<unicode hex="006A"/>
	<advance width="290"/>
	<outline>
		<component base="dotlessj"/>
		<component base="dotaccentcmb" xOffset="146"/>
		<contour>
			<point name="aboveLC" x="146" y="734" type="move"/>
		</contour>
		<contour>
			<point name="belowLC" x="86" y="-237" type="move"/>
		</contour>
	</outline>
</glyph>
<glyph name="asciitilde" format="1">
  <advance width="540"/>
  <unicode hex="007E"/>
  <outline>
    <contour>
      <point x="354" y="234" type="curve" smooth="yes"/>
      <point x="406" y="234"/>
      <point x="460" y="262"/>
      <point x="514" y="342" type="curve"/>
      <point x="426" y="410" type="line"/>
      <point x="406" y="376"/>
      <point x="383" y="354"/>
      <point x="356" y="354" type="curve" smooth="yes"/>
      <point x="302" y="354"/>
      <point x="270" y="426"/>
      <point x="186" y="426" type="curve" smooth="yes"/>
      <point x="134" y="426"/>
      <point x="80" y="398"/>
      <point x="26" y="318" type="curve"/>
      <point x="114" y="250" type="line"/>
      <point x="134" y="284"/>
      <point x="158" y="306"/>
      <point x="184" y="306" type="curve" smooth="yes"/>
      <point x="238" y="306"/>
      <point x="270" y="234"/>
    </contour>
  </outline>
</glyph>
<glyph name="currency" format="1">
  <advance width="540"/>
  <unicode hex="00A4"/>
  <outline>
    <contour>
      <point x="102" y="76" type="line"/>
      <point x="173" y="147" type="line"/>
      <point x="204" y="134"/>
      <point x="237" y="128"/>
      <point x="270" y="128" type="curve" smooth="yes"/>
      <point x="302" y="128"/>
      <point x="336" y="134"/>
      <point x="367" y="147" type="curve"/>
      <point x="438" y="76" type="line"/>
      <point x="523" y="161" type="line"/>
      <point x="462" y="221" type="line"/>
      <point x="483" y="251"/>
      <point x="496" y="287"/>
      <point x="496" y="330" type="curve" smooth="yes"/>
      <point x="496" y="372"/>
      <point x="484" y="408"/>
      <point x="463" y="437" type="curve"/>
      <point x="523" y="497" type="line"/>
      <point x="438" y="582" type="line"/>
      <point x="368" y="512" type="line"/>
      <point x="337" y="525"/>
      <point x="303" y="532"/>
      <point x="270" y="532" type="curve" smooth="yes"/>
      <point x="237" y="532"/>
      <point x="203" y="525"/>
      <point x="172" y="512" type="curve"/>
      <point x="102" y="582" type="line"/>
      <point x="17" y="497" type="line"/>
      <point x="76" y="437" type="line"/>
      <point x="56" y="408"/>
      <point x="44" y="372"/>
      <point x="44" y="330" type="curve" smooth="yes"/>
      <point x="44" y="287"/>
      <point x="56" y="251"/>
      <point x="77" y="221" type="curve"/>
      <point x="17" y="161" type="line"/>
    </contour>
    <contour>
      <point x="270" y="246" type="curve" smooth="yes"/>
      <point x="228" y="246"/>
      <point x="196" y="278"/>
      <point x="196" y="330" type="curve" smooth="yes"/>
      <point x="196" y="382"/>
      <point x="228" y="414"/>
      <point x="270" y="414" type="curve" smooth="yes"/>
      <point x="312" y="414"/>
      <point x="344" y="382"/>
      <point x="344" y="330" type="curve" smooth="yes"/>
      <point x="344" y="278"/>
      <point x="312" y="246"/>
    </contour>
  </outline>
</glyph>
<glyph name="copyright" format="1">
  <advance width="752"/>
  <unicode hex="00A9"/>
  <outline>
    <contour>
      <point x="376" y="-8" type="curve" smooth="yes"/>
      <point x="554" y="-8"/>
      <point x="708" y="118"/>
      <point x="708" y="326" type="curve" smooth="yes"/>
      <point x="708" y="533"/>
      <point x="554" y="656"/>
      <point x="376" y="656" type="curve" smooth="yes"/>
      <point x="198" y="656"/>
      <point x="44" y="534"/>
      <point x="44" y="326" type="curve" smooth="yes"/>
      <point x="44" y="118"/>
      <point x="198" y="-8"/>
    </contour>
    <contour>
      <point x="376" y="60" type="curve" smooth="yes"/>
      <point x="230" y="60"/>
      <point x="120" y="166"/>
      <point x="120" y="326" type="curve" smooth="yes"/>
      <point x="120" y="486"/>
      <point x="230" y="588"/>
      <point x="376" y="588" type="curve" smooth="yes"/>
      <point x="522" y="588"/>
      <point x="632" y="486"/>
      <point x="632" y="326" type="curve" smooth="yes"/>
      <point x="632" y="166"/>
      <point x="522" y="60"/>
    </contour>
    <contour>
      <point x="390" y="128" type="curve" smooth="yes"/>
      <point x="439" y="128"/>
      <point x="482" y="148"/>
      <point x="520" y="178" type="curve"/>
      <point x="466" y="256" type="line"/>
      <point x="442" y="238"/>
      <point x="424" y="226"/>
      <point x="394" y="226" type="curve" smooth="yes"/>
      <point x="344" y="226"/>
      <point x="313" y="264"/>
      <point x="313" y="324" type="curve" smooth="yes"/>
      <point x="313" y="376"/>
      <point x="341" y="420"/>
      <point x="400" y="420" type="curve" smooth="yes"/>
      <point x="424" y="420"/>
      <point x="442" y="408"/>
      <point x="461" y="388" type="curve"/>
      <point x="524" y="458" type="line"/>
      <point x="492" y="490"/>
      <point x="452" y="518"/>
      <point x="388" y="518" type="curve" smooth="yes"/>
      <point x="286" y="518"/>
      <point x="192" y="442"/>
      <point x="192" y="324" type="curve" smooth="yes"/>
      <point x="192" y="204"/>
      <point x="274" y="128"/>
    </contour>
  </outline>
</glyph>
<glyph name="logicalnot" format="1">
  <advance width="540"/>
  <unicode hex="00AC"/>
  <outline>
    <contour>
      <point x="382" y="90" type="line"/>
      <point x="506" y="90" type="line"/>
      <point x="506" y="390" type="line"/>
      <point x="34" y="390" type="line"/>
      <point x="34" y="270" type="line"/>
      <point x="382" y="270" type="line"/>
    </contour>
  </outline>
</glyph>
<glyph name="registered" format="1">
  <advance width="477"/>
  <unicode hex="00AE"/>
  <outline>
    <contour>
      <point x="238" y="308" type="curve" smooth="yes"/>
      <point x="350" y="308"/>
      <point x="440" y="394"/>
      <point x="440" y="512" type="curve" smooth="yes"/>
      <point x="440" y="630"/>
      <point x="350" y="716"/>
      <point x="238" y="716" type="curve" smooth="yes"/>
      <point x="126" y="716"/>
      <point x="36" y="630"/>
      <point x="36" y="512" type="curve" smooth="yes"/>
      <point x="36" y="394"/>
      <point x="126" y="308"/>
    </contour>
    <contour>
      <point x="238" y="362" type="curve" smooth="yes"/>
      <point x="154" y="362"/>
      <point x="96" y="420"/>
      <point x="96" y="512" type="curve" smooth="yes"/>
      <point x="96" y="604"/>
      <point x="154" y="662"/>
      <point x="238" y="662" type="curve" smooth="yes"/>
      <point x="322" y="662"/>
      <point x="380" y="604"/>
      <point x="380" y="512" type="curve" smooth="yes"/>
      <point x="380" y="420"/>
      <point x="322" y="362"/>
    </contour>
    <contour>
      <point x="154" y="416" type="line"/>
      <point x="218" y="416" type="line"/>
      <point x="218" y="472" type="line"/>
      <point x="242" y="472" type="line"/>
      <point x="270" y="416" type="line"/>
      <point x="336" y="416" type="line"/>
      <point x="296" y="490" type="line"/>
      <point x="320" y="502"/>
      <point x="330" y="522"/>
      <point x="330" y="544" type="curve" smooth="yes"/>
      <point x="330" y="588"/>
      <point x="296" y="610"/>
      <point x="248" y="610" type="curve" smooth="yes"/>
      <point x="154" y="610" type="line"/>
    </contour>
    <contour>
      <point x="218" y="515" type="line"/>
      <point x="218" y="563" type="line"/>
      <point x="236" y="563" type="line" smooth="yes"/>
      <point x="252" y="563"/>
      <point x="262" y="553"/>
      <point x="262" y="540" type="curve" smooth="yes"/>
      <point x="262" y="528"/>
      <point x="254" y="515"/>
      <point x="236" y="515" type="curve" smooth="yes"/>
    </contour>
  </outline>
</glyph>
<glyph name="degree" format="1">
  <advance width="378"/>
  <unicode hex="00B0"/>
  <outline>
    <contour>
      <point x="190" y="386" type="curve" smooth="yes"/>
      <point x="276" y="386"/>
      <point x="342" y="450"/>
      <point x="342" y="536" type="curve" smooth="yes"/>
      <point x="342" y="622"/>
      <point x="276" y="686"/>
      <point x="190" y="686" type="curve" smooth="yes"/>
      <point x="104" y="686"/>
      <point x="38" y="622"/>
      <point x="38" y="536" type="curve" smooth="yes"/>
      <point x="38" y="450"/>
      <point x="104" y="386"/>
    </contour>
    <contour>
      <point x="190" y="466" type="curve" smooth="yes"/>
      <point x="152" y="466"/>
      <point x="126" y="494"/>
      <point x="126" y="536" type="curve" smooth="yes"/>
      <point x="126" y="578"/>
      <point x="152" y="606"/>
      <point x="190" y="606" type="curve" smooth="yes"/>
      <point x="228" y="606"/>
      <point x="254" y="578"/>
      <point x="254" y="536" type="curve" smooth="yes"/>
      <point x="254" y="494"/>
      <point x="228" y="466"/>
    </contour>
  </outline>
</glyph>
<glyph name="plusminus" format="1">
  <advance width="540"/>
  <unicode hex="00B1"/>
  <outline>
    <contour>
      <point x="208" y="170" type="line"/>
      <point x="332" y="170" type="line"/>
      <point x="332" y="290" type="line"/>
      <point x="506" y="290" type="line"/>
      <point x="506" y="410" type="line"/>
      <point x="332" y="410" type="line"/>
      <point x="332" y="570" type="line"/>
      <point x="208" y="570" type="line"/>
      <point x="208" y="410" type="line"/>
      <point x="34" y="410" type="line"/>
      <point x="34" y="290" type="line"/>
      <point x="208" y="290" type="line"/>
    </contour>
    <contour>
      <point x="34" y="0" type="line"/>
      <point x="506" y="0" type="line"/>
      <point x="506" y="120" type="line"/>
      <point x="34" y="120" type="line"/>
    </contour>
  </outline>
</glyph>
<glyph name="multiply" format="1">
  <advance width="540"/>
  <unicode hex="00D7"/>
  <outline>
    <contour>
      <point x="132" y="106" type="line"/>
      <point x="270" y="244" type="line"/>
      <point x="408" y="106" type="line"/>
      <point x="493" y="191" type="line"/>
      <point x="355" y="329" type="line"/>
      <point x="493" y="467" type="line"/>
      <point x="408" y="552" type="line"/>
      <point x="270" y="414" type="line"/>
      <point x="132" y="552" type="line"/>
      <point x="47" y="467" type="line"/>
      <point x="185" y="329" type="line"/>
      <point x="47" y="191" type="line"/>
    </contour>
  </outline>
</glyph>
<glyph name="Thorn" format="1">
  <advance width="630"/>
  <unicode hex="00DE"/>
  <outline>
    <contour>
      <point x="72" y="0" type="line"/>
      <point x="244" y="0" type="line"/>
      <point x="244" y="112" type="line"/>
      <point x="324" y="112" type="line" smooth="yes"/>
      <point x="460" y="112"/>
      <point x="584" y="181"/>
      <point x="584" y="340" type="curve" smooth="yes"/>
      <point x="584" y="504"/>
      <point x="464" y="556"/>
      <point x="324" y="556" type="curve" smooth="yes"/>
      <point x="244" y="556" type="line"/>
      <point x="244" y="650" type="line"/>
      <point x="72" y="650" type="line"/>
    </contour>
    <contour>
      <point x="244" y="248" type="line"/>
      <point x="244" y="420" type="line"/>
      <point x="316" y="420" type="line" smooth="yes"/>
      <point x="380" y="420"/>
      <point x="416" y="398"/>
      <point x="416" y="340" type="curve" smooth="yes"/>
      <point x="416" y="282"/>
      <point x="384" y="248"/>
      <point x="316" y="248" type="curve" smooth="yes"/>
    </contour>
  </outline>
</glyph>
<glyph name="ae" format="1">
	<unicode hex="00E6"/>
	<advance width="782"/>
	<outline>
		<contour>
			<point x="188" y="-12" type="curve" smooth="yes"/>
			<point x="255" y="-12"/>
			<point x="304" y="5"/>
			<point x="376" y="60" type="curve"/>
			<point x="419" y="15"/>
			<point x="476" y="-12"/>
			<point x="546" y="-12" type="curve"/>
			<point x="602" y="-12"/>
			<point x="674" y="8"/>
			<point x="728" y="46" type="curve"/>
			<point x="670" y="156" type="line"/>
			<point x="634" y="136"/>
			<point x="604" y="122"/>
			<point x="570" y="122" type="curve" smooth="yes"/>
			<point x="519" y="122"/>
			<point x="478" y="142"/>
			<point x="464" y="198" type="curve"/>
			<point x="739" y="198" type="line"/>
			<point x="742" y="210"/>
			<point x="746" y="236"/>
			<point x="746" y="266" type="curve" smooth="yes"/>
			<point x="746" y="400"/>
			<point x="680" y="512"/>
			<point x="544" y="512" type="curve"/>
			<point x="488" y="512"/>
			<point x="446" y="490"/>
			<point x="402" y="448" type="curve"/>
			<point x="370" y="488"/>
			<point x="322" y="512"/>
			<point x="264" y="512" type="curve" smooth="yes"/>
			<point x="192" y="512"/>
			<point x="124" y="488"/>
			<point x="54" y="446" type="curve"/>
			<point x="114" y="334" type="line"/>
			<point x="166" y="362"/>
			<point x="204" y="376"/>
			<point x="240" y="376" type="curve" smooth="yes"/>
			<point x="285" y="376"/>
			<point x="304" y="360"/>
			<point x="308" y="325" type="curve"/>
			<point x="116" y="305"/>
			<point x="38" y="246"/>
			<point x="38" y="142" type="curve" smooth="yes"/>
			<point x="38" y="60"/>
			<point x="94" y="-12"/>
		</contour>
		<contour>
			<point x="248" y="120" type="curve" smooth="yes"/>
			<point x="218" y="120"/>
			<point x="202" y="133"/>
			<point x="202" y="156" type="curve" smooth="yes"/>
			<point x="202" y="185"/>
			<point x="231" y="210"/>
			<point x="306" y="222" type="curve"/>
			<point x="308" y="203" type="line" smooth="yes"/>
			<point x="310" y="186"/>
			<point x="314" y="168"/>
			<point x="320" y="150" type="curve"/>
			<point x="300" y="132"/>
			<point x="277" y="120"/>
		</contour>
		<contour>
			<point x="464" y="302" type="line"/>
			<point x="472" y="360"/>
			<point x="500" y="382"/>
			<point x="538" y="382" type="curve" smooth="yes"/>
			<point x="584" y="382"/>
			<point x="600" y="346"/>
			<point x="600" y="302" type="curve"/>
		</contour>
		<contour>
			<point name="aboveLC" x="406" y="522" type="move"/>
		</contour>
		<contour>
			<point name="belowLC" x="400" y="-22" type="move"/>
		</contour>
	</outline>
</glyph>
<glyph name="Hbar" format="1">
	<unicode hex="0126"/>
	<advance width="722"/>
	<outline>
		<contour>
			<point x="22" y="470" type="line"/>
			<point x="700" y="470" type="line"/>
			<point x="700" y="582" type="line"/>
			<point x="98" y="582" type="line"/>
			<point x="22" y="576" type="line"/>
		</contour>
		<component base="H" xOffset="20"/>
	</outline>
</glyph>
<glyph name="Lslash" format="1">
  <advance width="538"/>
  <unicode hex="0141"/>
  <outline>
    <contour>
      <point x="28" y="166" type="line"/>
      <point x="99" y="210" type="line"/>
      <point x="235" y="268" type="line"/>
      <point x="460" y="392" type="line"/>
      <point x="402" y="494" type="line"/>
      <point x="235" y="400" type="line"/>
      <point x="99" y="342" type="line"/>
      <point x="-30" y="268" type="line"/>
    </contour>
    <component base="L" xOffset="8"/>
  </outline>
</glyph>
<glyph name="Eng" format="1">
  <advance width="678"/>
  <unicode hex="014A"/>
  <outline>
    <contour>
      <point x="378" y="672" type="move" name="aboveUC"/>
    </contour>
    <contour>
      <point x="414" y="-12" type="curve" smooth="yes"/>
      <point x="569" y="-12"/>
      <point x="634" y="105"/>
      <point x="634" y="330" type="curve" smooth="yes"/>
      <point x="634" y="572"/>
      <point x="538" y="662"/>
      <point x="411" y="662" type="curve" smooth="yes"/>
      <point x="346" y="662"/>
      <point x="288" y="638"/>
      <point x="238" y="584" type="curve"/>
      <point x="238" y="650" type="line"/>
      <point x="72" y="650" type="line"/>
      <point x="72" y="0" type="line"/>
      <point x="244" y="0" type="line"/>
      <point x="244" y="438" type="line"/>
      <point x="274" y="491"/>
      <point x="322" y="514"/>
      <point x="358" y="514" type="curve" smooth="yes"/>
      <point x="422" y="514"/>
      <point x="458" y="461"/>
      <point x="458" y="330" type="curve" smooth="yes"/>
      <point x="458" y="176"/>
      <point x="429" y="148"/>
      <point x="394" y="148" type="curve" smooth="yes"/>
      <point x="378" y="148"/>
      <point x="366" y="152"/>
      <point x="356" y="156" type="curve"/>
      <point x="320" y="8" type="line"/>
      <point x="340" y="-6"/>
      <point x="382" y="-12"/>
    </contour>
  </outline>
</glyph>
<glyph name="Tbar" format="1">
	<unicode hex="0166"/>
	<advance width="564"/>
	<outline>
		<contour>
			<point x="80" y="252" type="line"/>
			<point x="484" y="252" type="line"/>
			<point x="484" y="364" type="line"/>
			<point x="176" y="364" type="line"/>
			<point x="80" y="358" type="line"/>
		</contour>
		<component base="T"/>
		<contour>
			<point name="aboveUC" x="280" y="672" type="move"/>
		</contour>
		<contour>
			<point name="belowLC" x="280" y="-22" type="move"/>
		</contour>
	</outline>
</glyph>
<glyph name="tbar" format="1">
	<unicode hex="0167"/>
	<advance width="400"/>
	<outline>
		<contour>
			<point x="14" y="192" type="line"/>
			<point x="366" y="192" type="line"/>
			<point x="366" y="304" type="line"/>
			<point x="90" y="304" type="line"/>
			<point x="14" y="298" type="line"/>
		</contour>
		<component base="t"/>
		<contour>
			<point name="aboveLC" x="180" y="664" type="move"/>
		</contour>
		<contour>
			<point name="belowLC" x="240" y="-22" type="move"/>
		</contour>
	</outline>
</glyph>
<glyph name="Uogonek" format="1">
	<unicode hex="0172"/>
	<advance width="672"/>
	<outline>
		<contour>
			<point x="350" y="-228" type="curve" smooth="yes"/>
			<point x="388" y="-228"/>
			<point x="436" y="-212"/>
			<point x="464" y="-190" type="curve"/>
			<point x="426" y="-104" type="line"/>
			<point x="417" y="-110"/>
			<point x="404" y="-118"/>
			<point x="392" y="-118" type="curve" smooth="yes"/>
			<point x="372" y="-118"/>
			<point x="352" y="-108"/>
			<point x="352" y="-84" type="curve" smooth="yes"/>
			<point x="352" y="-59"/>
			<point x="369" y="-24"/>
			<point x="418" y="-8" type="curve" smooth="yes"/>
			<point x="548" y="34"/>
			<point x="604" y="124"/>
			<point x="604" y="314" type="curve" smooth="yes"/>
			<point x="604" y="650" type="line"/>
			<point x="438" y="650" type="line"/>
			<point x="438" y="294" type="line" smooth="yes"/>
			<point x="438" y="178"/>
			<point x="406" y="136"/>
			<point x="338" y="136" type="curve" smooth="yes"/>
			<point x="270" y="136"/>
			<point x="240" y="178"/>
			<point x="240" y="294" type="curve" smooth="yes"/>
			<point x="240" y="650" type="line"/>
			<point x="68" y="650" type="line"/>
			<point x="68" y="314" type="line" smooth="yes"/>
			<point x="68" y="92"/>
			<point x="156" y="-12"/>
			<point x="338" y="-12" type="curve"/>
			<point x="304" y="2" type="line"/>
			<point x="268" y="-22"/>
			<point x="228" y="-76"/>
			<point x="228" y="-130" type="curve" smooth="yes"/>
			<point x="228" y="-192"/>
			<point x="282" y="-228"/>
		</contour>
		<contour>
			<point name="aboveUC" x="336" y="672" type="move"/>
		</contour>
	</outline>
</glyph>
<glyph name="bstroke" format="1">
	<unicode hex="0180"/>
	<advance width="582"/>
	<outline>
		<contour>
			<point x="336" y="-12" type="curve" smooth="yes"/>
			<point x="442" y="-12"/>
			<point x="544" y="82"/>
			<point x="544" y="235" type="curve" smooth="yes"/>
			<point x="544" y="368"/>
			<point x="467" y="460"/>
			<point x="349" y="460" type="curve" smooth="yes"/>
			<point x="305" y="460"/>
			<point x="261" y="442"/>
			<point x="226" y="410" type="curve"/>
			<point x="230" y="482" type="line"/>
			<point x="230" y="696" type="line"/>
			<point x="58" y="696" type="line"/>
			<point x="58" y="0" type="line"/>
			<point x="192" y="0" type="line"/>
			<point x="206" y="54" type="line"/>
			<point x="210" y="54" type="line"/>
			<point x="248" y="10"/>
			<point x="292" y="-12"/>
		</contour>
		<contour>
			<point x="294" y="128" type="curve" smooth="yes"/>
			<point x="272" y="128"/>
			<point x="250" y="134"/>
			<point x="230" y="152" type="curve"/>
			<point x="230" y="284" type="line"/>
			<point x="252" y="310"/>
			<point x="272" y="320"/>
			<point x="298" y="320" type="curve" smooth="yes"/>
			<point x="344" y="320"/>
			<point x="368" y="290"/>
			<point x="368" y="232" type="curve" smooth="yes"/>
			<point x="368" y="160"/>
			<point x="334" y="128"/>
		</contour>
		<contour>
			<point x="-8" y="518" type="line"/>
			<point x="394" y="518" type="line"/>
			<point x="394" y="630" type="line"/>
			<point x="68" y="630" type="line"/>
			<point x="-8" y="624" type="line"/>
		</contour>
	</outline>
</glyph>
<glyph name="clickalveolar" format="1">
	<unicode hex="01C2"/>
	<advance width="406"/>
	<outline>
		<contour>
			<point x="6" y="120" type="line"/>
			<point x="400" y="120" type="line"/>
			<point x="400" y="232" type="line"/>
			<point x="82" y="232" type="line"/>
			<point x="6" y="226" type="line"/>
		</contour>
		<contour>
			<point x="6" y="304" type="line"/>
			<point x="400" y="304" type="line"/>
			<point x="400" y="416" type="line"/>
			<point x="82" y="416" type="line"/>
			<point x="6" y="410" type="line"/>
		</contour>
		<contour>
			<point x="120" y="-176" type="line"/>
			<point x="292" y="-176" type="line"/>
			<point x="292" y="696" type="line"/>
			<point x="120" y="696" type="line"/>
		</contour>
	</outline>
</glyph>
<glyph name="Oogonek" format="1">
	<unicode hex="01EA"/>
	<advance width="692"/>
	<outline>
		<contour>
			<point x="360" y="-228" type="curve" smooth="yes"/>
			<point x="398" y="-228"/>
			<point x="446" y="-212"/>
			<point x="474" y="-190" type="curve"/>
			<point x="436" y="-104" type="line"/>
			<point x="427" y="-110"/>
			<point x="414" y="-118"/>
			<point x="402" y="-118" type="curve" smooth="yes"/>
			<point x="382" y="-118"/>
			<point x="362" y="-108"/>
			<point x="362" y="-84" type="curve" smooth="yes"/>
			<point x="362" y="-54"/>
			<point x="386" y="-16"/>
			<point x="432" y="-2" type="curve" smooth="yes"/>
			<point x="565" y="38"/>
			<point x="648" y="146"/>
			<point x="648" y="328" type="curve" smooth="yes"/>
			<point x="648" y="541"/>
			<point x="526" y="662"/>
			<point x="346" y="662" type="curve" smooth="yes"/>
			<point x="166" y="662"/>
			<point x="44" y="542"/>
			<point x="44" y="328" type="curve" smooth="yes"/>
			<point x="44" y="114"/>
			<point x="166" y="-12"/>
			<point x="346" y="-12" type="curve"/>
			<point x="314" y="2" type="line"/>
			<point x="278" y="-22"/>
			<point x="238" y="-76"/>
			<point x="238" y="-130" type="curve" smooth="yes"/>
			<point x="238" y="-192"/>
			<point x="292" y="-228"/>
		</contour>
		<contour>
			<point x="346" y="136" type="curve" smooth="yes"/>
			<point x="268" y="136"/>
			<point x="220" y="210"/>
			<point x="220" y="328" type="curve" smooth="yes"/>
			<point x="220" y="446"/>
			<point x="268" y="514"/>
			<point x="346" y="514" type="curve" smooth="yes"/>
			<point x="424" y="514"/>
			<point x="472" y="446"/>
			<point x="472" y="328" type="curve" smooth="yes"/>
			<point x="472" y="210"/>
			<point x="424" y="136"/>
		</contour>
		<contour>
			<point name="aboveUC" x="346" y="672" type="move"/>
		</contour>
	</outline>
</glyph>
<glyph name="oogonek" format="1">
	<unicode hex="01EB"/>
	<advance width="560"/>
	<outline>
		<contour>
			<point x="288" y="-212" type="curve" smooth="yes"/>
			<point x="322" y="-212"/>
			<point x="370" y="-198"/>
			<point x="398" y="-176" type="curve"/>
			<point x="364" y="-100" type="line"/>
			<point x="355" y="-106"/>
			<point x="342" y="-112"/>
			<point x="330" y="-112" type="curve" smooth="yes"/>
			<point x="310" y="-112"/>
			<point x="290" y="-102"/>
			<point x="290" y="-78" type="curve" smooth="yes"/>
			<point x="290" y="-52"/>
			<point x="304" y="-24"/>
			<point x="350" y="-6" type="curve" smooth="yes"/>
			<point x="456" y="36"/>
			<point x="528" y="116"/>
			<point x="528" y="250" type="curve" smooth="yes"/>
			<point x="528" y="416"/>
			<point x="408" y="512"/>
			<point x="280" y="512" type="curve" smooth="yes"/>
			<point x="152" y="512"/>
			<point x="32" y="416"/>
			<point x="32" y="250" type="curve" smooth="yes"/>
			<point x="32" y="84"/>
			<point x="152" y="-12"/>
			<point x="280" y="-12" type="curve"/>
			<point x="246" y="2" type="line"/>
			<point x="222" y="-14"/>
			<point x="176" y="-58"/>
			<point x="176" y="-118" type="curve" smooth="yes"/>
			<point x="176" y="-180"/>
			<point x="226" y="-212"/>
		</contour>
		<contour>
			<point x="280" y="126" type="curve" smooth="yes"/>
			<point x="228" y="126"/>
			<point x="208" y="174"/>
			<point x="208" y="250" type="curve" smooth="yes"/>
			<point x="208" y="326"/>
			<point x="228" y="374"/>
			<point x="280" y="374" type="curve" smooth="yes"/>
			<point x="332" y="374"/>
			<point x="352" y="326"/>
			<point x="352" y="250" type="curve" smooth="yes"/>
			<point x="352" y="174"/>
			<point x="332" y="126"/>
		</contour>
		<contour>
			<point name="aboveLC" x="280" y="522" type="move"/>
		</contour>
	</outline>
</glyph>
<glyph name="glottalstop" format="1">
	<unicode hex="0242"/>
	<unicode hex="0294"/>
	<advance width="460"/>
	<outline>
		<contour>
			<point x="122" y="0" type="line"/>
			<point x="294" y="0" type="line"/>
			<point x="294" y="266" type="line"/>
			<point x="380" y="330"/>
			<point x="444" y="396"/>
			<point x="444" y="498" type="curve" smooth="yes"/>
			<point x="444" y="639"/>
			<point x="336" y="708"/>
			<point x="212" y="708" type="curve" smooth="yes"/>
			<point x="113" y="708"/>
			<point x="42" y="670"/>
			<point x="-8" y="618" type="curve"/>
			<point x="76" y="510" type="line"/>
			<point x="108" y="544"/>
			<point x="148" y="570"/>
			<point x="192" y="570" type="curve" smooth="yes"/>
			<point x="240" y="570"/>
			<point x="272" y="543"/>
			<point x="272" y="490" type="curve" smooth="yes"/>
			<point x="272" y="435"/>
			<point x="233" y="394"/>
			<point x="122" y="324" type="curve"/>
		</contour>
		<contour>
			<point name="aboveUC" x="220" y="720" type="move"/>
		</contour>
		<contour>
			<point name="belowLC" x="200" y="-22" type="move"/>
		</contour>
	</outline>
</glyph>
<glyph name="Bstroke" format="1">
	<unicode hex="0243"/>
	<advance width="638"/>
	<outline>
		<contour>
			<point x="98" y="0" type="line"/>
			<point x="352" y="0" type="line" smooth="yes"/>
			<point x="492" y="0"/>
			<point x="608" y="61"/>
			<point x="608" y="202" type="curve" smooth="yes"/>
			<point x="608" y="294"/>
			<point x="562" y="345"/>
			<point x="470" y="364" type="curve"/>
			<point x="470" y="368" type="line"/>
			<point x="546" y="387"/>
			<point x="578" y="442"/>
			<point x="578" y="494" type="curve" smooth="yes"/>
			<point x="578" y="614"/>
			<point x="468" y="650"/>
			<point x="332" y="650" type="curve" smooth="yes"/>
			<point x="98" y="650" type="line"/>
		</contour>
		<contour>
			<point x="270" y="404" type="line"/>
			<point x="270" y="528" type="line"/>
			<point x="328" y="528" type="line" smooth="yes"/>
			<point x="384" y="528"/>
			<point x="414" y="512"/>
			<point x="414" y="472" type="curve" smooth="yes"/>
			<point x="414" y="432"/>
			<point x="384" y="404"/>
			<point x="328" y="404" type="curve" smooth="yes"/>
		</contour>
		<contour>
			<point x="270" y="122" type="line"/>
			<point x="270" y="304" type="line"/>
			<point x="340" y="304" type="line" smooth="yes"/>
			<point x="408" y="304"/>
			<point x="444" y="278"/>
			<point x="444" y="216" type="curve" smooth="yes"/>
			<point x="444" y="156"/>
			<point x="408" y="122"/>
			<point x="340" y="122" type="curve" smooth="yes"/>
		</contour>
		<contour>
			<point x="24" y="158" type="line"/>
			<point x="386" y="158" type="line"/>
			<point x="386" y="270" type="line"/>
			<point x="100" y="270" type="line"/>
			<point x="24" y="264" type="line"/>
		</contour>
	</outline>
</glyph>
<glyph name="alphalatin" format="1">
	<unicode hex="0251"/>
	<advance width="580"/>
	<outline>
		<contour>
			<point x="240" y="-12" type="curve" smooth="yes"/>
			<point x="292" y="-12"/>
			<point x="340" y="18"/>
			<point x="372" y="52" type="curve"/>
			<point x="376" y="52" type="line"/>
			<point x="398" y="12"/>
			<point x="438" y="-12"/>
			<point x="504" y="-12" type="curve" smooth="yes"/>
			<point x="536" y="-12"/>
			<point x="560" y="-4"/>
			<point x="578" y="2" type="curve"/>
			<point x="558" y="128" type="line"/>
			<point x="552" y="126"/>
			<point x="550" y="126"/>
			<point x="546" y="126" type="curve" smooth="yes"/>
			<point x="532" y="126"/>
			<point x="522" y="136"/>
			<point x="522" y="170" type="curve" smooth="yes"/>
			<point x="522" y="500" type="line"/>
			<point x="388" y="500" type="line"/>
			<point x="374" y="450" type="line"/>
			<point x="370" y="450" type="line"/>
			<point x="332" y="494"/>
			<point x="292" y="512"/>
			<point x="244" y="512" type="curve" smooth="yes"/>
			<point x="138" y="512"/>
			<point x="36" y="414"/>
			<point x="36" y="250" type="curve" smooth="yes"/>
			<point x="36" y="88"/>
			<point x="116" y="-12"/>
		</contour>
		<contour>
			<point x="286" y="128" type="curve" smooth="yes"/>
			<point x="240" y="128"/>
			<point x="212" y="162"/>
			<point x="212" y="252" type="curve" smooth="yes"/>
			<point x="212" y="340"/>
			<point x="246" y="372"/>
			<point x="282" y="372" type="curve" smooth="yes"/>
			<point x="304" y="372"/>
			<point x="330" y="366"/>
			<point x="350" y="348" type="curve"/>
			<point x="350" y="164" type="line"/>
			<point x="332" y="136"/>
			<point x="312" y="128"/>
		</contour>
		<contour>
			<point name="aboveLC" x="290" y="522" type="move"/>
		</contour>
		<contour>
			<point name="belowLC" x="300" y="-22" type="move"/>
		</contour>
	</outline>
</glyph>
<glyph name="alphalatinturned" format="1">
	<unicode hex="0252"/>
	<advance width="580"/>
	<outline>
		<contour>
			<point x="294" y="128" type="curve" smooth="yes"/>
			<point x="272" y="128"/>
			<point x="250" y="134"/>
			<point x="230" y="152" type="curve"/>
			<point x="230" y="336" type="line"/>
			<point x="252" y="362"/>
			<point x="272" y="372"/>
			<point x="298" y="372" type="curve" smooth="yes"/>
			<point x="344" y="372"/>
			<point x="368" y="338"/>
			<point x="368" y="256" type="curve" smooth="yes"/>
			<point x="368" y="160"/>
			<point x="334" y="128"/>
		</contour>
		<contour>
			<point x="336" y="-12" type="curve" smooth="yes"/>
			<point x="442" y="-12"/>
			<point x="544" y="86"/>
			<point x="544" y="258" type="curve" smooth="yes"/>
			<point x="544" y="412"/>
			<point x="468" y="512"/>
			<point x="350" y="512" type="curve" smooth="yes"/>
			<point x="296" y="512"/>
			<point x="244" y="484"/>
			<point x="208" y="448" type="curve"/>
			<point x="204" y="448" type="line"/>
			<point x="182" y="488"/>
			<point x="142" y="512"/>
			<point x="76" y="512" type="curve" smooth="yes"/>
			<point x="44" y="512"/>
			<point x="20" y="504"/>
			<point x="2" y="498" type="curve"/>
			<point x="22" y="372" type="line"/>
			<point x="28" y="374"/>
			<point x="30" y="374"/>
			<point x="34" y="374" type="curve" smooth="yes"/>
			<point x="48" y="374"/>
			<point x="58" y="364"/>
			<point x="58" y="330" type="curve" smooth="yes"/>
			<point x="58" y="0" type="line"/>
			<point x="192" y="0" type="line"/>
			<point x="206" y="50" type="line"/>
			<point x="210" y="50" type="line"/>
			<point x="248" y="6"/>
			<point x="294" y="-12"/>
		</contour>
		<contour>
			<point name="aboveLC" x="306" y="522" type="move"/>
		</contour>
		<contour>
			<point name="belowLC" x="296" y="-22" type="move"/>
		</contour>
	</outline>
</glyph>
<glyph name="ccurl" format="1">
	<unicode hex="0255"/>
	<advance width="482"/>
	<outline>
		<contour>
			<point x="132" y="-74" type="line"/>
			<point x="180" y="86"/>
			<point x="260" y="184"/>
			<point x="324" y="184" type="curve" smooth="yes"/>
			<point x="344" y="184"/>
			<point x="356" y="174"/>
			<point x="356" y="154" type="curve" smooth="yes"/>
			<point x="356" y="136"/>
			<point x="339" y="118"/>
			<point x="304" y="118" type="curve" smooth="yes"/>
			<point x="244" y="118"/>
			<point x="198" y="168"/>
			<point x="198" y="250" type="curve" smooth="yes"/>
			<point x="198" y="332"/>
			<point x="240" y="382"/>
			<point x="310" y="382" type="curve" smooth="yes"/>
			<point x="328" y="382"/>
			<point x="350" y="376"/>
			<point x="372" y="358" type="curve"/>
			<point x="446" y="460" type="line"/>
			<point x="408" y="492"/>
			<point x="360" y="512"/>
			<point x="300" y="512" type="curve" smooth="yes"/>
			<point x="158" y="512"/>
			<point x="32" y="416"/>
			<point x="32" y="250" type="curve" smooth="yes"/>
			<point x="32" y="84"/>
			<point x="144" y="-12"/>
			<point x="292" y="-12" type="curve" smooth="yes"/>
			<point x="412" y="-12"/>
			<point x="478" y="62"/>
			<point x="478" y="154" type="curve" smooth="yes"/>
			<point x="478" y="242"/>
			<point x="423" y="296"/>
			<point x="344" y="296" type="curve" smooth="yes"/>
			<point x="232" y="296"/>
			<point x="123" y="184"/>
			<point x="40" y="-36" type="curve"/>
		</contour>
		<contour>
			<point name="aboveLC" x="290" y="522" type="move"/>
		</contour>
		<contour>
			<point name="belowLC" x="290" y="-22" type="move"/>
		</contour>
	</outline>
</glyph>
<glyph name="eopen" format="1">
	<unicode hex="025B"/>
	<advance width="470"/>
	<outline>
		<contour>
			<point x="276" y="-12" type="curve" smooth="yes"/>
			<point x="337" y="-12"/>
			<point x="390" y="-2"/>
			<point x="452" y="36" type="curve"/>
			<point x="386" y="144" type="line"/>
			<point x="352" y="126"/>
			<point x="317" y="118"/>
			<point x="293" y="118" type="curve" smooth="yes"/>
			<point x="246" y="118"/>
			<point x="212" y="134"/>
			<point x="212" y="162" type="curve" smooth="yes"/>
			<point x="212" y="190"/>
			<point x="229" y="198"/>
			<point x="270" y="198" type="curve"/>
			<point x="359" y="198" type="line"/>
			<point x="359" y="310" type="line"/>
			<point x="286" y="310" type="line"/>
			<point x="252" y="310"/>
			<point x="234" y="318"/>
			<point x="234" y="342" type="curve" smooth="yes"/>
			<point x="234" y="364"/>
			<point x="252" y="382"/>
			<point x="288" y="382" type="curve" smooth="yes"/>
			<point x="322" y="382"/>
			<point x="348" y="374"/>
			<point x="380" y="358" type="curve"/>
			<point x="442" y="468" type="line"/>
			<point x="390" y="498"/>
			<point x="336" y="512"/>
			<point x="278" y="512" type="curve" smooth="yes"/>
			<point x="166" y="512"/>
			<point x="66" y="469"/>
			<point x="66" y="366" type="curve" smooth="yes"/>
			<point x="66" y="328"/>
			<point x="90" y="282"/>
			<point x="147" y="266" type="curve"/>
			<point x="147" y="262" type="line"/>
			<point x="84" y="246"/>
			<point x="44" y="210"/>
			<point x="44" y="144" type="curve" smooth="yes"/>
			<point x="44" y="40"/>
			<point x="162" y="-12"/>
		</contour>
		<contour>
			<point name="aboveLC" x="268" y="522" type="move"/>
		</contour>
		<contour>
			<point name="belowLC" x="256" y="-22" type="move"/>
		</contour>
		<contour>
			<point name="baseLC" x="235" y="0" type="move"/>
		</contour>
	</outline>
</glyph>
<glyph name="eopenreversedclosed" format="1">
	<unicode hex="025E"/>
	<advance width="574"/>
	<outline>
		<contour>
			<point x="302" y="-12" type="curve" smooth="yes"/>
			<point x="416" y="-12"/>
			<point x="532" y="40"/>
			<point x="532" y="144" type="curve" smooth="yes"/>
			<point x="532" y="210"/>
			<point x="492" y="246"/>
			<point x="429" y="262" type="curve"/>
			<point x="429" y="266" type="line"/>
			<point x="486" y="282"/>
			<point x="510" y="328"/>
			<point x="510" y="366" type="curve" smooth="yes"/>
			<point x="510" y="469"/>
			<point x="412" y="512"/>
			<point x="300" y="512" type="curve" smooth="yes"/>
			<point x="162" y="512"/>
			<point x="32" y="426"/>
			<point x="32" y="250" type="curve" smooth="yes"/>
			<point x="32" y="74"/>
			<point x="154" y="-12"/>
		</contour>
		<contour>
			<point x="302" y="118" type="curve" smooth="yes"/>
			<point x="244" y="118"/>
			<point x="208" y="154"/>
			<point x="208" y="250" type="curve" smooth="yes"/>
			<point x="208" y="346"/>
			<point x="242" y="382"/>
			<point x="296" y="382" type="curve" smooth="yes"/>
			<point x="322" y="382"/>
			<point x="342" y="364"/>
			<point x="342" y="342" type="curve" smooth="yes"/>
			<point x="342" y="318"/>
			<point x="327" y="310"/>
			<point x="300" y="310" type="curve" smooth="yes"/>
			<point x="268" y="310" type="line"/>
			<point x="268" y="198" type="line"/>
			<point x="316" y="198" type="line" smooth="yes"/>
			<point x="350" y="198"/>
			<point x="364" y="190"/>
			<point x="364" y="162" type="curve" smooth="yes"/>
			<point x="364" y="134"/>
			<point x="338" y="118"/>
		</contour>
		<contour>
			<point name="aboveLC" x="310" y="522" type="move"/>
		</contour>
		<contour>
			<point name="belowLC" x="290" y="-22" type="move"/>
		</contour>
	</outline>
</glyph>
<glyph name="dotlessjstroke" format="1">
	<unicode hex="025F"/>
	<advance width="380"/>
	<outline>
		<contour>
			<point x="18" y="198" type="line"/>
			<point x="358" y="198" type="line"/>
			<point x="358" y="310" type="line"/>
			<point x="104" y="310" type="line"/>
			<point x="18" y="304" type="line"/>
		</contour>
		<component base="dotlessj" xOffset="44"/>
		<contour>
			<point name="aboveLC" x="190" y="522" type="move"/>
		</contour>
		<contour>
			<point name="belowLC" x="190" y="-198" type="move"/>
		</contour>
	</outline>
</glyph>
<glyph name="ghook" format="1">
	<unicode hex="0260"/>
	<advance width="592"/>
	<outline>
		<contour>
			<point x="262" y="-196" type="curve" smooth="yes"/>
			<point x="432" y="-196"/>
			<point x="528" y="-118"/>
			<point x="528" y="26" type="curve" smooth="yes"/>
			<point x="528" y="464" type="line" smooth="yes"/>
			<point x="528" y="508"/>
			<point x="538" y="528"/>
			<point x="564" y="528" type="curve" smooth="yes"/>
			<point x="580" y="528"/>
			<point x="586" y="526"/>
			<point x="594" y="522" type="curve"/>
			<point x="624" y="648" type="line"/>
			<point x="606" y="654"/>
			<point x="582" y="662"/>
			<point x="550" y="662" type="curve" smooth="yes"/>
			<point x="407" y="662"/>
			<point x="360" y="570"/>
			<point x="360" y="492" type="curve"/>
			<point x="360" y="462" type="line"/>
			<point x="330" y="492"/>
			<point x="298" y="512"/>
			<point x="250" y="512" type="curve" smooth="yes"/>
			<point x="148" y="512"/>
			<point x="42" y="412"/>
			<point x="42" y="260" type="curve" smooth="yes"/>
			<point x="42" y="120"/>
			<point x="122" y="16"/>
			<point x="246" y="16" type="curve" smooth="yes"/>
			<point x="288" y="16"/>
			<point x="329" y="32"/>
			<point x="360" y="60" type="curve"/>
			<point x="356" y="10" type="line" smooth="yes"/>
			<point x="353" y="-30"/>
			<point x="328" y="-62"/>
			<point x="262" y="-62" type="curve" smooth="yes"/>
			<point x="224" y="-62"/>
			<point x="174" y="-52"/>
			<point x="128" y="-28" type="curve"/>
			<point x="72" y="-140" type="line"/>
			<point x="132" y="-178"/>
			<point x="210" y="-196"/>
		</contour>
		<contour>
			<point x="292" y="154" type="curve" smooth="yes"/>
			<point x="246" y="154"/>
			<point x="216" y="191"/>
			<point x="216" y="262" type="curve" smooth="yes"/>
			<point x="216" y="337"/>
			<point x="250" y="372"/>
			<point x="288" y="372" type="curve" smooth="yes"/>
			<point x="310" y="372"/>
			<point x="336" y="366"/>
			<point x="356" y="348" type="curve"/>
			<point x="356" y="192" type="line"/>
			<point x="336" y="162"/>
			<point x="318" y="154"/>
		</contour>
		<contour>
			<point name="aboveLC" x="306" y="522" type="move"/>
		</contour>
		<contour>
			<point name="belowLC" x="296" y="-198" type="move"/>
		</contour>
	</outline>
</glyph>
<glyph name="gscript" format="1">
	<unicode hex="0261"/>
	<advance width="580"/>
	<outline>
		<contour>
			<point x="256" y="-196" type="curve" smooth="yes"/>
			<point x="426" y="-196"/>
			<point x="522" y="-118"/>
			<point x="522" y="26" type="curve" smooth="yes"/>
			<point x="522" y="500" type="line"/>
			<point x="384" y="500" type="line"/>
			<point x="372" y="454" type="line"/>
			<point x="368" y="454" type="line"/>
			<point x="332" y="496"/>
			<point x="292" y="512"/>
			<point x="244" y="512" type="curve" smooth="yes"/>
			<point x="142" y="512"/>
			<point x="36" y="412"/>
			<point x="36" y="260" type="curve" smooth="yes"/>
			<point x="36" y="120"/>
			<point x="116" y="16"/>
			<point x="240" y="16" type="curve" smooth="yes"/>
			<point x="282" y="16"/>
			<point x="323" y="32"/>
			<point x="354" y="60" type="curve"/>
			<point x="350" y="10" type="line"/>
			<point x="346" y="-30"/>
			<point x="322" y="-62"/>
			<point x="256" y="-62" type="curve" smooth="yes"/>
			<point x="218" y="-62"/>
			<point x="168" y="-52"/>
			<point x="122" y="-28" type="curve"/>
			<point x="66" y="-140" type="line"/>
			<point x="126" y="-178"/>
			<point x="204" y="-196"/>
		</contour>
		<contour>
			<point x="286" y="154" type="curve" smooth="yes"/>
			<point x="240" y="154"/>
			<point x="210" y="191"/>
			<point x="210" y="262" type="curve" smooth="yes"/>
			<point x="210" y="337"/>
			<point x="244" y="372"/>
			<point x="282" y="372" type="curve" smooth="yes"/>
			<point x="304" y="372"/>
			<point x="330" y="366"/>
			<point x="350" y="348" type="curve"/>
			<point x="350" y="192" type="line"/>
			<point x="330" y="162"/>
			<point x="312" y="154"/>
		</contour>
		<contour>
			<point name="aboveLC" x="290" y="522" type="move"/>
		</contour>
		<contour>
			<point name="belowLC" x="300" y="-198" type="move"/>
		</contour>
	</outline>
</glyph>
<glyph name="gammalatin" format="1">
	<unicode hex="0263"/>
	<advance width="544"/>
	<outline>
		<contour>
			<point x="276" y="-206" type="curve" smooth="yes"/>
			<point x="378" y="-206"/>
			<point x="446" y="-144"/>
			<point x="446" y="-54" type="curve" smooth="yes"/>
			<point x="446" y="2"/>
			<point x="424" y="38"/>
			<point x="370" y="128" type="curve"/>
			<point x="370" y="68" type="line"/>
			<point x="532" y="500" type="line"/>
			<point x="368" y="500" type="line"/>
			<point x="314" y="312" type="line"/>
			<point x="302" y="270"/>
			<point x="290" y="241"/>
			<point x="278" y="195" type="curve"/>
			<point x="274" y="195" type="line"/>
			<point x="262" y="241"/>
			<point x="250" y="270"/>
			<point x="238" y="312" type="curve"/>
			<point x="184" y="500" type="line"/>
			<point x="12" y="500" type="line"/>
			<point x="180" y="68" type="line"/>
			<point x="180" y="128" type="line"/>
			<point x="128" y="40"/>
			<point x="106" y="2"/>
			<point x="106" y="-54" type="curve" smooth="yes"/>
			<point x="106" y="-144"/>
			<point x="174" y="-206"/>
		</contour>
		<contour>
			<point x="276" y="-100" type="curve" smooth="yes"/>
			<point x="258" y="-100"/>
			<point x="244" y="-86"/>
			<point x="244" y="-62" type="curve" smooth="yes"/>
			<point x="244" y="-37"/>
			<point x="252" y="-12"/>
			<point x="272" y="30" type="curve"/>
			<point x="277" y="30" type="line"/>
			<point x="300" y="-12"/>
			<point x="308" y="-37"/>
			<point x="308" y="-62" type="curve" smooth="yes"/>
			<point x="308" y="-86"/>
			<point x="294" y="-100"/>
		</contour>
		<contour>
			<point name="aboveLC" x="274" y="522" type="move"/>
		</contour>
		<contour>
			<point name="belowLC" x="274" y="-22" type="move"/>
		</contour>
	</outline>
</glyph>
<glyph name="ramshorn" format="1">
	<unicode hex="0264"/>
	<advance width="592"/>
	<outline>
		<contour>
			<point x="296" y="-12" type="curve" smooth="yes"/>
			<point x="418" y="-12"/>
			<point x="502" y="58"/>
			<point x="502" y="164" type="curve" smooth="yes"/>
			<point x="502" y="210"/>
			<point x="472" y="282"/>
			<point x="402" y="342" type="curve"/>
			<point x="428" y="363"/>
			<point x="452" y="374"/>
			<point x="482" y="374" type="curve" smooth="yes"/>
			<point x="499" y="374"/>
			<point x="516" y="370"/>
			<point x="528" y="362" type="curve"/>
			<point x="576" y="484" type="line"/>
			<point x="555" y="500"/>
			<point x="514" y="512"/>
			<point x="478" y="512" type="curve" smooth="yes"/>
			<point x="428" y="512"/>
			<point x="368" y="496"/>
			<point x="296" y="436" type="curve"/>
			<point x="224" y="496"/>
			<point x="164" y="512"/>
			<point x="114" y="512" type="curve" smooth="yes"/>
			<point x="78" y="512"/>
			<point x="37" y="500"/>
			<point x="16" y="484" type="curve"/>
			<point x="64" y="362" type="line"/>
			<point x="76" y="370"/>
			<point x="92" y="374"/>
			<point x="110" y="374" type="curve" smooth="yes"/>
			<point x="138" y="374"/>
			<point x="164" y="363"/>
			<point x="190" y="342" type="curve"/>
			<point x="120" y="282"/>
			<point x="90" y="210"/>
			<point x="90" y="164" type="curve" smooth="yes"/>
			<point x="90" y="58"/>
			<point x="174" y="-12"/>
		</contour>
		<contour>
			<point x="296" y="118" type="curve" smooth="yes"/>
			<point x="267" y="118"/>
			<point x="250" y="138"/>
			<point x="250" y="172" type="curve" smooth="yes"/>
			<point x="250" y="200"/>
			<point x="266" y="238"/>
			<point x="296" y="266" type="curve"/>
			<point x="326" y="238"/>
			<point x="342" y="200"/>
			<point x="342" y="172" type="curve" smooth="yes"/>
			<point x="342" y="138"/>
			<point x="325" y="118"/>
		</contour>
	</outline>
</glyph>
<glyph name="lbelt" format="1">
	<unicode hex="026C"/>
	<advance width="406"/>
	<outline>
		<contour>
			<point x="143" y="260" type="curve" smooth="yes"/>
			<point x="404" y="260" type="line"/>
			<point x="404" y="362" type="line"/>
			<point x="127" y="362" type="line" smooth="yes"/>
			<point x="85" y="362"/>
			<point x="66" y="379"/>
			<point x="66" y="400" type="curve" smooth="yes"/>
			<point x="66" y="417"/>
			<point x="78" y="430"/>
			<point x="98" y="430" type="curve" smooth="yes"/>
			<point x="131" y="430"/>
			<point x="150" y="404"/>
			<point x="150" y="362" type="curve"/>
			<point x="209" y="342" type="line"/>
			<point x="209" y="384"/>
			<point x="196" y="508"/>
			<point x="88" y="508" type="curve" smooth="yes"/>
			<point x="18" y="508"/>
			<point x="-32" y="460"/>
			<point x="-32" y="394" type="curve" smooth="yes"/>
			<point x="-32" y="320"/>
			<point x="20" y="260"/>
		</contour>
		<component base="l" xOffset="92"/>
		<contour>
			<point name="aboveUC" x="203" y="720" type="move"/>
		</contour>
		<contour>
			<point name="belowLC" x="203" y="-22" type="move"/>
		</contour>
	</outline>
</glyph>
<glyph name="lezh" format="1">
	<unicode hex="026E"/>
	<advance width="664"/>
	<outline>
		<contour>
			<point x="119" y="366" type="line"/>
			<point x="354" y="366" type="line"/>
			<point x="354" y="500" type="line"/>
			<point x="119" y="500" type="line"/>
		</contour>
		<component base="l.a"/>
		<component base="ezh" xOffset="190"/>
		<contour>
			<point name="aboveUC" x="150" y="720" type="move"/>
		</contour>
		<contour>
			<point name="belowLC" x="410" y="-198" type="move"/>
		</contour>
	</outline>
</glyph>
<glyph name="nhookleft" format="1">
	<unicode hex="0272"/>
	<advance width="582"/>
	<outline>
		<contour>
			<point x="46" y="-188" type="curve" smooth="yes"/>
			<point x="188" y="-188"/>
			<point x="230" y="-91"/>
			<point x="230" y="16" type="curve" smooth="yes"/>
			<point x="230" y="328" type="line"/>
			<point x="256" y="352"/>
			<point x="274" y="366"/>
			<point x="306" y="366" type="curve" smooth="yes"/>
			<point x="340" y="366"/>
			<point x="356" y="350"/>
			<point x="356" y="286" type="curve" smooth="yes"/>
			<point x="356" y="0" type="line"/>
			<point x="528" y="0" type="line"/>
			<point x="528" y="308" type="line" smooth="yes"/>
			<point x="528" y="432"/>
			<point x="482" y="512"/>
			<point x="372" y="512" type="curve" smooth="yes"/>
			<point x="304" y="512"/>
			<point x="254" y="478"/>
			<point x="214" y="440" type="curve"/>
			<point x="210" y="440" type="line"/>
			<point x="198" y="500" type="line"/>
			<point x="58" y="500" type="line"/>
			<point x="58" y="10" type="line" smooth="yes"/>
			<point x="58" y="-37"/>
			<point x="47" y="-54"/>
			<point x="18" y="-54" type="curve" smooth="yes"/>
			<point x="9" y="-54"/>
			<point x="2" y="-52"/>
			<point x="-8" y="-48" type="curve"/>
			<point x="-38" y="-174" type="line"/>
			<point x="-18" y="-182"/>
			<point x="5" y="-188"/>
		</contour>
		<contour>
			<point name="aboveLC" x="314" y="522" type="move"/>
		</contour>
		<contour>
			<point name="belowLC" x="291" y="-198" type="move"/>
		</contour>
	</outline>
</glyph>
<glyph name="omegalatinclosed" format="1">
	<unicode hex="0277"/>
	<advance width="764"/>
	<outline>
		<contour>
			<point x="230" y="-12" type="curve" smooth="yes"/>
			<point x="306" y="-12"/>
			<point x="364" y="34"/>
			<point x="378" y="114" type="curve"/>
			<point x="382" y="114" type="line"/>
			<point x="392" y="34"/>
			<point x="464" y="-12"/>
			<point x="540" y="-12" type="curve" smooth="yes"/>
			<point x="670" y="-12"/>
			<point x="728" y="100"/>
			<point x="728" y="228" type="curve" smooth="yes"/>
			<point x="728" y="378"/>
			<point x="624" y="512"/>
			<point x="382" y="512" type="curve" smooth="yes"/>
			<point x="148" y="512"/>
			<point x="36" y="378"/>
			<point x="36" y="230" type="curve" smooth="yes"/>
			<point x="36" y="74"/>
			<point x="102" y="-12"/>
		</contour>
		<contour>
			<point x="252" y="118" type="curve" smooth="yes"/>
			<point x="214" y="118"/>
			<point x="198" y="150"/>
			<point x="198" y="218" type="curve" smooth="yes"/>
			<point x="198" y="298"/>
			<point x="234" y="382"/>
			<point x="378" y="382" type="curve" smooth="yes"/>
			<point x="510" y="382"/>
			<point x="566" y="321"/>
			<point x="566" y="220" type="curve" smooth="yes"/>
			<point x="566" y="150"/>
			<point x="544" y="118"/>
			<point x="510" y="118" type="curve" smooth="yes"/>
			<point x="480" y="118"/>
			<point x="458" y="142"/>
			<point x="458" y="208" type="curve" smooth="yes"/>
			<point x="458" y="310" type="line"/>
			<point x="302" y="310" type="line"/>
			<point x="302" y="208" type="line" smooth="yes"/>
			<point x="302" y="148"/>
			<point x="286" y="118"/>
		</contour>
		<contour>
			<point name="aboveLC" x="380" y="522" type="move"/>
		</contour>
		<contour>
			<point name="belowLC" x="380" y="-22" type="move"/>
		</contour>
	</outline>
</glyph>
<glyph name="Rsmall" format="1">
	<unicode hex="0280"/>
	<advance width="546"/>
	<outline>
		<contour>
			<point x="58" y="0" type="line"/>
			<point x="230" y="0" type="line"/>
			<point x="230" y="152" type="line"/>
			<point x="272" y="152" type="line"/>
			<point x="368" y="152"/>
			<point x="488" y="198"/>
			<point x="488" y="328" type="curve" smooth="yes"/>
			<point x="488" y="458"/>
			<point x="392" y="500"/>
			<point x="275" y="500" type="curve" smooth="yes"/>
			<point x="58" y="500" type="line"/>
		</contour>
		<contour>
			<point x="230" y="264" type="line"/>
			<point x="230" y="374" type="line"/>
			<point x="256" y="374" type="line" smooth="yes"/>
			<point x="300" y="374"/>
			<point x="319" y="356"/>
			<point x="319" y="322" type="curve" smooth="yes"/>
			<point x="319" y="290"/>
			<point x="300" y="264"/>
			<point x="256" y="264" type="curve" smooth="yes"/>
		</contour>
		<contour>
			<point x="347" y="0" type="line"/>
			<point x="538" y="0" type="line"/>
			<point x="385" y="242" type="line"/>
			<point x="244" y="196" type="line"/>
		</contour>
		<contour>
			<point name="aboveUC" x="272" y="522" type="move"/>
		</contour>
		<contour>
			<point name="belowLC" x="292" y="-22" type="move"/>
		</contour>
	</outline>
</glyph>
<glyph name="Rsmallinverted" format="1">
	<unicode hex="0281"/>
	<advance width="546"/>
	<outline>
		<contour>
			<point x="271" y="0" type="curve" smooth="yes"/>
			<point x="488" y="0" type="line"/>
			<point x="488" y="500" type="line"/>
			<point x="316" y="500" type="line"/>
			<point x="316" y="348" type="line"/>
			<point x="274" y="348" type="line"/>
			<point x="178" y="348"/>
			<point x="58" y="302"/>
			<point x="58" y="172" type="curve" smooth="yes"/>
			<point x="58" y="42"/>
			<point x="154" y="0"/>
		</contour>
		<contour>
			<point x="290" y="126" type="line" smooth="yes"/>
			<point x="246" y="126"/>
			<point x="227" y="144"/>
			<point x="227" y="178" type="curve" smooth="yes"/>
			<point x="227" y="210"/>
			<point x="246" y="236"/>
			<point x="290" y="236" type="curve" smooth="yes"/>
			<point x="316" y="236" type="line"/>
			<point x="316" y="126" type="line"/>
		</contour>
		<contour>
			<point x="161" y="258" type="line"/>
			<point x="302" y="304" type="line"/>
			<point x="199" y="500" type="line"/>
			<point x="8" y="500" type="line"/>
		</contour>
		<contour>
			<point name="aboveUC" x="270" y="522" type="move"/>
		</contour>
		<contour>
			<point name="belowLC" x="290" y="-22" type="move"/>
		</contour>
	</outline>
</glyph>
<glyph name="shook" format="1">
	<unicode hex="0282"/>
	<advance width="452"/>
	<outline>
		<contour>
			<point x="192" y="-188" type="curve" smooth="yes"/>
			<point x="233" y="-188"/>
			<point x="256" y="-181"/>
			<point x="276" y="-174" type="curve"/>
			<point x="246" y="-52" type="line"/>
			<point x="232" y="-56"/>
			<point x="222" y="-58"/>
			<point x="210" y="-58" type="curve" smooth="yes"/>
			<point x="174" y="-58"/>
			<point x="158" y="-34"/>
			<point x="158" y="20" type="curve"/>
			<point x="158" y="62" type="line"/>
			<point x="18" y="58" type="line"/>
			<point x="18" y="26" type="line" smooth="yes"/>
			<point x="18" y="-86"/>
			<point x="58" y="-188"/>
		</contour>
		<component base="s"/>
		<contour>
			<point name="aboveLC" x="242" y="522" type="move"/>
		</contour>
		<contour>
			<point name="belowLC" x="226" y="-22" type="move"/>
		</contour>
	</outline>
</glyph>
<glyph name="dotlessjstrokehook" format="1">
	<unicode hex="0284"/>
	<advance width="380"/>
	<outline>
		<contour>
			<point x="18" y="198" type="line"/>
			<point x="358" y="198" type="line"/>
			<point x="358" y="310" type="line"/>
			<point x="104" y="310" type="line"/>
			<point x="18" y="304" type="line"/>
		</contour>
		<component base="esh" xOffset="44"/>
		<contour>
			<point name="belowLC" x="130" y="-198" type="move"/>
		</contour>
		<contour>
			<point name="aboveUC" x="260" y="720" type="move"/>
		</contour>
	</outline>
</glyph>
<glyph name="tretroflex" format="1">
	<unicode hex="0288"/>
	<advance width="400"/>
	<outline>
		<contour>
			<point x="264" y="-188" type="curve" smooth="yes"/>
			<point x="319" y="-188"/>
			<point x="356" y="-178"/>
			<point x="382" y="-170" type="curve"/>
			<point x="356" y="-46" type="line"/>
			<point x="344" y="-50"/>
			<point x="328" y="-54"/>
			<point x="312" y="-54" type="curve" smooth="yes"/>
			<point x="280" y="-54"/>
			<point x="252" y="-36"/>
			<point x="252" y="19" type="curve" smooth="yes"/>
			<point x="252" y="366" type="line"/>
			<point x="366" y="366" type="line"/>
			<point x="366" y="500" type="line"/>
			<point x="252" y="500" type="line"/>
			<point x="252" y="630" type="line"/>
			<point x="110" y="630" type="line"/>
			<point x="90" y="500" type="line"/>
			<point x="14" y="494" type="line"/>
			<point x="14" y="366" type="line"/>
			<point x="80" y="366" type="line"/>
			<point x="80" y="16" type="line" smooth="yes"/>
			<point x="80" y="-106"/>
			<point x="134" y="-188"/>
		</contour>
		<contour>
			<point name="aboveLC" x="176" y="664" type="move"/>
		</contour>
		<contour>
			<point name="belowLC" x="200" y="-198" type="move"/>
		</contour>
	</outline>
</glyph>
<glyph name="ubar" format="1">
	<unicode hex="0289"/>
	<advance width="674"/>
	<outline>
		<contour>
			<point x="18" y="254" type="line"/>
			<point x="652" y="254" type="line"/>
			<point x="652" y="366" type="line"/>
			<point x="104" y="366" type="line"/>
			<point x="18" y="360" type="line"/>
		</contour>
		<component base="u" xOffset="50"/>
		<contour>
			<point name="aboveLC" x="340" y="522" type="move"/>
		</contour>
		<contour>
			<point name="ogonekLC" x="334" y="0" type="move"/>
		</contour>
		<contour>
			<point name="baseLC" x="334" y="0" type="move"/>
		</contour>
		<contour>
			<point name="belowLC" x="334" y="-22" type="move"/>
		</contour>
	</outline>
</glyph>
<glyph name="zretroflex" format="1">
  <advance width="474"/>
  <unicode hex="0290"/>
  <outline>
    <contour>
      <point x="252" y="522" type="move" name="aboveLC"/>
    </contour>
    <contour>
      <point x="452" y="-188" type="curve" smooth="yes"/>
      <point x="493" y="-188"/>
      <point x="516" y="-182"/>
      <point x="536" y="-174" type="curve"/>
      <point x="506" y="-48" type="line"/>
      <point x="496" y="-52"/>
      <point x="489" y="-54"/>
      <point x="480" y="-54" type="curve" smooth="yes"/>
      <point x="451" y="-54"/>
      <point x="440" y="-37"/>
      <point x="440" y="10" type="curve"/>
      <point x="440" y="134" type="line"/>
      <point x="254" y="134" type="line"/>
      <point x="444" y="408" type="line"/>
      <point x="444" y="500" type="line"/>
      <point x="62" y="500" type="line"/>
      <point x="62" y="366" type="line"/>
      <point x="230" y="366" type="line"/>
      <point x="40" y="92" type="line"/>
      <point x="40" y="0" type="line"/>
      <point x="268" y="0" type="line"/>
      <point x="268" y="-4" type="line" smooth="yes"/>
      <point x="268" y="-90"/>
      <point x="314" y="-188"/>
    </contour>
  </outline>
</glyph>
<glyph name="zcurl" format="1">
	<unicode hex="0291"/>
	<advance width="544"/>
	<outline>
		<contour>
			<point x="324" y="-82" type="line"/>
			<point x="360" y="108"/>
			<point x="394" y="182"/>
			<point x="430" y="182" type="curve" smooth="yes"/>
			<point x="442" y="182"/>
			<point x="450" y="176"/>
			<point x="450" y="160" type="curve" smooth="yes"/>
			<point x="450" y="141"/>
			<point x="434" y="124"/>
			<point x="399" y="124" type="curve" smooth="yes"/>
			<point x="346" y="124"/>
			<point x="296" y="126"/>
			<point x="242" y="134" type="curve"/>
			<point x="432" y="408" type="line"/>
			<point x="432" y="500" type="line"/>
			<point x="62" y="500" type="line"/>
			<point x="62" y="366" type="line"/>
			<point x="230" y="366" type="line"/>
			<point x="40" y="92" type="line"/>
			<point x="40" y="0" type="line"/>
			<point x="144" y="-8"/>
			<point x="249" y="-12"/>
			<point x="352" y="-12" type="curve" smooth="yes"/>
			<point x="493" y="-12"/>
			<point x="552" y="66"/>
			<point x="552" y="160" type="curve" smooth="yes"/>
			<point x="552" y="228"/>
			<point x="509" y="270"/>
			<point x="442" y="270" type="curve" smooth="yes"/>
			<point x="320" y="270"/>
			<point x="272" y="120"/>
			<point x="234" y="-66" type="curve"/>
		</contour>
		<contour>
			<point name="aboveLC" x="252" y="522" type="move"/>
		</contour>
		<contour>
			<point name="belowLC" x="280" y="-98" type="move"/>
		</contour>
	</outline>
</glyph>
<glyph name="glottalstopreversed" format="1">
	<unicode hex="0295"/>
	<advance width="460"/>
	<outline>
		<contour>
			<point x="166" y="0" type="line"/>
			<point x="338" y="0" type="line"/>
			<point x="338" y="324" type="line"/>
			<point x="227" y="394"/>
			<point x="188" y="435"/>
			<point x="188" y="490" type="curve" smooth="yes"/>
			<point x="188" y="543"/>
			<point x="220" y="570"/>
			<point x="268" y="570" type="curve" smooth="yes"/>
			<point x="312" y="570"/>
			<point x="352" y="544"/>
			<point x="384" y="510" type="curve"/>
			<point x="468" y="618" type="line"/>
			<point x="418" y="670"/>
			<point x="347" y="708"/>
			<point x="248" y="708" type="curve" smooth="yes"/>
			<point x="124" y="708"/>
			<point x="16" y="639"/>
			<point x="16" y="498" type="curve" smooth="yes"/>
			<point x="16" y="396"/>
			<point x="80" y="330"/>
			<point x="166" y="266" type="curve"/>
		</contour>
		<contour>
			<point name="aboveUC" x="230" y="720" type="move"/>
		</contour>
		<contour>
			<point name="belowLC" x="250" y="-22" type="move"/>
		</contour>
	</outline>
</glyph>
<glyph name="jcrossedtail" format="1">
	<unicode hex="029D"/>
	<advance width="390"/>
	<outline>
		<component base="jcrossedtail.d"/>
		<component base="dotaccentcmb" xOffset="246"/>
		<contour>
			<point name="aboveLC" x="246" y="734" type="move"/>
		</contour>
	</outline>
</glyph>
<glyph name="kturned" format="1">
	<unicode hex="029E"/>
	<advance width="568"/>
	<outline>
		<contour>
			<point x="342" y="-176" type="line"/>
			<point x="510" y="-176" type="line"/>
			<point x="510" y="500" type="line"/>
			<point x="342" y="500" type="line"/>
			<point x="342" y="380" type="line"/>
			<point x="4" y="0" type="line"/>
			<point x="200" y="0" type="line"/>
			<point x="338" y="174" type="line"/>
			<point x="342" y="174" type="line"/>
		</contour>
		<contour>
			<point x="200" y="212" type="line"/>
			<point x="308" y="308" type="line"/>
			<point x="190" y="500" type="line"/>
			<point x="14" y="500" type="line"/>
		</contour>
		<contour>
			<point name="aboveLC" x="280" y="520" type="move"/>
		</contour>
		<contour>
			<point name="belowLC" x="420" y="-200" type="move"/>
		</contour>
	</outline>
</glyph>
<glyph name="Lsmall" format="1">
	<unicode hex="029F"/>
	<advance width="440"/>
	<outline>
		<contour>
			<point x="58" y="0" type="line"/>
			<point x="414" y="0" type="line"/>
			<point x="414" y="134" type="line"/>
			<point x="230" y="134" type="line"/>
			<point x="230" y="500" type="line"/>
			<point x="58" y="500" type="line"/>
		</contour>
		<contour>
			<point name="aboveUC" x="150" y="522" type="move"/>
		</contour>
		<contour>
			<point name="belowLC" x="240" y="-22" type="move"/>
		</contour>
	</outline>
</glyph>
<glyph name="glottalstopstroke" format="1">
	<unicode hex="02A1"/>
	<advance width="470"/>
	<outline>
		<contour>
			<point x="26" y="108" type="line"/>
			<point x="406" y="108" type="line"/>
			<point x="406" y="220" type="line"/>
			<point x="132" y="220" type="line"/>
			<point x="26" y="214" type="line"/>
		</contour>
		<component base="glottalstop" xOffset="10"/>
		<contour>
			<point name="aboveUC" x="230" y="720" type="move"/>
		</contour>
		<contour>
			<point name="belowLC" x="210" y="-22" type="move"/>
		</contour>
	</outline>
</glyph>
<glyph name="glottalstopstrokereversed" format="1">
	<unicode hex="02A2"/>
	<advance width="460"/>
	<outline>
		<contour>
			<point x="60" y="108" type="line"/>
			<point x="440" y="108" type="line"/>
			<point x="440" y="220" type="line"/>
			<point x="166" y="220" type="line"/>
			<point x="60" y="214" type="line"/>
		</contour>
		<component base="glottalstopreversed"/>
		<contour>
			<point name="aboveUC" x="230" y="720" type="move"/>
		</contour>
		<contour>
			<point name="belowLC" x="250" y="-22" type="move"/>
		</contour>
	</outline>
</glyph>
<glyph name="tesh" format="1">
	<unicode hex="02A7"/>
	<advance width="604"/>
	<outline>
		<contour>
			<point x="264" y="-12" type="curve" smooth="yes"/>
			<point x="304" y="-12"/>
			<point x="332" y="-4"/>
			<point x="352" y="2" type="curve"/>
			<point x="326" y="126" type="line"/>
			<point x="318" y="124"/>
			<point x="310" y="122"/>
			<point x="302" y="122" type="curve" smooth="yes"/>
			<point x="275" y="122"/>
			<point x="252" y="140"/>
			<point x="252" y="195" type="curve" smooth="yes"/>
			<point x="252" y="366" type="line"/>
			<point x="466" y="366" type="line"/>
			<point x="466" y="500" type="line"/>
			<point x="252" y="500" type="line"/>
			<point x="252" y="650" type="line"/>
			<point x="110" y="650" type="line"/>
			<point x="90" y="500" type="line"/>
			<point x="14" y="494" type="line"/>
			<point x="14" y="366" type="line"/>
			<point x="80" y="366" type="line"/>
			<point x="80" y="192" type="line" smooth="yes"/>
			<point x="80" y="70"/>
			<point x="134" y="-12"/>
		</contour>
		<component base="esh" xOffset="314"/>
		<contour>
			<point name="aboveUC" x="350" y="720" type="move"/>
		</contour>
		<contour>
			<point name="belowLC" x="280" y="-198" type="move"/>
		</contour>
	</outline>
</glyph>
<glyph name="circumflex" format="1">
  <advance width="560"/>
  <unicode hex="02C6"/>
  <outline>
    <contour>
      <point x="280" y="522" type="move" name="_aboveLC"/>
    </contour>
    <contour>
      <point x="280" y="740" type="move" name="aboveLC"/>
    </contour>
    <component base="circumflexcmb" xOffset="280"/>
  </outline>
</glyph>
<glyph name="caron" format="1">
	<unicode hex="02C7"/>
	<advance width="560"/>
	<outline>
		<component base="caroncmb" xOffset="280"/>
		<contour>
			<point name="_aboveLC" x="280" y="522" type="move"/>
		</contour>
	</outline>
</glyph>
<glyph name="glottalstopreversedsupmod" format="1">
	<unicode hex="02E4"/>
	<advance width="358"/>
	<outline>
		<contour>
			<point x="108" y="368" type="line"/>
			<point x="227" y="368" type="line"/>
			<point x="227" y="533" type="line"/>
			<point x="286" y="581"/>
			<point x="327" y="624"/>
			<point x="327" y="695" type="curve" smooth="yes"/>
			<point x="327" y="789"/>
			<point x="251" y="835"/>
			<point x="164" y="835" type="curve" smooth="yes"/>
			<point x="100" y="835"/>
			<point x="54" y="810"/>
			<point x="22" y="775" type="curve"/>
			<point x="80" y="701" type="line"/>
			<point x="99" y="724"/>
			<point x="124" y="740"/>
			<point x="150" y="740" type="curve" smooth="yes"/>
			<point x="184" y="740"/>
			<point x="208" y="724"/>
			<point x="208" y="690" type="curve" smooth="yes"/>
			<point x="208" y="653"/>
			<point x="184" y="625"/>
			<point x="108" y="575" type="curve"/>
		</contour>
	</outline>
</glyph>
<glyph name="acutecmb" format="1">
  <advance width="0"/>
  <unicode hex="0301"/>
  <outline>
    <contour>
      <point x="0" y="522" type="move" name="_aboveLC"/>
    </contour>
    <contour>
      <point x="20" y="572" type="line"/>
      <point x="210" y="730" type="line"/>
      <point x="94" y="844" type="line"/>
      <point x="-64" y="656" type="line"/>
    </contour>
  </outline>
</glyph>
<glyph name="circumflexcmb" format="1">
  <advance width="0"/>
  <unicode hex="0302"/>
  <outline>
    <contour>
      <point x="0" y="522" type="move" name="_aboveLC"/>
    </contour>
    <contour>
      <point x="0" y="740" type="move" name="aboveLC"/>
    </contour>
    <contour>
      <point x="-194" y="618" type="line"/>
      <point x="-130" y="558" type="line"/>
      <point x="-2" y="642" type="line"/>
      <point x="2" y="642" type="line"/>
      <point x="130" y="558" type="line"/>
      <point x="194" y="618" type="line"/>
      <point x="88" y="746" type="line"/>
      <point x="-88" y="746" type="line"/>
    </contour>
  </outline>
</glyph>
<glyph name="tildecmb" format="1">
  <advance width="0"/>
  <unicode hex="0303"/>
  <outline>
    <contour>
      <point x="0" y="522" type="move" name="_aboveLC"/>
    </contour>
    <contour>
      <point x="64" y="572" type="curve" smooth="yes"/>
      <point x="144" y="572"/>
      <point x="194" y="617"/>
      <point x="196" y="730" type="curve"/>
      <point x="90" y="736" type="line"/>
      <point x="86" y="700"/>
      <point x="76" y="690"/>
      <point x="60" y="690" type="curve" smooth="yes"/>
      <point x="34" y="690"/>
      <point x="-4" y="746"/>
      <point x="-64" y="746" type="curve" smooth="yes"/>
      <point x="-144" y="746"/>
      <point x="-194" y="701"/>
      <point x="-196" y="588" type="curve"/>
      <point x="-90" y="582" type="line"/>
      <point x="-86" y="618"/>
      <point x="-76" y="628"/>
      <point x="-60" y="628" type="curve" smooth="yes"/>
      <point x="-34" y="628"/>
      <point x="4" y="572"/>
    </contour>
  </outline>
</glyph>
<glyph name="macroncmb" format="1">
	<unicode hex="0304"/>
	<outline>
		<contour>
			<point x="-154" y="588" type="line"/>
			<point x="154" y="588" type="line"/>
			<point x="154" y="696" type="line"/>
			<point x="-154" y="696" type="line"/>
		</contour>
		<contour>
			<point name="_aboveLC" x="0" y="522" type="move"/>
		</contour>
		<contour>
			<point name="aboveLC" x="0" y="702" type="move"/>
		</contour>
	</outline>
</glyph>
<glyph name="overlinecmb" format="1">
	<unicode hex="0305"/>
	<outline>
		<component base="macroncmb"/>
		<contour>
			<point name="_aboveLC" x="0" y="522" type="move"/>
		</contour>
	</outline>
</glyph>
<glyph name="brevecmb" format="1">
  <advance width="0"/>
  <unicode hex="0306"/>
  <outline>
    <contour>
      <point x="0" y="522" type="move" name="_aboveLC"/>
    </contour>
    <contour>
      <point x="0" y="572" type="curve" smooth="yes"/>
      <point x="118" y="572"/>
      <point x="172" y="638"/>
      <point x="174" y="732" type="curve"/>
      <point x="78" y="748" type="line"/>
      <point x="72" y="708"/>
      <point x="48" y="678"/>
      <point x="0" y="678" type="curve" smooth="yes"/>
      <point x="-48" y="678"/>
      <point x="-72" y="708"/>
      <point x="-78" y="748" type="curve"/>
      <point x="-174" y="732" type="line"/>
      <point x="-172" y="638"/>
      <point x="-117" y="572"/>
    </contour>
  </outline>
</glyph>
<glyph name="dieresiscmb" format="1">
  <advance width="0"/>
  <unicode hex="0308"/>
  <outline>
    <contour>
      <point x="0" y="522" type="move" name="_aboveLC"/>
    </contour>
    <contour>
      <point x="0" y="730" type="move" name="aboveLC"/>
    </contour>
    <contour>
      <point x="-114" y="562" type="curve" smooth="yes"/>
      <point x="-67" y="562"/>
      <point x="-34" y="597"/>
      <point x="-34" y="642" type="curve" smooth="yes"/>
      <point x="-34" y="687"/>
      <point x="-67" y="722"/>
      <point x="-114" y="722" type="curve" smooth="yes"/>
      <point x="-161" y="722"/>
      <point x="-194" y="687"/>
      <point x="-194" y="642" type="curve" smooth="yes"/>
      <point x="-194" y="597"/>
      <point x="-161" y="562"/>
    </contour>
    <contour>
      <point x="114" y="562" type="curve" smooth="yes"/>
      <point x="161" y="562"/>
      <point x="194" y="597"/>
      <point x="194" y="642" type="curve" smooth="yes"/>
      <point x="194" y="687"/>
      <point x="161" y="722"/>
      <point x="114" y="722" type="curve" smooth="yes"/>
      <point x="67" y="722"/>
      <point x="34" y="687"/>
      <point x="34" y="642" type="curve" smooth="yes"/>
      <point x="34" y="597"/>
      <point x="67" y="562"/>
    </contour>
  </outline>
</glyph>
<glyph name="ringcmb" format="1">
  <advance width="0"/>
  <unicode hex="030A"/>
  <outline>
    <contour>
      <point x="0" y="522" type="move" name="_aboveLC"/>
    </contour>
    <contour>
      <point x="0" y="568" type="curve" smooth="yes"/>
      <point x="94" y="568"/>
      <point x="140" y="616"/>
      <point x="140" y="674" type="curve" smooth="yes"/>
      <point x="140" y="732"/>
      <point x="94" y="780"/>
      <point x="0" y="780" type="curve" smooth="yes"/>
      <point x="-94" y="780"/>
      <point x="-140" y="732"/>
      <point x="-140" y="674" type="curve" smooth="yes"/>
      <point x="-140" y="616"/>
      <point x="-94" y="568"/>
    </contour>
    <contour>
      <point x="0" y="630" type="curve" smooth="yes"/>
      <point x="-21" y="630"/>
      <point x="-38" y="648"/>
      <point x="-38" y="674" type="curve" smooth="yes"/>
      <point x="-38" y="700"/>
      <point x="-21" y="718"/>
      <point x="0" y="718" type="curve" smooth="yes"/>
      <point x="21" y="718"/>
      <point x="38" y="700"/>
      <point x="38" y="674" type="curve" smooth="yes"/>
      <point x="38" y="648"/>
      <point x="21" y="630"/>
    </contour>
  </outline>
</glyph>
<glyph name="hungarumlautcmb" format="1">
  <advance width="0"/>
  <unicode hex="030B"/>
  <outline>
    <contour>
      <point x="0" y="522" type="move" name="_aboveLC"/>
    </contour>
    <contour>
      <point x="-52" y="564" type="line"/>
      <point x="60" y="738" type="line"/>
      <point x="-54" y="788" type="line"/>
      <point x="-142" y="604" type="line"/>
    </contour>
    <contour>
      <point x="138" y="564" type="line"/>
      <point x="250" y="738" type="line"/>
      <point x="136" y="788" type="line"/>
      <point x="48" y="604" type="line"/>
    </contour>
  </outline>
</glyph>
<glyph name="caroncmb" format="1">
  <advance width="0"/>
  <unicode hex="030C"/>
  <outline>
    <contour>
      <point x="0" y="522" type="move" name="_aboveLC"/>
    </contour>
    <contour>
      <point x="-88" y="578" type="line"/>
      <point x="88" y="578" type="line"/>
      <point x="194" y="706" type="line"/>
      <point x="130" y="766" type="line"/>
      <point x="2" y="682" type="line"/>
      <point x="-2" y="682" type="line"/>
      <point x="-130" y="766" type="line"/>
      <point x="-194" y="706" type="line"/>
    </contour>
  </outline>
</glyph>
<glyph name="breveinvertedcmb" format="1">
  <advance width="0"/>
  <unicode hex="0311"/>
  <outline>
    <contour>
      <point x="0" y="522" type="move" name="_aboveLC"/>
    </contour>
    <contour>
      <point x="-78" y="564" type="line"/>
      <point x="-72" y="604"/>
      <point x="-48" y="634"/>
      <point x="0" y="634" type="curve" smooth="yes"/>
      <point x="48" y="634"/>
      <point x="72" y="604"/>
      <point x="78" y="564" type="curve"/>
      <point x="174" y="580" type="line"/>
      <point x="172" y="674"/>
      <point x="117" y="740"/>
      <point x="0" y="740" type="curve" smooth="yes"/>
      <point x="-118" y="740"/>
      <point x="-172" y="674"/>
      <point x="-174" y="580" type="curve"/>
    </contour>
  </outline>
</glyph>
<glyph name="ringhalfleftbelowcmb" format="1">
  <advance width="0"/>
  <unicode hex="031C"/>
  <outline>
    <contour>
      <point x="0" y="-22" type="move" name="_belowLC"/>
    </contour>
    <contour>
      <point x="66" y="-262" type="curve"/>
      <point x="66" y="-200" type="line"/>
      <point x="18" y="-202"/>
      <point x="2" y="-182"/>
      <point x="2" y="-156" type="curve" smooth="yes"/>
      <point x="2" y="-130"/>
      <point x="18" y="-110"/>
      <point x="66" y="-112" type="curve"/>
      <point x="66" y="-50" type="line"/>
      <point x="-38" y="-46"/>
      <point x="-80" y="-92"/>
      <point x="-80" y="-156" type="curve" smooth="yes"/>
      <point x="-80" y="-220"/>
      <point x="-38" y="-266"/>
    </contour>
  </outline>
</glyph>
<glyph name="downtackbelowcmb" format="1">
	<unicode hex="031E"/>
	<outline>
		<contour>
			<point x="112" y="-156" type="line"/>
			<point x="112" y="-76" type="line"/>
			<point x="-112" y="-76" type="line"/>
			<point x="-112" y="-156" type="line"/>
			<point x="-44" y="-156" type="line"/>
			<point x="-44" y="-260" type="line"/>
			<point x="44" y="-260" type="line"/>
			<point x="44" y="-156" type="line"/>
		</contour>
		<contour>
			<point name="_belowLC" x="0" y="-22" type="move"/>
		</contour>
	</outline>
</glyph>
<glyph name="plusbelowcmb" format="1">
	<unicode hex="031F"/>
	<outline>
		<contour>
			<point x="-44" y="-260" type="line"/>
			<point x="44" y="-260" type="line"/>
			<point x="44" y="-196" type="line"/>
			<point x="112" y="-196" type="line"/>
			<point x="112" y="-116" type="line"/>
			<point x="44" y="-116" type="line"/>
			<point x="44" y="-52" type="line"/>
			<point x="-44" y="-52" type="line"/>
			<point x="-44" y="-116" type="line"/>
			<point x="-112" y="-116" type="line"/>
			<point x="-112" y="-196" type="line"/>
			<point x="-44" y="-196" type="line"/>
		</contour>
		<contour>
			<point name="_belowLC" x="0" y="-22" type="move"/>
		</contour>
	</outline>
</glyph>
<glyph name="dotbelowcmb" format="1">
  <advance width="0"/>
  <unicode hex="0323"/>
  <outline>
    <contour>
      <point x="0" y="-22" type="move" name="_belowLC"/>
    </contour>
    <component base="dotaccentcmb" yOffset="-796"/>
  </outline>
</glyph>
<glyph name="dieresisbelowcmb" format="1">
  <advance width="0"/>
  <unicode hex="0324"/>
  <outline>
    <contour>
      <point x="0" y="-22" type="move" name="_belowLC"/>
    </contour>
    <component base="dieresiscmb" yOffset="-786"/>
  </outline>
</glyph>
<glyph name="ringbelowcmb" format="1">
  <advance width="0"/>
  <unicode hex="0325"/>
  <outline>
    <contour>
      <point x="0" y="-22" type="move" name="_belowLC"/>
    </contour>
    <component base="ringcmb" yOffset="-812"/>
  </outline>
</glyph>
<glyph name="commabelowcmb" format="1">
  <advance width="0"/>
  <unicode hex="0326"/>
  <outline>
    <contour>
      <point x="0" y="-22" type="move" name="_belowLC"/>
    </contour>
    <contour>
      <point x="-108" y="-244" type="line"/>
      <point x="24" y="-240"/>
      <point x="102" y="-208"/>
      <point x="102" y="-136" type="curve" smooth="yes"/>
      <point x="102" y="-86"/>
      <point x="66" y="-58"/>
      <point x="-48" y="-50" type="curve"/>
      <point x="-80" y="-110" type="line"/>
      <point x="-36" y="-114"/>
      <point x="-20" y="-126"/>
      <point x="-20" y="-142" type="curve" smooth="yes"/>
      <point x="-20" y="-164"/>
      <point x="-44" y="-174"/>
      <point x="-120" y="-178" type="curve"/>
    </contour>
  </outline>
</glyph>
<glyph name="cedillacmb" format="1">
  <advance width="0"/>
  <unicode hex="0327"/>
  <outline>
    <contour>
      <point x="0" y="0" type="move" name="_baseLC"/>
    </contour>
    <contour>
      <point x="-108" y="-244" type="line"/>
      <point x="24" y="-240"/>
      <point x="102" y="-208"/>
      <point x="102" y="-136" type="curve" smooth="yes"/>
      <point x="102" y="-94"/>
      <point x="76" y="-72"/>
      <point x="24" y="-60" type="curve"/>
      <point x="52" y="4" type="line"/>
      <point x="-46" y="4" type="line"/>
      <point x="-96" y="-96" type="line"/>
      <point x="-34" y="-104"/>
      <point x="-20" y="-118"/>
      <point x="-20" y="-136" type="curve" smooth="yes"/>
      <point x="-20" y="-164"/>
      <point x="-44" y="-174"/>
      <point x="-120" y="-178" type="curve"/>
    </contour>
  </outline>
</glyph>
<glyph name="ogonekcmb" format="1">
	<unicode hex="0328"/>
	<outline>
		<contour>
			<point x="8" y="-212" type="curve" smooth="yes"/>
			<point x="42" y="-212"/>
			<point x="90" y="-198"/>
			<point x="118" y="-176" type="curve"/>
			<point x="84" y="-100" type="line"/>
			<point x="76" y="-106"/>
			<point x="62" y="-112"/>
			<point x="50" y="-112" type="curve" smooth="yes"/>
			<point x="30" y="-112"/>
			<point x="10" y="-102"/>
			<point x="10" y="-78" type="curve" smooth="yes"/>
			<point x="10" y="-50"/>
			<point x="24" y="-26"/>
			<point x="58" y="2" type="curve"/>
			<point x="-34" y="2" type="line"/>
			<point x="-68" y="-22"/>
			<point x="-104" y="-68"/>
			<point x="-104" y="-118" type="curve" smooth="yes"/>
			<point x="-104" y="-180"/>
			<point x="-54" y="-212"/>
		</contour>
		<contour>
			<point name="_ogonekLC" x="0" y="0" type="move"/>
		</contour>
	</outline>
</glyph>
<glyph name="verticallinebelowcmb" format="1">
  <advance width="0"/>
  <unicode hex="0329"/>
  <outline>
    <contour>
      <point x="0" y="-22" type="move" name="_belowLC"/>
    </contour>
    <contour>
      <point x="-68" y="-270" type="line"/>
      <point x="68" y="-270" type="line"/>
      <point x="62" y="-62" type="line"/>
      <point x="-62" y="-62" type="line"/>
    </contour>
  </outline>
</glyph>
<glyph name="brevebelowcmb" format="1">
  <advance width="0"/>
  <unicode hex="032E"/>
  <outline>
    <contour>
      <point x="0" y="-22" type="move" name="_belowLC"/>
    </contour>
    <component base="brevecmb" yOffset="-806"/>
  </outline>
</glyph>
<glyph name="breveinvertedbelowcmb" format="1">
  <advance width="0"/>
  <unicode hex="032F"/>
  <outline>
    <contour>
      <point x="0" y="-22" type="move" name="_belowLC"/>
    </contour>
    <component base="breveinvertedcmb" yOffset="-814"/>
  </outline>
</glyph>
<glyph name="tildebelowcmb" format="1">
  <advance width="0"/>
  <unicode hex="0330"/>
  <outline>
    <contour>
      <point x="0" y="-22" type="move" name="_belowLC"/>
    </contour>
    <component base="tildecmb" yOffset="-800"/>
  </outline>
</glyph>
<glyph name="macronbelowcmb" format="1">
  <advance width="0"/>
  <unicode hex="0331"/>
  <outline>
    <contour>
      <point x="0" y="-22" type="move" name="_belowLC"/>
    </contour>
    <component base="macroncmb" yOffset="-784"/>
  </outline>
</glyph>
<glyph name="tildeoverlaycmb" format="1">
	<unicode hex="0334"/>
	<outline>
		<contour>
			<point x="124" y="164" type="curve" smooth="yes"/>
			<point x="192" y="164"/>
			<point x="236" y="204"/>
			<point x="240" y="302" type="curve"/>
			<point x="134" y="324" type="line"/>
			<point x="130" y="292"/>
			<point x="120" y="282"/>
			<point x="104" y="282" type="curve" smooth="yes"/>
			<point x="46" y="282"/>
			<point x="-17" y="338"/>
			<point x="-124" y="338" type="curve" smooth="yes"/>
			<point x="-192" y="338"/>
			<point x="-236" y="298"/>
			<point x="-240" y="200" type="curve"/>
			<point x="-134" y="178" type="line"/>
			<point x="-130" y="210"/>
			<point x="-120" y="220"/>
			<point x="-104" y="220" type="curve" smooth="yes"/>
			<point x="-46" y="220"/>
			<point x="19" y="164"/>
		</contour>
		<contour>
			<point name="_center" x="0" y="250" type="move"/>
		</contour>
	</outline>
</glyph>
<glyph name="seagullbelowcmb" format="1">
  <advance width="0"/>
  <unicode hex="033C"/>
  <outline>
    <contour>
      <point x="0" y="-22" type="move" name="_belowLC"/>
    </contour>
    <contour>
      <point x="-195" y="-238" type="curve"/>
      <point x="-109" y="-250" type="line"/>
      <point x="-109" y="-193"/>
      <point x="-98" y="-179"/>
      <point x="-75" y="-179" type="curve" smooth="yes"/>
      <point x="-47" y="-179"/>
      <point x="-40" y="-200"/>
      <point x="-40" y="-225" type="curve" smooth="yes"/>
      <point x="-40" y="-248" type="line"/>
      <point x="40" y="-248" type="line"/>
      <point x="40" y="-225" type="line" smooth="yes"/>
      <point x="40" y="-200"/>
      <point x="47" y="-179"/>
      <point x="74" y="-179" type="curve" smooth="yes"/>
      <point x="97" y="-179"/>
      <point x="109" y="-193"/>
      <point x="109" y="-250" type="curve"/>
      <point x="195" y="-238" type="line"/>
      <point x="195" y="-129"/>
      <point x="161" y="-74"/>
      <point x="80" y="-74" type="curve" smooth="yes"/>
      <point x="44" y="-74"/>
      <point x="15" y="-92"/>
      <point x="2" y="-126" type="curve"/>
      <point x="-2" y="-126" type="line"/>
      <point x="-15" y="-92"/>
      <point x="-43" y="-74"/>
      <point x="-80" y="-74" type="curve" smooth="yes"/>
      <point x="-160" y="-74"/>
      <point x="-195" y="-129"/>
    </contour>
  </outline>
</glyph>
<glyph name="perispomenicmb" format="1">
	<unicode hex="0342"/>
	<outline>
		<component base="tildecmb"/>
		<contour>
			<point name="_aboveLC" x="0" y="522" type="move"/>
		</contour>
	</outline>
</glyph>
<glyph name="iotasubscript" format="1">
  <advance width="560"/>
  <unicode hex="037A"/>
  <outline>
    <contour>
      <point x="280" y="-22" type="move" name="_belowLC"/>
    </contour>
    <component base="iotasubscriptcmb" xOffset="280"/>
  </outline>
</glyph>
<glyph name="dieresistonos" format="1">
  <advance width="560"/>
  <unicode hex="0385"/>
  <outline>
    <contour>
      <point x="280" y="522" type="move" name="_aboveLC"/>
    </contour>
    <component base="dieresistonoscmb" xOffset="280"/>
  </outline>
</glyph>
<glyph name="epsilon" format="1">
  <advance width="480"/>
  <unicode hex="03B5"/>
  <outline>
    <contour>
      <point x="266" y="522" type="move" name="aboveLC"/>
    </contour>
    <contour>
      <point x="256" y="-22" type="move" name="belowLC"/>
    </contour>
    <contour>
      <point x="274" y="-12" type="curve" smooth="yes"/>
      <point x="335" y="-12"/>
      <point x="394" y="-2"/>
      <point x="460" y="44" type="curve"/>
      <point x="394" y="152" type="line"/>
      <point x="358" y="126"/>
      <point x="316" y="118"/>
      <point x="291" y="118" type="curve" smooth="yes"/>
      <point x="230" y="118"/>
      <point x="200" y="134"/>
      <point x="200" y="162" type="curve" smooth="yes"/>
      <point x="200" y="190"/>
      <point x="217" y="198"/>
      <point x="258" y="198" type="curve" smooth="yes"/>
      <point x="286" y="198"/>
      <point x="318" y="196"/>
      <point x="347" y="194" type="curve"/>
      <point x="347" y="314" type="line"/>
      <point x="324" y="312"/>
      <point x="296" y="310"/>
      <point x="274" y="310" type="curve" smooth="yes"/>
      <point x="240" y="310"/>
      <point x="220" y="318"/>
      <point x="220" y="342" type="curve" smooth="yes"/>
      <point x="220" y="364"/>
      <point x="244" y="382"/>
      <point x="286" y="382" type="curve" smooth="yes"/>
      <point x="321" y="382"/>
      <point x="359" y="372"/>
      <point x="390" y="352" type="curve"/>
      <point x="452" y="462" type="line"/>
      <point x="401" y="494"/>
      <point x="335" y="512"/>
      <point x="276" y="512" type="curve" smooth="yes"/>
      <point x="159" y="512"/>
      <point x="52" y="469"/>
      <point x="52" y="366" type="curve" smooth="yes"/>
      <point x="52" y="328"/>
      <point x="76" y="280"/>
      <point x="127" y="264" type="curve"/>
      <point x="127" y="260" type="line"/>
      <point x="66" y="244"/>
      <point x="32" y="210"/>
      <point x="32" y="144" type="curve" smooth="yes"/>
      <point x="32" y="38"/>
      <point x="144" y="-12"/>
    </contour>
  </outline>
</glyph>
<glyph name="omega" format="1">
	<unicode hex="03C9"/>
	<advance width="764"/>
	<outline>
		<contour>
			<point x="230" y="-12" type="curve" smooth="yes"/>
			<point x="303" y="-12"/>
			<point x="362" y="26"/>
			<point x="378" y="114" type="curve"/>
			<point x="382" y="114" type="line"/>
			<point x="398" y="26"/>
			<point x="467" y="-12"/>
			<point x="540" y="-12" type="curve" smooth="yes"/>
			<point x="674" y="-12"/>
			<point x="728" y="92"/>
			<point x="728" y="266" type="curve" smooth="yes"/>
			<point x="728" y="364"/>
			<point x="698" y="442"/>
			<point x="656" y="512" type="curve"/>
			<point x="498" y="456" type="line"/>
			<point x="544" y="378"/>
			<point x="556" y="327"/>
			<point x="556" y="254" type="curve" smooth="yes"/>
			<point x="556" y="173"/>
			<point x="536" y="126"/>
			<point x="506" y="126" type="curve" smooth="yes"/>
			<point x="468" y="126"/>
			<point x="456" y="156"/>
			<point x="456" y="238" type="curve" smooth="yes"/>
			<point x="456" y="286"/>
			<point x="462" y="310"/>
			<point x="470" y="370" type="curve"/>
			<point x="290" y="370" type="line"/>
			<point x="298" y="310"/>
			<point x="304" y="286"/>
			<point x="304" y="238" type="curve" smooth="yes"/>
			<point x="304" y="167"/>
			<point x="288" y="126"/>
			<point x="248" y="126" type="curve" smooth="yes"/>
			<point x="210" y="126"/>
			<point x="198" y="170"/>
			<point x="198" y="228" type="curve" smooth="yes"/>
			<point x="198" y="302"/>
			<point x="224" y="372"/>
			<point x="270" y="452" type="curve"/>
			<point x="108" y="512" type="line"/>
			<point x="66" y="442"/>
			<point x="36" y="336"/>
			<point x="36" y="262" type="curve" smooth="yes"/>
			<point x="36" y="86"/>
			<point x="100" y="-12"/>
		</contour>
		<contour>
			<point name="aboveLC" x="382" y="522" type="move"/>
		</contour>
		<contour>
			<point name="belowLC" x="382" y="-22" type="move"/>
		</contour>
	</outline>
</glyph>
<glyph name="beta.a" format="1">
	<unicode hex="03D0"/>
	<advance width="604"/>
	<outline>
		<contour>
			<point x="304" y="-12" type="curve" smooth="yes"/>
			<point x="449" y="-12"/>
			<point x="572" y="54"/>
			<point x="572" y="208" type="curve" smooth="yes"/>
			<point x="572" y="293"/>
			<point x="508" y="362"/>
			<point x="424" y="376" type="curve"/>
			<point x="424" y="380" type="line"/>
			<point x="492" y="408"/>
			<point x="522" y="458"/>
			<point x="522" y="522" type="curve" smooth="yes"/>
			<point x="522" y="640"/>
			<point x="428" y="706"/>
			<point x="312" y="706" type="curve" smooth="yes"/>
			<point x="140" y="706"/>
			<point x="58" y="586"/>
			<point x="58" y="426" type="curve" smooth="yes"/>
			<point x="58" y="260" type="line" smooth="yes"/>
			<point x="58" y="65"/>
			<point x="179" y="-12"/>
		</contour>
		<contour>
			<point x="318" y="136" type="curve" smooth="yes"/>
			<point x="267" y="136"/>
			<point x="218" y="175"/>
			<point x="218" y="274" type="curve" smooth="yes"/>
			<point x="218" y="318"/>
			<point x="220" y="380"/>
			<point x="224" y="438" type="curve" smooth="yes"/>
			<point x="230" y="524"/>
			<point x="250" y="572"/>
			<point x="300" y="572" type="curve" smooth="yes"/>
			<point x="332" y="572"/>
			<point x="358" y="552"/>
			<point x="358" y="504" type="curve" smooth="yes"/>
			<point x="358" y="450"/>
			<point x="332" y="408"/>
			<point x="150" y="376" type="curve"/>
			<point x="170" y="254" type="line"/>
			<point x="255" y="282"/>
			<point x="284" y="296"/>
			<point x="316" y="296" type="curve" smooth="yes"/>
			<point x="378" y="296"/>
			<point x="404" y="258"/>
			<point x="404" y="214" type="curve" smooth="yes"/>
			<point x="404" y="160"/>
			<point x="364" y="136"/>
		</contour>
	</outline>
</glyph>
<glyph name="beta.alt" format="1">
  <advance width="604"/>
  <unicode hex="03D0"/>
  <outline>
    <contour>
      <point x="324" y="-12" type="curve" smooth="yes"/>
      <point x="458" y="-12"/>
      <point x="572" y="52"/>
      <point x="572" y="202" type="curve" smooth="yes"/>
      <point x="572" y="290"/>
      <point x="508" y="362"/>
      <point x="424" y="376" type="curve"/>
      <point x="424" y="380" type="line"/>
      <point x="492" y="408"/>
      <point x="522" y="458"/>
      <point x="522" y="523" type="curve" smooth="yes"/>
      <point x="522" y="651"/>
      <point x="408" y="706"/>
      <point x="292" y="706" type="curve" smooth="yes"/>
      <point x="131" y="706"/>
      <point x="58" y="598"/>
      <point x="58" y="456" type="curve" smooth="yes"/>
      <point x="58" y="250" type="line" smooth="yes"/>
      <point x="58" y="62"/>
      <point x="189" y="-12"/>
    </contour>
    <contour>
      <point x="318" y="136" type="curve" smooth="yes"/>
      <point x="267" y="136"/>
      <point x="218" y="172"/>
      <point x="218" y="263" type="curve" smooth="yes"/>
      <point x="218" y="312"/>
      <point x="220" y="384"/>
      <point x="224" y="448" type="curve" smooth="yes"/>
      <point x="229" y="522"/>
      <point x="250" y="572"/>
      <point x="300" y="572" type="curve" smooth="yes"/>
      <point x="332" y="572"/>
      <point x="358" y="552"/>
      <point x="358" y="504" type="curve" smooth="yes"/>
      <point x="358" y="450"/>
      <point x="332" y="408"/>
      <point x="150" y="376" type="curve"/>
      <point x="170" y="254" type="line"/>
      <point x="255" y="282"/>
      <point x="284" y="296"/>
      <point x="316" y="296" type="curve" smooth="yes"/>
      <point x="378" y="296"/>
      <point x="404" y="258"/>
      <point x="404" y="214" type="curve" smooth="yes"/>
      <point x="404" y="160"/>
      <point x="364" y="136"/>
    </contour>
  </outline>
</glyph>
<glyph name="theta.a" format="1">
	<unicode hex="03D1"/>
	<advance width="560"/>
	<outline>
		<contour>
			<point x="266" y="-12" type="curve" smooth="yes"/>
			<point x="440" y="-12"/>
			<point x="516" y="116"/>
			<point x="516" y="352" type="curve" smooth="yes"/>
			<point x="516" y="576"/>
			<point x="426" y="708"/>
			<point x="264" y="708" type="curve" smooth="yes"/>
			<point x="136" y="708"/>
			<point x="44" y="596"/>
			<point x="44" y="480" type="curve" smooth="yes"/>
			<point x="44" y="357"/>
			<point x="95" y="290"/>
			<point x="352" y="290" type="curve"/>
			<point x="352" y="400" type="line"/>
			<point x="222" y="400"/>
			<point x="200" y="426"/>
			<point x="200" y="486" type="curve" smooth="yes"/>
			<point x="200" y="524"/>
			<point x="226" y="570"/>
			<point x="270" y="570" type="curve" smooth="yes"/>
			<point x="314" y="570"/>
			<point x="350" y="528"/>
			<point x="350" y="352" type="curve" smooth="yes"/>
			<point x="350" y="158"/>
			<point x="324" y="126"/>
			<point x="278" y="126" type="curve" smooth="yes"/>
			<point x="248" y="126"/>
			<point x="228" y="142"/>
			<point x="216" y="196" type="curve" smooth="yes"/>
			<point x="210" y="222"/>
			<point x="200" y="258"/>
			<point x="188" y="270" type="curve"/>
			<point x="31" y="236" type="line"/>
			<point x="47" y="209"/>
			<point x="56" y="182"/>
			<point x="66" y="138" type="curve" smooth="yes"/>
			<point x="88" y="46"/>
			<point x="150" y="-12"/>
		</contour>
	</outline>
</glyph>
<glyph name="kai" format="1">
	<unicode hex="03D7"/>
	<advance width="566"/>
	<outline>
		<contour>
			<point x="58" y="0" type="line"/>
			<point x="220" y="0" type="line"/>
			<point x="220" y="31" type="line" smooth="yes"/>
			<point x="220" y="110"/>
			<point x="235" y="157"/>
			<point x="274" y="194" type="curve" smooth="yes"/>
			<point x="391" y="306"/>
			<point x="440" y="338"/>
			<point x="518" y="352" type="curve"/>
			<point x="505" y="512" type="line"/>
			<point x="384" y="500"/>
			<point x="302" y="412"/>
			<point x="230" y="304" type="curve"/>
			<point x="226" y="304" type="line"/>
			<point x="226" y="374" type="line" smooth="yes"/>
			<point x="226" y="422"/>
			<point x="224" y="466"/>
			<point x="216" y="500" type="curve"/>
			<point x="46" y="500" type="line"/>
			<point x="56" y="444"/>
			<point x="58" y="380"/>
			<point x="58" y="340" type="curve" smooth="yes"/>
		</contour>
		<contour>
			<point x="226" y="-188" type="curve" smooth="yes"/>
			<point x="414" y="-188"/>
			<point x="548" y="-104"/>
			<point x="548" y="84" type="curve" smooth="yes"/>
			<point x="548" y="214"/>
			<point x="458" y="290"/>
			<point x="306" y="290" type="curve"/>
			<point x="264" y="190" type="line"/>
			<point x="332" y="190"/>
			<point x="378" y="150"/>
			<point x="378" y="82" type="curve" smooth="yes"/>
			<point x="378" y="-12"/>
			<point x="308" y="-64"/>
			<point x="212" y="-64" type="curve" smooth="yes"/>
			<point x="168" y="-64"/>
			<point x="112" y="-50"/>
			<point x="74" y="-32" type="curve"/>
			<point x="28" y="-140" type="line"/>
			<point x="84" y="-174"/>
			<point x="154" y="-188"/>
		</contour>
	</outline>
</glyph>
<glyph name="Iukran" format="1">
	<unicode hex="0406"/>
	<advance width="316"/>
	<outline>
		<component base="I"/>
		<contour>
			<point name="aboveUC" x="158" y="564" type="move"/>
		</contour>
	</outline>
</glyph>
<glyph name="Acyr" format="1">
  <advance width="584"/>
  <unicode hex="0410"/>
  <outline>
    <contour>
      <point x="288" y="672" type="move" name="aboveUC"/>
    </contour>
    <component base="A"/>
  </outline>
</glyph>
<glyph name="Ghe" format="1">
	<unicode hex="0413"/>
	<advance width="530"/>
	<outline>
		<component base="Gamma"/>
		<contour>
			<point name="aboveUC" x="298" y="672" type="move"/>
		</contour>
	</outline>
</glyph>
<glyph name="Zhe" format="1">
	<unicode hex="0416"/>
	<advance width="892"/>
	<outline>
		<contour>
			<point x="0" y="0" type="line"/>
			<point x="184" y="0" type="line"/>
			<point x="308" y="264" type="line"/>
			<point x="364" y="264" type="line"/>
			<point x="364" y="0" type="line"/>
			<point x="528" y="0" type="line"/>
			<point x="528" y="264" type="line"/>
			<point x="584" y="264" type="line"/>
			<point x="708" y="0" type="line"/>
			<point x="892" y="0" type="line"/>
			<point x="708" y="340" type="line"/>
			<point x="758" y="452" type="line" smooth="yes"/>
			<point x="776" y="492"/>
			<point x="796" y="502"/>
			<point x="826" y="502" type="curve" smooth="yes"/>
			<point x="832" y="502"/>
			<point x="844" y="502"/>
			<point x="856" y="498" type="curve"/>
			<point x="884" y="652" type="line"/>
			<point x="868" y="660"/>
			<point x="844" y="662"/>
			<point x="824" y="662" type="curve" smooth="yes"/>
			<point x="744" y="662"/>
			<point x="684" y="634"/>
			<point x="642" y="546" type="curve" smooth="yes"/>
			<point x="573" y="402" type="line"/>
			<point x="528" y="402" type="line"/>
			<point x="528" y="650" type="line"/>
			<point x="364" y="650" type="line"/>
			<point x="364" y="402" type="line"/>
			<point x="319" y="402" type="line"/>
			<point x="250" y="546" type="line" smooth="yes"/>
			<point x="208" y="634"/>
			<point x="148" y="662"/>
			<point x="68" y="662" type="curve" smooth="yes"/>
			<point x="48" y="662"/>
			<point x="24" y="660"/>
			<point x="8" y="652" type="curve"/>
			<point x="36" y="498" type="line"/>
			<point x="48" y="502"/>
			<point x="60" y="502"/>
			<point x="66" y="502" type="curve" smooth="yes"/>
			<point x="96" y="502"/>
			<point x="116" y="492"/>
			<point x="134" y="452" type="curve" smooth="yes"/>
			<point x="184" y="340" type="line"/>
		</contour>
		<contour>
			<point name="aboveUC" x="446" y="672" type="move"/>
		</contour>
	</outline>
</glyph>
<glyph name="Ze" format="1">
  <advance width="568"/>
  <unicode hex="0417"/>
  <outline>
    <contour>
      <point x="274" y="-12" type="curve" smooth="yes"/>
      <point x="424" y="-12"/>
      <point x="538" y="57"/>
      <point x="538" y="194" type="curve" smooth="yes"/>
      <point x="538" y="268"/>
      <point x="492" y="324"/>
      <point x="431" y="342" type="curve"/>
      <point x="431" y="346" type="line"/>
      <point x="482" y="372"/>
      <point x="508" y="424"/>
      <point x="508" y="484" type="curve" smooth="yes"/>
      <point x="508" y="594"/>
      <point x="428" y="662"/>
      <point x="268" y="662" type="curve" smooth="yes"/>
      <point x="188" y="662"/>
      <point x="112" y="636"/>
      <point x="50" y="582" type="curve"/>
      <point x="136" y="468" type="line"/>
      <point x="180" y="498"/>
      <point x="214" y="514"/>
      <point x="262" y="514" type="curve" smooth="yes"/>
      <point x="308" y="514"/>
      <point x="340" y="499"/>
      <point x="340" y="455" type="curve" smooth="yes"/>
      <point x="340" y="419"/>
      <point x="318" y="396"/>
      <point x="254" y="396" type="curve" smooth="yes"/>
      <point x="182" y="396" type="line"/>
      <point x="182" y="270" type="line"/>
      <point x="274" y="270" type="line" smooth="yes"/>
      <point x="342" y="270"/>
      <point x="370" y="252"/>
      <point x="370" y="208" type="curve" smooth="yes"/>
      <point x="370" y="162"/>
      <point x="332" y="136"/>
      <point x="272" y="136" type="curve" smooth="yes"/>
      <point x="220" y="136"/>
      <point x="168" y="154"/>
      <point x="122" y="194" type="curve"/>
      <point x="32" y="76" type="line"/>
      <point x="102" y="12"/>
      <point x="192" y="-12"/>
    </contour>
  </outline>
</glyph>
<glyph name="Ka" format="1">
	<unicode hex="041A"/>
	<advance width="638"/>
	<outline>
		<contour>
			<point x="72" y="0" type="line"/>
			<point x="244" y="0" type="line"/>
			<point x="244" y="264" type="line"/>
			<point x="300" y="264" type="line"/>
			<point x="462" y="0" type="line"/>
			<point x="642" y="0" type="line"/>
			<point x="434" y="344" type="line"/>
			<point x="498" y="452" type="line" smooth="yes"/>
			<point x="520" y="490"/>
			<point x="536" y="502"/>
			<point x="566" y="502" type="curve" smooth="yes"/>
			<point x="572" y="502"/>
			<point x="584" y="502"/>
			<point x="596" y="498" type="curve"/>
			<point x="624" y="652" type="line"/>
			<point x="608" y="660"/>
			<point x="584" y="662"/>
			<point x="564" y="662" type="curve" smooth="yes"/>
			<point x="484" y="662"/>
			<point x="430" y="630"/>
			<point x="382" y="546" type="curve" smooth="yes"/>
			<point x="300" y="402" type="line"/>
			<point x="244" y="402" type="line"/>
			<point x="244" y="650" type="line"/>
			<point x="72" y="650" type="line"/>
		</contour>
		<contour>
			<point name="aboveUC" x="346" y="682" type="move"/>
		</contour>
	</outline>
</glyph>
<glyph name="Che" format="1">
  <advance width="642"/>
  <unicode hex="0427"/>
  <outline>
    <contour>
      <point x="314" y="672" type="move" name="aboveUC"/>
    </contour>
    <contour>
      <point x="398" y="0" type="line"/>
      <point x="570" y="0" type="line"/>
      <point x="570" y="650" type="line"/>
      <point x="398" y="650" type="line"/>
      <point x="398" y="388" type="line"/>
      <point x="380" y="384"/>
      <point x="360" y="382"/>
      <point x="326" y="382" type="curve" smooth="yes"/>
      <point x="254" y="382"/>
      <point x="226" y="412"/>
      <point x="226" y="494" type="curve" smooth="yes"/>
      <point x="226" y="650" type="line"/>
      <point x="58" y="650" type="line"/>
      <point x="58" y="494" type="line" smooth="yes"/>
      <point x="58" y="312"/>
      <point x="152" y="246"/>
      <point x="308" y="246" type="curve" smooth="yes"/>
      <point x="348" y="246"/>
      <point x="370" y="248"/>
      <point x="398" y="252" type="curve"/>
    </contour>
  </outline>
</glyph>
<glyph name="acyr" format="1">
  <advance width="536"/>
  <unicode hex="0430"/>
  <outline>
    <contour>
      <point x="285" y="522" type="move" name="aboveLC"/>
    </contour>
    <component base="a"/>
  </outline>
</glyph>
<glyph name="ghe" format="1">
  <advance width="440"/>
  <unicode hex="0433"/>
  <outline>
    <contour>
      <point x="242" y="522" type="move" name="aboveLC"/>
    </contour>
    <contour>
      <point x="58" y="0" type="line"/>
      <point x="230" y="0" type="line"/>
      <point x="230" y="366" type="line"/>
      <point x="414" y="366" type="line"/>
      <point x="414" y="500" type="line"/>
      <point x="58" y="500" type="line"/>
    </contour>
  </outline>
</glyph>
<glyph name="de" format="1">
  <advance width="604"/>
  <unicode hex="0434"/>
  <outline>
    <contour>
      <point x="172" y="0" type="line"/>
      <point x="432" y="0" type="line"/>
      <point x="432" y="-172" type="line"/>
      <point x="580" y="-172" type="line"/>
      <point x="596" y="20" type="line"/>
      <point x="596" y="134" type="line"/>
      <point x="8" y="134" type="line"/>
      <point x="8" y="20" type="line"/>
      <point x="24" y="-172" type="line"/>
      <point x="172" y="-172" type="line"/>
    </contour>
    <contour>
      <point x="342" y="50" type="line"/>
      <point x="514" y="50" type="line"/>
      <point x="514" y="500" type="line"/>
      <point x="118" y="500" type="line"/>
      <point x="96" y="310" type="line" smooth="yes"/>
      <point x="80" y="176"/>
      <point x="64" y="146"/>
      <point x="42" y="134" type="curve"/>
      <point x="51" y="34" type="line"/>
      <point x="156" y="34"/>
      <point x="226" y="108"/>
      <point x="244" y="270" type="curve" smooth="yes"/>
      <point x="254" y="366" type="line"/>
      <point x="342" y="366" type="line"/>
    </contour>
  </outline>
</glyph>
<glyph name="ie" format="1">
	<unicode hex="0435"/>
	<advance width="526"/>
	<outline>
		<component base="e"/>
		<contour>
			<point name="aboveLC" x="272" y="522" type="move"/>
		</contour>
	</outline>
</glyph>
<glyph name="zhe" format="1">
	<unicode hex="0436"/>
	<advance width="792"/>
	<outline>
		<contour>
			<point x="4" y="0" type="line"/>
			<point x="188" y="0" type="line"/>
			<point x="286" y="190" type="line"/>
			<point x="320" y="190" type="line"/>
			<point x="320" y="0" type="line"/>
			<point x="472" y="0" type="line"/>
			<point x="472" y="190" type="line"/>
			<point x="506" y="190" type="line"/>
			<point x="604" y="0" type="line"/>
			<point x="788" y="0" type="line"/>
			<point x="629" y="256" type="line"/>
			<point x="652" y="306" type="line" smooth="yes"/>
			<point x="668" y="342"/>
			<point x="688" y="350"/>
			<point x="712" y="350" type="curve" smooth="yes"/>
			<point x="719" y="350"/>
			<point x="726" y="348"/>
			<point x="732" y="346" type="curve"/>
			<point x="758" y="504" type="line"/>
			<point x="744" y="510"/>
			<point x="730" y="512"/>
			<point x="714" y="512" type="curve" smooth="yes"/>
			<point x="636" y="512"/>
			<point x="584" y="488"/>
			<point x="546" y="408" type="curve" smooth="yes"/>
			<point x="505" y="324" type="line"/>
			<point x="472" y="324" type="line"/>
			<point x="472" y="500" type="line"/>
			<point x="320" y="500" type="line"/>
			<point x="320" y="324" type="line"/>
			<point x="287" y="324" type="line"/>
			<point x="246" y="408" type="line" smooth="yes"/>
			<point x="208" y="488"/>
			<point x="156" y="512"/>
			<point x="78" y="512" type="curve" smooth="yes"/>
			<point x="62" y="512"/>
			<point x="48" y="510"/>
			<point x="34" y="504" type="curve"/>
			<point x="60" y="346" type="line"/>
			<point x="66" y="348"/>
			<point x="73" y="350"/>
			<point x="80" y="350" type="curve" smooth="yes"/>
			<point x="104" y="350"/>
			<point x="124" y="342"/>
			<point x="140" y="306" type="curve" smooth="yes"/>
			<point x="163" y="256" type="line"/>
		</contour>
		<contour>
			<point name="aboveLC" x="396" y="522" type="move"/>
		</contour>
	</outline>
</glyph>
<glyph name="ka" format="1">
	<unicode hex="043A"/>
	<advance width="564"/>
	<outline>
		<contour>
			<point x="58" y="0" type="line"/>
			<point x="230" y="0" type="line"/>
			<point x="230" y="190" type="line"/>
			<point x="266" y="190" type="line"/>
			<point x="372" y="0" type="line"/>
			<point x="560" y="0" type="line"/>
			<point x="392" y="262" type="line"/>
			<point x="412" y="306" type="line" smooth="yes"/>
			<point x="429" y="344"/>
			<point x="448" y="350"/>
			<point x="472" y="350" type="curve" smooth="yes"/>
			<point x="479" y="350"/>
			<point x="486" y="348"/>
			<point x="492" y="346" type="curve"/>
			<point x="518" y="504" type="line"/>
			<point x="504" y="510"/>
			<point x="490" y="512"/>
			<point x="474" y="512" type="curve" smooth="yes"/>
			<point x="396" y="512"/>
			<point x="348" y="492"/>
			<point x="306" y="408" type="curve" smooth="yes"/>
			<point x="264" y="324" type="line"/>
			<point x="230" y="324" type="line"/>
			<point x="230" y="500" type="line"/>
			<point x="58" y="500" type="line"/>
		</contour>
		<contour>
			<point name="aboveLC" x="302" y="522" type="move"/>
		</contour>
	</outline>
</glyph>
<glyph name="ucyr" format="1">
  <advance width="542"/>
  <unicode hex="0443"/>
  <outline>
    <contour>
      <point x="276" y="522" type="move" name="aboveLC"/>
    </contour>
    <component base="y"/>
  </outline>
</glyph>
<glyph name="dje" format="1">
  <advance width="582"/>
  <unicode hex="0452"/>
  <outline>
    <contour>
      <point x="304" y="-188" type="curve" smooth="yes"/>
      <point x="454" y="-188"/>
      <point x="548" y="-96"/>
      <point x="548" y="184" type="curve" smooth="yes"/>
      <point x="548" y="360"/>
      <point x="484" y="460"/>
      <point x="361" y="460" type="curve" smooth="yes"/>
      <point x="298" y="460"/>
      <point x="254" y="426"/>
      <point x="222" y="396" type="curve"/>
      <point x="230" y="482" type="line"/>
      <point x="230" y="696" type="line"/>
      <point x="58" y="696" type="line"/>
      <point x="58" y="0" type="line"/>
      <point x="230" y="0" type="line"/>
      <point x="230" y="276" type="line"/>
      <point x="253" y="300"/>
      <point x="272" y="314"/>
      <point x="295" y="314" type="curve" smooth="yes"/>
      <point x="344" y="314"/>
      <point x="372" y="297"/>
      <point x="372" y="162" type="curve" smooth="yes"/>
      <point x="372" y="-10"/>
      <point x="332" y="-54"/>
      <point x="286" y="-54" type="curve" smooth="yes"/>
      <point x="274" y="-54"/>
      <point x="264" y="-52"/>
      <point x="250" y="-48" type="curve"/>
      <point x="220" y="-174" type="line"/>
      <point x="240" y="-182"/>
      <point x="264" y="-188"/>
    </contour>
    <contour>
      <point x="-8" y="550" type="line"/>
      <point x="394" y="550" type="line"/>
      <point x="394" y="630" type="line"/>
      <point x="68" y="630" type="line"/>
      <point x="-8" y="624" type="line"/>
    </contour>
  </outline>
</glyph>
<glyph name="Yat" format="1">
	<unicode hex="0462"/>
	<advance width="628"/>
	<outline>
		<contour>
			<point x="136" y="0" type="line"/>
			<point x="338" y="0" type="line" smooth="yes"/>
			<point x="478" y="0"/>
			<point x="594" y="50"/>
			<point x="594" y="214" type="curve" smooth="yes"/>
			<point x="594" y="348"/>
			<point x="474" y="394"/>
			<point x="334" y="394" type="curve" smooth="yes"/>
			<point x="308" y="394" type="line"/>
			<point x="308" y="694" type="line"/>
			<point x="136" y="694" type="line"/>
		</contour>
		<contour>
			<point x="308" y="132" type="line"/>
			<point x="308" y="274" type="line"/>
			<point x="326" y="274" type="line" smooth="yes"/>
			<point x="396" y="274"/>
			<point x="426" y="256"/>
			<point x="426" y="208" type="curve" smooth="yes"/>
			<point x="426" y="150"/>
			<point x="392" y="132"/>
			<point x="330" y="132" type="curve" smooth="yes"/>
		</contour>
		<contour>
			<point x="24" y="474" type="line"/>
			<point x="516" y="474" type="line"/>
			<point x="516" y="610" type="line"/>
			<point x="24" y="610" type="line"/>
		</contour>
		<contour>
			<point name="aboveUC" x="230" y="712" type="move"/>
		</contour>
	</outline>
</glyph>
<glyph name="ghestroke" format="1">
	<unicode hex="0493"/>
	<advance width="486"/>
	<outline>
		<contour>
			<point x="18" y="170" type="line"/>
			<point x="392" y="170" type="line"/>
			<point x="392" y="282" type="line"/>
			<point x="104" y="282" type="line"/>
			<point x="18" y="276" type="line"/>
		</contour>
		<component base="ghe" xOffset="46"/>
	</outline>
</glyph>
<glyph name="Aie" format="1">
	<unicode hex="04D4"/>
	<advance width="854"/>
	<outline>
		<component base="AE"/>
		<contour>
			<point name="aboveUC" x="427" y="564" type="move"/>
		</contour>
	</outline>
</glyph>
<glyph name="Schwacyr" format="1">
	<unicode hex="04D8"/>
	<advance width="682"/>
	<outline>
		<component base="Schwa"/>
		<contour>
			<point name="aboveUC" x="341" y="564" type="move"/>
		</contour>
	</outline>
</glyph>
<glyph name="lenisgrave" format="1">
  <advance width="560"/>
  <unicode hex="1FCD"/>
  <outline>
    <contour>
      <point x="280" y="522" type="move" name="_aboveLC"/>
    </contour>
    <component base="lenisgravecmb" xOffset="280"/>
  </outline>
</glyph>
<glyph name="figuredash" format="1">
  <advance width="540"/>
  <unicode hex="2012"/>
  <outline>
    <contour>
      <point x="44" y="200" type="line"/>
      <point x="496" y="200" type="line"/>
      <point x="496" y="308" type="line"/>
      <point x="44" y="308" type="line"/>
    </contour>
  </outline>
</glyph>
<glyph name="guilsinglleft" format="1">
  <advance width="300"/>
  <unicode hex="2039"/>
  <outline>
    <contour>
      <point x="184" y="52" type="line"/>
      <point x="246" y="102" type="line"/>
      <point x="138" y="252" type="line"/>
      <point x="246" y="402" type="line"/>
      <point x="184" y="452" type="line"/>
      <point x="50" y="312" type="line"/>
      <point x="50" y="192" type="line"/>
    </contour>
  </outline>
</glyph>
<glyph name="interrobang" format="1">
  <advance width="498"/>
  <unicode hex="203D"/>
  <outline>
    <contour>
      <point x="222" y="244" type="curve"/>
      <point x="292" y="244" type="line"/>
      <point x="280" y="318"/>
      <point x="458" y="346"/>
      <point x="458" y="512" type="curve" smooth="yes"/>
      <point x="458" y="620"/>
      <point x="358" y="682"/>
      <point x="230" y="682" type="curve" smooth="yes"/>
      <point x="152" y="682"/>
      <point x="70" y="654"/>
      <point x="12" y="578" type="curve"/>
      <point x="106" y="492" type="line"/>
      <point x="144" y="540"/>
      <point x="172" y="554"/>
      <point x="218" y="554" type="curve" smooth="yes"/>
      <point x="263" y="554"/>
      <point x="304" y="530"/>
      <point x="304" y="480" type="curve" smooth="yes"/>
      <point x="304" y="380"/>
      <point x="211" y="369"/>
    </contour>
    <contour>
      <point x="172" y="244" type="line"/>
      <point x="254" y="244" type="line"/>
      <point x="274" y="432" type="line"/>
      <point x="274" y="500" type="line"/>
      <point x="138" y="500" type="line"/>
      <point x="152" y="382" type="line"/>
    </contour>
    <contour>
      <point x="226" y="-12" type="curve" smooth="yes"/>
      <point x="284" y="-12"/>
      <point x="326" y="34"/>
      <point x="326" y="92" type="curve" smooth="yes"/>
      <point x="326" y="150"/>
      <point x="284" y="196"/>
      <point x="226" y="196" type="curve" smooth="yes"/>
      <point x="168" y="196"/>
      <point x="126" y="150"/>
      <point x="126" y="92" type="curve" smooth="yes"/>
      <point x="126" y="34"/>
      <point x="168" y="-12"/>
    </contour>
  </outline>
</glyph>
<glyph name="fraction" format="1">
  <advance width="100"/>
  <unicode hex="2044"/>
  <outline>
    <contour>
      <point x="-172" y="-12" type="line"/>
      <point x="-76" y="-12" type="line"/>
      <point x="272" y="662" type="line"/>
      <point x="176" y="662" type="line"/>
    </contour>
  </outline>
</glyph>
<glyph name="franc" format="1">
	<unicode hex="20A3"/>
	<advance width="540"/>
	<outline>
		<contour>
			<point x="58" y="0" type="line"/>
			<point x="220" y="0" type="line"/>
			<point x="220" y="254" type="line"/>
			<point x="428" y="254" type="line"/>
			<point x="428" y="398" type="line"/>
			<point x="220" y="398" type="line"/>
			<point x="220" y="490" type="line"/>
			<point x="467" y="490" type="line"/>
			<point x="467" y="634" type="line"/>
			<point x="58" y="634" type="line"/>
		</contour>
		<contour>
			<point x="-16" y="86" type="line"/>
			<point x="356" y="86" type="line"/>
			<point x="356" y="190" type="line"/>
			<point x="60" y="190" type="line"/>
			<point x="-16" y="184" type="line"/>
		</contour>
	</outline>
</glyph>
<glyph name="tugrik" format="1">
  <advance width="540"/>
  <unicode hex="20AE"/>
  <outline>
    <contour>
      <point x="184" y="0" type="line"/>
      <point x="356" y="0" type="line"/>
      <point x="356" y="510" type="line"/>
      <point x="508" y="510" type="line"/>
      <point x="508" y="634" type="line"/>
      <point x="32" y="634" type="line"/>
      <point x="32" y="510" type="line"/>
      <point x="184" y="510" type="line"/>
    </contour>
    <contour>
      <point x="80" y="48" type="line"/>
      <point x="186" y="106" type="line"/>
      <point x="354" y="186" type="line"/>
      <point x="460" y="244" type="line"/>
      <point x="460" y="336" type="line"/>
      <point x="354" y="278" type="line"/>
      <point x="186" y="198" type="line"/>
      <point x="80" y="140" type="line"/>
    </contour>
    <contour>
      <point x="80" y="188" type="line"/>
      <point x="186" y="246" type="line"/>
      <point x="354" y="326" type="line"/>
      <point x="460" y="384" type="line"/>
      <point x="460" y="476" type="line"/>
      <point x="354" y="418" type="line"/>
      <point x="186" y="338" type="line"/>
      <point x="80" y="280" type="line"/>
    </contour>
  </outline>
</glyph>
<glyph name="liraturkish" format="1">
	<unicode hex="20BA"/>
	<advance width="540"/>
	<outline>
		<contour>
			<point x="80" y="-12" type="line"/>
			<point x="362" y="-20"/>
			<point x="512" y="84"/>
			<point x="512" y="271" type="curve" smooth="yes"/>
			<point x="512" y="280"/>
			<point x="510" y="301"/>
			<point x="505" y="320" type="curve"/>
			<point x="364" y="288" type="line"/>
			<point x="366" y="275"/>
			<point x="366" y="267"/>
			<point x="366" y="264" type="curve" smooth="yes"/>
			<point x="366" y="206"/>
			<point x="320" y="157"/>
			<point x="252" y="148" type="curve"/>
			<point x="252" y="288" type="line"/>
			<point x="410" y="372" type="line"/>
			<point x="380" y="448" type="line"/>
			<point x="252" y="380" type="line"/>
			<point x="252" y="428" type="line"/>
			<point x="410" y="512" type="line"/>
			<point x="380" y="588" type="line"/>
			<point x="252" y="520" type="line"/>
			<point x="252" y="634" type="line"/>
			<point x="80" y="634" type="line"/>
			<point x="80" y="436" type="line"/>
			<point x="0" y="392" type="line"/>
			<point x="30" y="316" type="line"/>
			<point x="80" y="344" type="line"/>
			<point x="80" y="296" type="line"/>
			<point x="0" y="252" type="line"/>
			<point x="30" y="176" type="line"/>
			<point x="80" y="204" type="line"/>
		</contour>
	</outline>
</glyph>
<glyph name="careof" format="1">
	<unicode hex="2105"/>
	<advance width="870"/>
	<outline>
		<contour>
			<point x="196" y="250" type="curve" smooth="yes"/>
			<point x="247" y="250"/>
			<point x="291" y="267"/>
			<point x="324" y="306" type="curve"/>
			<point x="259" y="367" type="line"/>
			<point x="245" y="351"/>
			<point x="227" y="342"/>
			<point x="203" y="342" type="curve" smooth="yes"/>
			<point x="165" y="342"/>
			<point x="140" y="384"/>
			<point x="140" y="456" type="curve" smooth="yes"/>
			<point x="140" y="530"/>
			<point x="170" y="568"/>
			<point x="204" y="568" type="curve" smooth="yes"/>
			<point x="223" y="568"/>
			<point x="236" y="562"/>
			<point x="251" y="550" type="curve"/>
			<point x="316" y="613" type="line"/>
			<point x="292" y="641"/>
			<point x="250" y="662"/>
			<point x="202" y="662" type="curve" smooth="yes"/>
			<point x="108" y="662"/>
			<point x="22" y="584"/>
			<point x="22" y="452" type="curve" smooth="yes"/>
			<point x="22" y="317"/>
			<point x="102" y="250"/>
		</contour>
		<component base="fraction" xOffset="386"/>
		<component base="zero.dnom" xOffset="490"/>
	</outline>
</glyph>
<glyph name="minus" format="1">
  <advance width="540"/>
  <unicode hex="2212"/>
  <outline>
    <contour>
      <point x="34" y="270" type="line"/>
      <point x="506" y="270" type="line"/>
      <point x="506" y="390" type="line"/>
      <point x="34" y="390" type="line"/>
    </contour>
  </outline>
</glyph>
<glyph name="ceilingleft" format="1">
  <advance width="360"/>
  <unicode hex="231C"/>
  <outline>
    <contour>
      <point x="84" y="0" type="line"/>
      <point x="212" y="0" type="line"/>
      <point x="212" y="602" type="line"/>
      <point x="308" y="602" type="line"/>
      <point x="308" y="692" type="line"/>
      <point x="84" y="692" type="line"/>
    </contour>
  </outline>
</glyph>
<glyph name="squareblack" format="1">
  <advance width="870"/>
  <unicode hex="25A0"/>
  <outline>
    <contour>
      <point x="45" y="-60" type="line"/>
      <point x="825" y="-60" type="line"/>
      <point x="825" y="720" type="line"/>
      <point x="45" y="720" type="line"/>
    </contour>
  </outline>
</glyph>
<glyph name="trianglewhiteup" format="1">
  <advance width="870"/>
  <unicode hex="25B3"/>
  <outline>
    <contour>
      <point x="45" y="-60" type="line"/>
      <point x="825" y="-60" type="line"/>
      <point x="825" y="-58" type="line"/>
      <point x="437" y="740" type="line"/>
      <point x="433" y="740" type="line"/>
      <point x="45" y="-58" type="line"/>
    </contour>
    <contour>
      <point x="230" y="50" type="line"/>
      <point x="435" y="495" type="line"/>
      <point x="640" y="50" type="line"/>
    </contour>
  </outline>
</glyph>
<glyph name="trianglesmallupblack" format="1">
	<unicode hex="25B4"/>
	<advance width="540"/>
	<outline>
		<contour>
			<point x="86" y="108" type="line"/>
			<point x="454" y="108" type="line"/>
			<point x="454" y="112" type="line"/>
			<point x="272" y="448" type="line"/>
			<point x="268" y="448" type="line"/>
			<point x="86" y="112" type="line"/>
		</contour>
	</outline>
</glyph>
<glyph name="triangleblackright" format="1">
  <advance width="870"/>
  <unicode hex="25B6"/>
  <outline>
    <contour>
      <point x="45" y="-60" type="line"/>
      <point x="47" y="-60" type="line"/>
      <point x="845" y="328" type="line"/>
      <point x="845" y="332" type="line"/>
      <point x="47" y="720" type="line"/>
      <point x="45" y="720" type="line"/>
    </contour>
  </outline>
</glyph>
<glyph name="trianglewhiteright" format="1">
  <advance width="870"/>
  <unicode hex="25B7"/>
  <outline>
    <contour>
      <point x="45" y="-60" type="line"/>
      <point x="47" y="-60" type="line"/>
      <point x="845" y="328" type="line"/>
      <point x="845" y="332" type="line"/>
      <point x="47" y="720" type="line"/>
      <point x="45" y="720" type="line"/>
    </contour>
    <contour>
      <point x="155" y="125" type="line"/>
      <point x="155" y="535" type="line"/>
      <point x="605" y="330" type="line"/>
    </contour>
  </outline>
</glyph>
<glyph name="trianglewhitedown" format="1">
  <advance width="870"/>
  <unicode hex="25BD"/>
  <outline>
    <contour>
      <point x="825" y="720" type="line"/>
      <point x="45" y="720" type="line"/>
      <point x="45" y="718" type="line"/>
      <point x="433" y="-80" type="line"/>
      <point x="437" y="-80" type="line"/>
      <point x="825" y="718" type="line"/>
    </contour>
    <contour>
      <point x="640" y="610" type="line"/>
      <point x="435" y="165" type="line"/>
      <point x="230" y="610" type="line"/>
    </contour>
  </outline>
</glyph>
<glyph name="trianglesmalldownblack" format="1">
	<unicode hex="25BE"/>
	<advance width="540"/>
	<outline>
		<contour>
			<point x="268" y="76" type="line"/>
			<point x="272" y="76" type="line"/>
			<point x="454" y="412" type="line"/>
			<point x="454" y="416" type="line"/>
			<point x="86" y="416" type="line"/>
			<point x="86" y="412" type="line"/>
		</contour>
	</outline>
</glyph>
<glyph name="triangleblackleft" format="1">
  <advance width="870"/>
  <unicode hex="25C0"/>
  <outline>
    <contour>
      <point x="825" y="720" type="line"/>
      <point x="823" y="720" type="line"/>
      <point x="25" y="332" type="line"/>
      <point x="25" y="328" type="line"/>
      <point x="823" y="-60" type="line"/>
      <point x="825" y="-60" type="line"/>
    </contour>
  </outline>
</glyph>
<glyph name="trianglesmallleftwhite" format="1">
	<unicode hex="25C3"/>
	<advance width="540"/>
	<outline>
		<contour>
			<point x="456" y="42" type="line"/>
			<point x="460" y="42" type="line"/>
			<point x="460" y="482" type="line"/>
			<point x="456" y="482" type="line"/>
			<point x="60" y="264" type="line"/>
			<point x="60" y="260" type="line"/>
		</contour>
		<contour>
			<point x="380" y="180" type="line"/>
			<point x="214" y="262" type="line"/>
			<point x="380" y="344" type="line"/>
		</contour>
	</outline>
</glyph>
<glyph name="diamondblack" format="1">
  <advance width="870"/>
  <unicode hex="25C6"/>
  <outline>
    <contour>
      <point x="435" y="-80" type="line"/>
      <point x="845" y="330" type="line"/>
      <point x="435" y="740" type="line"/>
      <point x="25" y="330" type="line"/>
    </contour>
  </outline>
</glyph>
<glyph name="fisheye" format="1">
  <advance width="870"/>
  <unicode hex="25C9"/>
  <outline>
    <contour>
      <point x="435" y="-75" type="curve" smooth="yes"/>
      <point x="666" y="-75"/>
      <point x="840" y="95"/>
      <point x="840" y="330" type="curve" smooth="yes"/>
      <point x="840" y="565"/>
      <point x="666" y="735"/>
      <point x="435" y="735" type="curve" smooth="yes"/>
      <point x="204" y="735"/>
      <point x="30" y="565"/>
      <point x="30" y="330" type="curve" smooth="yes"/>
      <point x="30" y="95"/>
      <point x="204" y="-75"/>
    </contour>
    <contour>
      <point x="435" y="25" type="curve" smooth="yes"/>
      <point x="265" y="25"/>
      <point x="140" y="153"/>
      <point x="140" y="330" type="curve" smooth="yes"/>
      <point x="140" y="507"/>
      <point x="265" y="635"/>
      <point x="435" y="635" type="curve" smooth="yes"/>
      <point x="605" y="635"/>
      <point x="730" y="507"/>
      <point x="730" y="330" type="curve" smooth="yes"/>
      <point x="730" y="153"/>
      <point x="605" y="25"/>
    </contour>
    <contour>
      <point x="435" y="110" type="curve" smooth="yes"/>
      <point x="555" y="110"/>
      <point x="645" y="206"/>
      <point x="645" y="330" type="curve" smooth="yes"/>
      <point x="645" y="453"/>
      <point x="555" y="550"/>
      <point x="435" y="550" type="curve" smooth="yes"/>
      <point x="315" y="550"/>
      <point x="225" y="453"/>
      <point x="225" y="330" type="curve" smooth="yes"/>
      <point x="225" y="207"/>
      <point x="315" y="110"/>
    </contour>
  </outline>
</glyph>
<glyph name="bulletwhite" format="1">
	<unicode hex="25E6"/>
	<advance width="540"/>
	<outline>
		<contour>
			<point x="270" y="76" type="curve" smooth="yes"/>
			<point x="380" y="76"/>
			<point x="460" y="157"/>
			<point x="460" y="262" type="curve" smooth="yes"/>
			<point x="460" y="367"/>
			<point x="380" y="448"/>
			<point x="270" y="448" type="curve" smooth="yes"/>
			<point x="160" y="448"/>
			<point x="80" y="367"/>
			<point x="80" y="262" type="curve" smooth="yes"/>
			<point x="80" y="157"/>
			<point x="160" y="76"/>
		</contour>
		<contour>
			<point x="270" y="160" type="curve" smooth="yes"/>
			<point x="214" y="160"/>
			<point x="174" y="203"/>
			<point x="174" y="262" type="curve" smooth="yes"/>
			<point x="174" y="321"/>
			<point x="214" y="364"/>
			<point x="270" y="364" type="curve" smooth="yes"/>
			<point x="326" y="364"/>
			<point x="366" y="321"/>
			<point x="366" y="262" type="curve" smooth="yes"/>
			<point x="366" y="203"/>
			<point x="326" y="160"/>
		</contour>
	</outline>
</glyph>
<glyph name="squareshadow" format="1">
  <advance width="870"/>
  <unicode hex="2752"/>
  <outline>
    <contour>
      <point x="45" y="-60" type="line"/>
      <point x="745" y="-60" type="line"/>
      <point x="825" y="30" type="line"/>
      <point x="825" y="720" type="line"/>
      <point x="135" y="720" type="line"/>
      <point x="45" y="640" type="line"/>
    </contour>
    <contour>
      <point x="119" y="14" type="line"/>
      <point x="119" y="616" type="line"/>
      <point x="721" y="616" type="line"/>
      <point x="721" y="14" type="line"/>
    </contour>
  </outline>
</glyph>
<glyph name="Ismall" format="1">
	<unicode hex="A7AE"/>
	<unicode hex="026A"/>
	<advance width="416"/>
	<outline>
		<contour>
			<point x="54" y="0" type="line"/>
			<point x="362" y="0" type="line"/>
			<point x="362" y="134" type="line"/>
			<point x="294" y="134" type="line"/>
			<point x="294" y="366" type="line"/>
			<point x="362" y="366" type="line"/>
			<point x="362" y="500" type="line"/>
			<point x="54" y="500" type="line"/>
			<point x="54" y="366" type="line"/>
			<point x="122" y="366" type="line"/>
			<point x="122" y="134" type="line"/>
			<point x="54" y="134" type="line"/>
		</contour>
		<contour>
			<point name="aboveLC" x="210" y="522" type="move"/>
		</contour>
		<contour>
			<point name="belowLC" x="210" y="-22" type="move"/>
		</contour>
		<contour>
			<point name="ogonekLC" x="210" y="0" type="move"/>
		</contour>
	</outline>
</glyph>
<glyph name="betalatin" format="1">
	<unicode hex="A7B5"/>
	<advance width="614"/>
	<outline>
		<contour>
			<point x="58" y="-176" type="line"/>
			<point x="230" y="-176" type="line"/>
			<point x="230" y="-38" type="line"/>
			<point x="224" y="38" type="line"/>
			<point x="268" y="0"/>
			<point x="330" y="-12"/>
			<point x="380" y="-12" type="curve" smooth="yes"/>
			<point x="504" y="-12"/>
			<point x="582" y="70"/>
			<point x="582" y="202" type="curve" smooth="yes"/>
			<point x="582" y="292"/>
			<point x="530" y="354"/>
			<point x="450" y="368" type="curve"/>
			<point x="450" y="372" type="line"/>
			<point x="512" y="394"/>
			<point x="542" y="446"/>
			<point x="542" y="524" type="curve" smooth="yes"/>
			<point x="542" y="651"/>
			<point x="423" y="708"/>
			<point x="302" y="708" type="curve" smooth="yes"/>
			<point x="134" y="708"/>
			<point x="58" y="598"/>
			<point x="58" y="456" type="curve" smooth="yes"/>
		</contour>
		<contour>
			<point x="328" y="128" type="curve" smooth="yes"/>
			<point x="298" y="128"/>
			<point x="260" y="134"/>
			<point x="230" y="173" type="curve"/>
			<point x="230" y="448" type="line" smooth="yes"/>
			<point x="230" y="532"/>
			<point x="254" y="574"/>
			<point x="308" y="574" type="curve" smooth="yes"/>
			<point x="350" y="574"/>
			<point x="374" y="548"/>
			<point x="374" y="500" type="curve" smooth="yes"/>
			<point x="374" y="436"/>
			<point x="348" y="412"/>
			<point x="304" y="412" type="curve" smooth="yes"/>
			<point x="292" y="412" type="line"/>
			<point x="292" y="300" type="line"/>
			<point x="320" y="300" type="line" smooth="yes"/>
			<point x="386" y="300"/>
			<point x="414" y="270"/>
			<point x="414" y="214" type="curve" smooth="yes"/>
			<point x="414" y="158"/>
			<point x="382" y="128"/>
		</contour>
		<contour>
			<point name="aboveUC" x="310" y="720" type="move"/>
		</contour>
		<contour>
			<point name="belowLC" x="410" y="-22" type="move"/>
		</contour>
	</outline>
</glyph>
<glyph name="chilatin" format="1">
	<unicode hex="AB53"/>
	<advance width="504"/>
	<outline>
		<contour>
			<point x="-6" y="-176" type="line"/>
			<point x="172" y="-176" type="line"/>
			<point x="220" y="-40" type="line"/>
			<point x="232" y="-2"/>
			<point x="240" y="24"/>
			<point x="249" y="58" type="curve"/>
			<point x="253" y="58" type="line"/>
			<point x="260" y="24"/>
			<point x="268" y="-2"/>
			<point x="280" y="-40" type="curve"/>
			<point x="326" y="-176" type="line"/>
			<point x="510" y="-176" type="line"/>
			<point x="350" y="180" type="line"/>
			<point x="498" y="500" type="line"/>
			<point x="320" y="500" type="line"/>
			<point x="286" y="400" type="line"/>
			<point x="274" y="362"/>
			<point x="264" y="336"/>
			<point x="254" y="304" type="curve"/>
			<point x="250" y="304" type="line"/>
			<point x="240" y="336"/>
			<point x="232" y="362"/>
			<point x="220" y="400" type="curve"/>
			<point x="186" y="500" type="line"/>
			<point x="2" y="500" type="line"/>
			<point x="152" y="180" type="line"/>
		</contour>
		<contour>
			<point name="aboveLC" x="250" y="522" type="move"/>
		</contour>
		<contour>
			<point name="belowLC" x="250" y="-178" type="move"/>
		</contour>
	</outline>
</glyph>
<glyph name="marcaregistrada" format="1">
	<unicode hex="1F16C"/>
	<advance width="744"/>
	<outline>
		<contour>
			<point x="22" y="360" type="line"/>
			<point x="122" y="360" type="line"/>
			<point x="122" y="440" type="line"/>
			<point x="110" y="560" type="line"/>
			<point x="114" y="560" type="line"/>
			<point x="164" y="406" type="line"/>
			<point x="240" y="406" type="line"/>
			<point x="290" y="560" type="line"/>
			<point x="294" y="560" type="line"/>
			<point x="282" y="440" type="line"/>
			<point x="282" y="360" type="line"/>
			<point x="382" y="360" type="line"/>
			<point x="382" y="676" type="line"/>
			<point x="260" y="676" type="line"/>
			<point x="224" y="584" type="line"/>
			<point x="204" y="522" type="line"/>
			<point x="200" y="522" type="line"/>
			<point x="180" y="584" type="line"/>
			<point x="144" y="676" type="line"/>
			<point x="22" y="676" type="line"/>
		</contour>
		<contour>
			<point x="444" y="360" type="line"/>
			<point x="554" y="360" type="line"/>
			<point x="554" y="448" type="line"/>
			<point x="586" y="448" type="line" smooth="yes"/>
			<point x="660" y="448"/>
			<point x="725" y="488"/>
			<point x="725" y="576" type="curve" smooth="yes"/>
			<point x="725" y="652"/>
			<point x="664" y="676"/>
			<point x="596" y="676" type="curve" smooth="yes"/>
			<point x="444" y="676" type="line"/>
		</contour>
		<contour>
			<point x="554" y="522" type="line"/>
			<point x="554" y="598" type="line"/>
			<point x="574" y="598" type="line" smooth="yes"/>
			<point x="604" y="598"/>
			<point x="618" y="586"/>
			<point x="618" y="562" type="curve" smooth="yes"/>
			<point x="618" y="536"/>
			<point x="604" y="522"/>
			<point x="574" y="522" type="curve" smooth="yes"/>
		</contour>
		<contour>
			<point x="623" y="360" type="line"/>
			<point x="744" y="360" type="line"/>
			<point x="640" y="545" type="line"/>
			<point x="558" y="487" type="line"/>
		</contour>
	</outline>
</glyph>
<glyph name="Alpha.sc" format="1">
	<advance width="516"/>
	<outline>
		<component base="A.sc"/>
		<contour>
			<point name="aboveLC" x="254" y="564" type="move"/>
		</contour>
		<contour>
			<point name="belowLC" x="254" y="-22" type="move"/>
		</contour>
	</outline>
</glyph>
<glyph name="Aogonek.a" format="1">
	<advance width="584"/>
	<outline>
		<component base="A"/>
		<component base="ogonekcmb.cap" xOffset="288"/>
		<contour>
			<point name="aboveUC" x="292" y="672" type="move"/>
		</contour>
	</outline>
</glyph>
<glyph name="Aogonek.d" format="1">
	<advance width="584"/>
	<outline>
		<contour>
			<point x="304" y="-228" type="curve" smooth="yes"/>
			<point x="342" y="-228"/>
			<point x="390" y="-212"/>
			<point x="418" y="-190" type="curve"/>
			<point x="380" y="-104" type="line"/>
			<point x="372" y="-110"/>
			<point x="358" y="-118"/>
			<point x="342" y="-118" type="curve" smooth="yes"/>
			<point x="326" y="-118"/>
			<point x="306" y="-108"/>
			<point x="306" y="-84" type="curve" smooth="yes"/>
			<point x="306" y="-64"/>
			<point x="316" y="-46"/>
			<point x="340" y="-26" type="curve"/>
			<point x="278" y="24" type="line"/>
			<point x="222" y="-16"/>
			<point x="182" y="-68"/>
			<point x="182" y="-130" type="curve" smooth="yes"/>
			<point x="182" y="-192"/>
			<point x="236" y="-228"/>
		</contour>
		<component base="A"/>
		<contour>
			<point name="aboveUC" x="290" y="672" type="move"/>
		</contour>
	</outline>
</glyph>
<glyph name="Beta.sc" format="1">
	<advance width="554"/>
	<outline>
		<component base="B.sc"/>
		<contour>
			<point name="aboveLC" x="295" y="564" type="move"/>
		</contour>
		<contour>
			<point name="belowLC" x="304" y="-22" type="move"/>
		</contour>
	</outline>
</glyph>
<glyph name="Bstroke.sc" format="1">
	<advance width="580"/>
	<outline>
		<contour>
			<point x="98" y="0" type="line"/>
			<point x="327" y="0" type="line" smooth="yes"/>
			<point x="447" y="0"/>
			<point x="550" y="44"/>
			<point x="550" y="155" type="curve" smooth="yes"/>
			<point x="550" y="238"/>
			<point x="513" y="284"/>
			<point x="435" y="300" type="curve"/>
			<point x="435" y="304" type="line"/>
			<point x="501" y="320"/>
			<point x="527" y="369"/>
			<point x="527" y="408" type="curve" smooth="yes"/>
			<point x="527" y="509"/>
			<point x="427" y="532"/>
			<point x="309" y="532" type="curve" smooth="yes"/>
			<point x="98" y="532" type="line"/>
		</contour>
		<contour>
			<point x="270" y="340" type="line"/>
			<point x="270" y="438" type="line"/>
			<point x="313" y="438" type="line" smooth="yes"/>
			<point x="354" y="438"/>
			<point x="372" y="424"/>
			<point x="372" y="392" type="curve" smooth="yes"/>
			<point x="372" y="364"/>
			<point x="356" y="340"/>
			<point x="314" y="340" type="curve" smooth="yes"/>
		</contour>
		<contour>
			<point x="270" y="94" type="line"/>
			<point x="270" y="252" type="line"/>
			<point x="310" y="252" type="line" smooth="yes"/>
			<point x="371" y="252"/>
			<point x="396" y="228"/>
			<point x="396" y="174" type="curve" smooth="yes"/>
			<point x="396" y="126"/>
			<point x="372" y="94"/>
			<point x="310" y="94" type="curve" smooth="yes"/>
		</contour>
		<contour>
			<point x="24" y="118" type="line"/>
			<point x="356" y="118" type="line"/>
			<point x="356" y="228" type="line"/>
			<point x="100" y="228" type="line"/>
			<point x="24" y="222" type="line"/>
		</contour>
	</outline>
</glyph>
<glyph name="Chi.sc" format="1">
  <advance width="530"/>
  <outline>
    <contour>
      <point x="312" y="564" type="move" name="aboveUC"/>
    </contour>
    <contour>
      <point x="312" y="-22" type="move" name="belowLC"/>
    </contour>
    <contour>
      <point x="312" y="0" type="move" name="baseLC"/>
    </contour>
    <component base="X.sc"/>
  </outline>
</glyph>
<glyph name="De.a" format="1">
	<advance width="682"/>
	<outline>
		<contour>
			<point x="22" y="-188" type="line"/>
			<point x="176" y="-188" type="line"/>
			<point x="176" y="0" type="line"/>
			<point x="506" y="0" type="line"/>
			<point x="506" y="-188" type="line"/>
			<point x="660" y="-188" type="line"/>
			<point x="674" y="36" type="line"/>
			<point x="674" y="144" type="line"/>
			<point x="8" y="144" type="line"/>
			<point x="8" y="36" type="line"/>
		</contour>
		<component base="Lambda" xOffset="56"/>
	</outline>
</glyph>
<glyph name="De.sc" format="1">
  <advance width="620"/>
  <outline>
    <contour>
      <point x="172" y="-172" type="line"/>
      <point x="172" y="0" type="line"/>
      <point x="448" y="0" type="line"/>
      <point x="448" y="-172" type="line"/>
      <point x="596" y="-172" type="line"/>
      <point x="612" y="24" type="line"/>
      <point x="612" y="142" type="line"/>
      <point x="8" y="142" type="line"/>
      <point x="8" y="24" type="line"/>
      <point x="24" y="-172" type="line"/>
    </contour>
    <contour>
      <point x="358" y="50" type="line"/>
      <point x="530" y="50" type="line"/>
      <point x="530" y="532" type="line"/>
      <point x="158" y="532" type="line"/>
      <point x="141" y="442"/>
      <point x="133" y="400"/>
      <point x="115" y="319" type="curve" smooth="yes"/>
      <point x="90" y="201"/>
      <point x="60" y="149"/>
      <point x="34" y="141" type="curve"/>
      <point x="52" y="34" type="line"/>
      <point x="171" y="31"/>
      <point x="236" y="147"/>
      <point x="267" y="298" type="curve" smooth="yes"/>
      <point x="276" y="340"/>
      <point x="279" y="352"/>
      <point x="288" y="392" type="curve"/>
      <point x="358" y="392" type="line"/>
    </contour>
  </outline>
</glyph>
<glyph name="Dje.sc" format="1">
	<advance width="624"/>
	<outline>
		<contour>
			<point x="24" y="392" type="line"/>
			<point x="480" y="392" type="line"/>
			<point x="480" y="532" type="line"/>
			<point x="24" y="532" type="line"/>
		</contour>
		<contour>
			<point x="382" y="320" type="curve"/>
			<point x="356" y="320"/>
			<point x="340" y="318"/>
			<point x="318" y="314" type="curve"/>
			<point x="318" y="532" type="line"/>
			<point x="146" y="532" type="line"/>
			<point x="146" y="0" type="line"/>
			<point x="318" y="0" type="line"/>
			<point x="318" y="204" type="line"/>
			<point x="328" y="206"/>
			<point x="340" y="208"/>
			<point x="362" y="208" type="curve"/>
			<point x="403" y="208"/>
			<point x="426" y="187"/>
			<point x="426" y="154" type="curve" smooth="yes"/>
			<point x="426" y="134"/>
			<point x="413" y="120"/>
			<point x="398" y="120" type="curve" smooth="yes"/>
			<point x="394" y="120"/>
			<point x="390" y="121"/>
			<point x="384" y="123" type="curve"/>
			<point x="359" y="-4" type="line"/>
			<point x="377" y="-11"/>
			<point x="395" y="-12"/>
			<point x="420" y="-12" type="curve" smooth="yes"/>
			<point x="526" y="-12"/>
			<point x="590" y="40"/>
			<point x="590" y="146" type="curve" smooth="yes"/>
			<point x="590" y="273"/>
			<point x="480" y="320"/>
		</contour>
	</outline>
</glyph>
<glyph name="E.sc" format="1">
	<advance width="508"/>
	<outline>
		<contour>
			<point x="72" y="0" type="line"/>
			<point x="454" y="0" type="line"/>
			<point x="454" y="132" type="line"/>
			<point x="244" y="132" type="line"/>
			<point x="244" y="206" type="line"/>
			<point x="416" y="206" type="line"/>
			<point x="416" y="330" type="line"/>
			<point x="244" y="330" type="line"/>
			<point x="244" y="400" type="line"/>
			<point x="444" y="400" type="line"/>
			<point x="444" y="532" type="line"/>
			<point x="72" y="532" type="line"/>
		</contour>
		<contour>
			<point name="aboveUC" x="271" y="564" type="move"/>
		</contour>
		<contour>
			<point name="belowLC" x="272" y="-22" type="move"/>
		</contour>
		<contour>
			<point name="ogonekUC" x="336" y="0" type="move"/>
		</contour>
	</outline>
</glyph>
<glyph name="Eogonek.a" format="1">
	<advance width="556"/>
	<outline>
		<component base="E"/>
		<component base="ogonekcmb.cap" xOffset="280"/>
		<contour>
			<point name="aboveUC" x="290" y="672" type="move"/>
		</contour>
	</outline>
</glyph>
<glyph name="Eogonek.d" format="1">
	<advance width="556"/>
	<outline>
		<contour>
			<point x="294" y="-228" type="curve" smooth="yes"/>
			<point x="332" y="-228"/>
			<point x="380" y="-212"/>
			<point x="408" y="-190" type="curve"/>
			<point x="370" y="-104" type="line"/>
			<point x="361" y="-110"/>
			<point x="348" y="-118"/>
			<point x="336" y="-118" type="curve" smooth="yes"/>
			<point x="316" y="-118"/>
			<point x="296" y="-108"/>
			<point x="296" y="-84" type="curve" smooth="yes"/>
			<point x="296" y="-46"/>
			<point x="334" y="0"/>
			<point x="380" y="0" type="curve" smooth="yes"/>
			<point x="502" y="0" type="line"/>
			<point x="502" y="144" type="line"/>
			<point x="244" y="144" type="line"/>
			<point x="244" y="260" type="line"/>
			<point x="456" y="260" type="line"/>
			<point x="456" y="404" type="line"/>
			<point x="244" y="404" type="line"/>
			<point x="244" y="506" type="line"/>
			<point x="492" y="506" type="line"/>
			<point x="492" y="650" type="line"/>
			<point x="72" y="650" type="line"/>
			<point x="72" y="0" type="line"/>
			<point x="252" y="0" type="line"/>
			<point x="218" y="-20"/>
			<point x="172" y="-70"/>
			<point x="172" y="-130" type="curve" smooth="yes"/>
			<point x="172" y="-192"/>
			<point x="226" y="-228"/>
		</contour>
		<contour>
			<point name="aboveUC" x="290" y="672" type="move"/>
		</contour>
	</outline>
</glyph>
<glyph name="Epsilon.sc" format="1">
	<advance width="508"/>
	<outline>
		<component base="E.sc"/>
		<contour>
			<point name="aboveLC" x="271" y="564" type="move"/>
		</contour>
		<contour>
			<point name="belowLC" x="272" y="-22" type="move"/>
		</contour>
	</outline>
</glyph>
<glyph name="Eta.sc" format="1">
	<advance width="632"/>
	<outline>
		<component base="H.sc"/>
		<contour>
			<point name="aboveLC" x="316" y="564" type="move"/>
		</contour>
		<contour>
			<point name="belowLC" x="316" y="-22" type="move"/>
		</contour>
	</outline>
</glyph>
<glyph name="Ghe.sc" format="1">
  <advance width="482"/>
  <outline>
    <contour>
      <point x="276" y="554" type="move" name="aboveUC"/>
    </contour>
    <component base="Gamma.sc"/>
  </outline>
</glyph>
<glyph name="Ghestroke.sc" format="1">
	<advance width="508"/>
	<outline>
		<contour>
			<point x="24" y="182" type="line"/>
			<point x="386" y="182" type="line"/>
			<point x="386" y="292" type="line"/>
			<point x="100" y="292" type="line"/>
			<point x="24" y="286" type="line"/>
		</contour>
		<component base="Ghe.sc" xOffset="26"/>
	</outline>
</glyph>
<glyph name="Hbar.sc" format="1">
	<advance width="672"/>
	<outline>
		<contour>
			<point x="22" y="388" type="line"/>
			<point x="650" y="388" type="line"/>
			<point x="650" y="468" type="line"/>
			<point x="98" y="468" type="line"/>
			<point x="22" y="462" type="line"/>
		</contour>
		<contour>
			<point x="92" y="0" type="line"/>
			<point x="264" y="0" type="line"/>
			<point x="264" y="206" type="line"/>
			<point x="408" y="206" type="line"/>
			<point x="408" y="0" type="line"/>
			<point x="580" y="0" type="line"/>
			<point x="580" y="532" type="line"/>
			<point x="408" y="532" type="line"/>
			<point x="408" y="334" type="line"/>
			<point x="264" y="334" type="line"/>
			<point x="264" y="532" type="line"/>
			<point x="92" y="532" type="line"/>
		</contour>
	</outline>
</glyph>
<glyph name="I.alt" format="1">
	<advance width="416"/>
	<outline>
		<contour>
			<point x="54" y="0" type="line"/>
			<point x="362" y="0" type="line"/>
			<point x="362" y="144" type="line"/>
			<point x="294" y="144" type="line"/>
			<point x="294" y="506" type="line"/>
			<point x="362" y="506" type="line"/>
			<point x="362" y="650" type="line"/>
			<point x="54" y="650" type="line"/>
			<point x="54" y="506" type="line"/>
			<point x="122" y="506" type="line"/>
			<point x="122" y="144" type="line"/>
			<point x="54" y="144" type="line"/>
		</contour>
		<contour>
			<point name="aboveUC" x="208" y="672" type="move"/>
		</contour>
		<contour>
			<point name="belowLC" x="208" y="-22" type="move"/>
		</contour>
		<contour>
			<point name="ogonekUC" x="190" y="0" type="move"/>
		</contour>
	</outline>
</glyph>
<glyph name="Ka.sc" format="1">
	<advance width="586"/>
	<outline>
		<contour>
			<point x="72" y="0" type="line"/>
			<point x="244" y="0" type="line"/>
			<point x="244" y="202" type="line"/>
			<point x="276" y="202" type="line"/>
			<point x="406" y="0" type="line"/>
			<point x="582" y="0" type="line"/>
			<point x="408" y="280" type="line"/>
			<point x="458" y="358" type="line" smooth="yes"/>
			<point x="472" y="379"/>
			<point x="486" y="388"/>
			<point x="512" y="388" type="curve" smooth="yes"/>
			<point x="522" y="388"/>
			<point x="532" y="386"/>
			<point x="539" y="384" type="curve"/>
			<point x="566" y="534" type="line"/>
			<point x="552" y="540"/>
			<point x="530" y="544"/>
			<point x="510" y="544" type="curve" smooth="yes"/>
			<point x="436" y="544"/>
			<point x="384" y="520"/>
			<point x="344" y="452" type="curve" smooth="yes"/>
			<point x="276" y="338" type="line"/>
			<point x="244" y="338" type="line"/>
			<point x="244" y="532" type="line"/>
			<point x="72" y="532" type="line"/>
		</contour>
		<contour>
			<point name="aboveUC" x="312" y="554" type="move"/>
		</contour>
	</outline>
</glyph>
<glyph name="Kabashkir.a" format="1">
  <advance width="754"/>
  <outline>
    <contour>
      <point x="24" y="506" type="line"/>
      <point x="196" y="506" type="line"/>
      <point x="368" y="650" type="line"/>
      <point x="24" y="650" type="line"/>
    </contour>
    <component base="Ka.a" xOffset="124"/>
  </outline>
</glyph>
<glyph name="Kabashkir.sc" format="1">
  <advance width="688"/>
  <outline>
    <contour>
      <point x="508" y="276" type="line"/>
      <point x="560" y="358" type="line" smooth="yes"/>
      <point x="572" y="378"/>
      <point x="588" y="388"/>
      <point x="614" y="388" type="curve" smooth="yes"/>
      <point x="624" y="388"/>
      <point x="634" y="386"/>
      <point x="641" y="384" type="curve"/>
      <point x="668" y="534" type="line"/>
      <point x="654" y="540"/>
      <point x="632" y="544"/>
      <point x="612" y="544" type="curve" smooth="yes"/>
      <point x="538" y="544"/>
      <point x="486" y="520"/>
      <point x="446" y="452" type="curve" smooth="yes"/>
      <point x="362" y="310" type="line"/>
    </contour>
    <contour>
      <point x="174" y="0" type="line"/>
      <point x="346" y="0" type="line"/>
      <point x="346" y="202" type="line"/>
      <point x="378" y="202" type="line"/>
      <point x="508" y="0" type="line"/>
      <point x="684" y="0" type="line"/>
      <point x="476" y="338" type="line"/>
      <point x="346" y="338" type="line"/>
      <point x="346" y="532" type="line"/>
      <point x="24" y="532" type="line"/>
      <point x="24" y="390" type="line"/>
      <point x="174" y="390" type="line"/>
    </contour>
  </outline>
</glyph>
<glyph name="Kadescender.a" format="1">
	<advance width="688"/>
	<outline>
		<contour>
			<point x="510" y="-192" type="line"/>
			<point x="656" y="-192" type="line"/>
			<point x="674" y="24" type="line"/>
			<point x="674" y="144" type="line"/>
			<point x="476" y="144" type="line"/>
			<point x="476" y="0" type="line"/>
			<point x="510" y="0" type="line"/>
		</contour>
		<component base="Ka.a"/>
	</outline>
</glyph>
<glyph name="Kappa.sc" format="1">
	<advance width="570"/>
	<outline>
		<component base="K.sc"/>
		<contour>
			<point name="aboveLC" x="304" y="564" type="move"/>
		</contour>
		<contour>
			<point name="belowLC" x="324" y="-22" type="move"/>
		</contour>
	</outline>
</glyph>
<glyph name="Lslash.sc" format="1">
  <advance width="484"/>
  <outline>
    <contour>
      <point x="28" y="108" type="line"/>
      <point x="99" y="150" type="line"/>
      <point x="235" y="208" type="line"/>
      <point x="430" y="314" type="line"/>
      <point x="372" y="408" type="line"/>
      <point x="235" y="334" type="line"/>
      <point x="99" y="276" type="line"/>
      <point x="-30" y="202" type="line"/>
    </contour>
    <component base="L.sc" xOffset="8"/>
  </outline>
</glyph>
<glyph name="Nu.sc" format="1">
	<advance width="614"/>
	<outline>
		<component base="N.sc"/>
		<contour>
			<point name="aboveLC" x="316" y="564" type="move"/>
		</contour>
		<contour>
			<point name="belowLC" x="312" y="-22" type="move"/>
		</contour>
	</outline>
</glyph>
<glyph name="Ocyr.sc" format="1">
	<advance width="626"/>
	<outline>
		<component base="O.sc"/>
		<contour>
			<point name="aboveUC" x="310" y="564" type="move"/>
		</contour>
	</outline>
</glyph>
<glyph name="Omicron.sc" format="1">
	<advance width="626"/>
	<outline>
		<component base="O.sc"/>
		<contour>
			<point name="aboveLC" x="314" y="564" type="move"/>
		</contour>
		<contour>
			<point name="belowLC" x="315" y="-22" type="move"/>
		</contour>
	</outline>
</glyph>
<glyph name="Oogonek.sc" format="1">
	<advance width="626"/>
	<outline>
		<contour>
			<point x="328" y="-228" type="curve" smooth="yes"/>
			<point x="366" y="-228"/>
			<point x="414" y="-212"/>
			<point x="442" y="-190" type="curve"/>
			<point x="404" y="-104" type="line"/>
			<point x="395" y="-110"/>
			<point x="382" y="-118"/>
			<point x="370" y="-118" type="curve" smooth="yes"/>
			<point x="350" y="-118"/>
			<point x="330" y="-108"/>
			<point x="330" y="-84" type="curve" smooth="yes"/>
			<point x="330" y="-58"/>
			<point x="349" y="-22"/>
			<point x="398" y="-4" type="curve" smooth="yes"/>
			<point x="512" y="38"/>
			<point x="582" y="120"/>
			<point x="582" y="268" type="curve" smooth="yes"/>
			<point x="582" y="446"/>
			<point x="473" y="544"/>
			<point x="314" y="544" type="curve" smooth="yes"/>
			<point x="153" y="544"/>
			<point x="44" y="447"/>
			<point x="44" y="268" type="curve" smooth="yes"/>
			<point x="44" y="92"/>
			<point x="154" y="-12"/>
			<point x="314" y="-12" type="curve"/>
			<point x="282" y="2" type="line"/>
			<point x="246" y="-22"/>
			<point x="206" y="-76"/>
			<point x="206" y="-130" type="curve" smooth="yes"/>
			<point x="206" y="-192"/>
			<point x="260" y="-228"/>
		</contour>
		<contour>
			<point x="314" y="128" type="curve" smooth="yes"/>
			<point x="254" y="128"/>
			<point x="220" y="182"/>
			<point x="220" y="268" type="curve" smooth="yes"/>
			<point x="220" y="356"/>
			<point x="254" y="404"/>
			<point x="314" y="404" type="curve" smooth="yes"/>
			<point x="372" y="404"/>
			<point x="406" y="356"/>
			<point x="406" y="268" type="curve" smooth="yes"/>
			<point x="406" y="182"/>
			<point x="372" y="128"/>
		</contour>
		<contour>
			<point name="aboveUC" x="314" y="564" type="move"/>
		</contour>
	</outline>
</glyph>
<glyph name="Rho.sc" format="1">
	<advance width="564"/>
	<outline>
		<component base="P.sc"/>
		<contour>
			<point name="aboveLC" x="306" y="564" type="move"/>
		</contour>
		<contour>
			<point name="belowLC" x="170" y="-22" type="move"/>
		</contour>
	</outline>
</glyph>
<glyph name="Schwacyr.sc" format="1">
	<advance width="612"/>
	<outline>
		<component base="Schwa.sc"/>
		<contour>
			<point name="aboveUC" x="320" y="564" type="move"/>
		</contour>
	</outline>
</glyph>
<glyph name="Uogonek.sc" format="1">
	<advance width="616"/>
	<outline>
		<contour>
			<point x="322" y="-228" type="curve" smooth="yes"/>
			<point x="360" y="-228"/>
			<point x="408" y="-212"/>
			<point x="436" y="-190" type="curve"/>
			<point x="398" y="-104" type="line"/>
			<point x="389" y="-110"/>
			<point x="376" y="-118"/>
			<point x="364" y="-118" type="curve" smooth="yes"/>
			<point x="344" y="-118"/>
			<point x="324" y="-108"/>
			<point x="324" y="-84" type="curve" smooth="yes"/>
			<point x="324" y="-52"/>
			<point x="342" y="-20"/>
			<point x="384" y="-8" type="curve" smooth="yes"/>
			<point x="500" y="24"/>
			<point x="548" y="102"/>
			<point x="548" y="256" type="curve" smooth="yes"/>
			<point x="548" y="532" type="line"/>
			<point x="384" y="532" type="line"/>
			<point x="384" y="244" type="line" smooth="yes"/>
			<point x="384" y="160"/>
			<point x="367" y="128"/>
			<point x="312" y="128" type="curve" smooth="yes"/>
			<point x="258" y="128"/>
			<point x="238" y="160"/>
			<point x="238" y="244" type="curve" smooth="yes"/>
			<point x="238" y="532" type="line"/>
			<point x="68" y="532" type="line"/>
			<point x="68" y="256" type="line" smooth="yes"/>
			<point x="68" y="70"/>
			<point x="148" y="-12"/>
			<point x="310" y="-12" type="curve"/>
			<point x="276" y="2" type="line"/>
			<point x="240" y="-22"/>
			<point x="200" y="-70"/>
			<point x="200" y="-130" type="curve" smooth="yes"/>
			<point x="200" y="-192"/>
			<point x="254" y="-228"/>
		</contour>
		<contour>
			<point name="aboveUC" x="308" y="564" type="move"/>
		</contour>
	</outline>
</glyph>
<glyph name="Upsilon.sc" format="1">
	<advance width="487"/>
	<outline>
		<component base="Y.sc"/>
		<contour>
			<point name="aboveLC" x="240" y="564" type="move"/>
		</contour>
		<contour>
			<point name="belowLC" x="242" y="-22" type="move"/>
		</contour>
	</outline>
</glyph>
<glyph name="Ustraight.sc" format="1">
	<advance width="487"/>
	<outline>
		<component base="Y.sc"/>
		<contour>
			<point name="aboveUC" x="240" y="564" type="move"/>
		</contour>
	</outline>
</glyph>
<glyph name="Ustraightstroke.sc" format="1">
	<advance width="488"/>
	<outline>
		<contour>
			<point x="38" y="114" type="line"/>
			<point x="450" y="114" type="line"/>
			<point x="450" y="226" type="line"/>
			<point x="134" y="226" type="line"/>
			<point x="38" y="220" type="line"/>
		</contour>
		<component base="Ustraight.sc"/>
		<contour>
			<point name="aboveUC" x="240" y="564" type="move"/>
		</contour>
	</outline>
</glyph>
<glyph name="Ze.sc" format="1">
  <advance width="505"/>
  <outline>
    <contour>
      <point x="242" y="-12" type="curve" smooth="yes"/>
      <point x="376" y="-12"/>
      <point x="476" y="46"/>
      <point x="476" y="160" type="curve" smooth="yes"/>
      <point x="476" y="216"/>
      <point x="438" y="262"/>
      <point x="388" y="278" type="curve"/>
      <point x="388" y="282" type="line"/>
      <point x="430" y="304"/>
      <point x="452" y="346"/>
      <point x="452" y="392" type="curve" smooth="yes"/>
      <point x="452" y="484"/>
      <point x="384" y="544"/>
      <point x="236" y="544" type="curve" smooth="yes"/>
      <point x="168" y="544"/>
      <point x="102" y="522"/>
      <point x="44" y="476" type="curve"/>
      <point x="124" y="368" type="line"/>
      <point x="164" y="402"/>
      <point x="199" y="414"/>
      <point x="230" y="414" type="curve" smooth="yes"/>
      <point x="262" y="414"/>
      <point x="286" y="398"/>
      <point x="286" y="372" type="curve" smooth="yes"/>
      <point x="286" y="340"/>
      <point x="270" y="324"/>
      <point x="230" y="324" type="curve" smooth="yes"/>
      <point x="164" y="324" type="line"/>
      <point x="164" y="218" type="line"/>
      <point x="246" y="218" type="line" smooth="yes"/>
      <point x="292" y="218"/>
      <point x="310" y="200"/>
      <point x="310" y="166" type="curve" smooth="yes"/>
      <point x="310" y="136"/>
      <point x="284" y="118"/>
      <point x="242" y="118" type="curve" smooth="yes"/>
      <point x="201" y="118"/>
      <point x="149" y="142"/>
      <point x="110" y="172" type="curve"/>
      <point x="32" y="60" type="line"/>
      <point x="94" y="8"/>
      <point x="174" y="-12"/>
    </contour>
  </outline>
</glyph>
<glyph name="Zeta.sc" format="1">
	<advance width="483"/>
	<outline>
		<component base="Z.sc"/>
		<contour>
			<point name="aboveLC" x="258" y="564" type="move"/>
		</contour>
		<contour>
			<point name="belowLC" x="252" y="-22" type="move"/>
		</contour>
	</outline>
</glyph>
<glyph name="Zhe.a" format="1">
	<advance width="892"/>
	<outline>
		<contour>
			<point x="72" y="-12" type="curve" smooth="yes"/>
			<point x="138" y="-12"/>
			<point x="185" y="10"/>
			<point x="228" y="94" type="curve"/>
			<point x="346" y="358" type="line"/>
			<point x="202" y="402" type="line"/>
			<point x="112" y="198" type="line"/>
			<point x="95" y="162"/>
			<point x="86" y="148"/>
			<point x="56" y="148" type="curve" smooth="yes"/>
			<point x="50" y="148"/>
			<point x="38" y="148"/>
			<point x="26" y="152" type="curve"/>
			<point x="-2" y="-2" type="line"/>
			<point x="14" y="-10"/>
			<point x="38" y="-12"/>
		</contour>
		<contour>
			<point x="174" y="330" type="line"/>
			<point x="314" y="374" type="line"/>
			<point x="240" y="546" type="line"/>
			<point x="198" y="632"/>
			<point x="148" y="662"/>
			<point x="80" y="662" type="curve" smooth="yes"/>
			<point x="48" y="662"/>
			<point x="24" y="660"/>
			<point x="8" y="652" type="curve"/>
			<point x="36" y="498" type="line"/>
			<point x="48" y="502"/>
			<point x="60" y="502"/>
			<point x="66" y="502" type="curve" smooth="yes"/>
			<point x="96" y="502"/>
			<point x="108" y="486"/>
			<point x="124" y="452" type="curve"/>
		</contour>
		<contour>
			<point x="820" y="-12" type="curve" smooth="yes"/>
			<point x="854" y="-12"/>
			<point x="878" y="-10"/>
			<point x="894" y="-2" type="curve"/>
			<point x="866" y="152" type="line"/>
			<point x="854" y="148"/>
			<point x="842" y="148"/>
			<point x="836" y="148" type="curve" smooth="yes"/>
			<point x="806" y="148"/>
			<point x="797" y="162"/>
			<point x="780" y="198" type="curve"/>
			<point x="690" y="402" type="line"/>
			<point x="544" y="358" type="line"/>
			<point x="664" y="94" type="line"/>
			<point x="707" y="10"/>
			<point x="754" y="-12"/>
		</contour>
		<contour>
			<point x="718" y="330" type="line"/>
			<point x="768" y="452" type="line"/>
			<point x="784" y="486"/>
			<point x="796" y="502"/>
			<point x="826" y="502" type="curve" smooth="yes"/>
			<point x="832" y="502"/>
			<point x="844" y="502"/>
			<point x="856" y="498" type="curve"/>
			<point x="884" y="652" type="line"/>
			<point x="868" y="660"/>
			<point x="844" y="662"/>
			<point x="812" y="662" type="curve" smooth="yes"/>
			<point x="744" y="662"/>
			<point x="694" y="632"/>
			<point x="652" y="546" type="curve"/>
			<point x="578" y="374" type="line"/>
		</contour>
		<contour>
			<point x="366" y="0" type="line"/>
			<point x="526" y="0" type="line"/>
			<point x="526" y="264" type="line"/>
			<point x="614" y="264" type="line"/>
			<point x="690" y="402" type="line"/>
			<point x="526" y="402" type="line"/>
			<point x="526" y="650" type="line"/>
			<point x="366" y="650" type="line"/>
			<point x="366" y="402" type="line"/>
			<point x="202" y="402" type="line"/>
			<point x="278" y="264" type="line"/>
			<point x="366" y="264" type="line"/>
		</contour>
	</outline>
</glyph>
<glyph name="Zhe.sc" format="1">
	<advance width="792"/>
	<outline>
		<contour>
			<point x="0" y="0" type="line"/>
			<point x="180" y="0" type="line"/>
			<point x="276" y="202" type="line"/>
			<point x="316" y="202" type="line"/>
			<point x="316" y="0" type="line"/>
			<point x="476" y="0" type="line"/>
			<point x="476" y="202" type="line"/>
			<point x="516" y="202" type="line"/>
			<point x="612" y="0" type="line"/>
			<point x="792" y="0" type="line"/>
			<point x="636" y="276" type="line"/>
			<point x="674" y="354" type="line" smooth="yes"/>
			<point x="684" y="374"/>
			<point x="700" y="388"/>
			<point x="728" y="388" type="curve" smooth="yes"/>
			<point x="738" y="388"/>
			<point x="748" y="386"/>
			<point x="756" y="384" type="curve"/>
			<point x="784" y="534" type="line"/>
			<point x="770" y="540"/>
			<point x="748" y="544"/>
			<point x="726" y="544" type="curve" smooth="yes"/>
			<point x="652" y="544"/>
			<point x="596" y="518"/>
			<point x="562" y="450" type="curve" smooth="yes"/>
			<point x="506" y="336" type="line"/>
			<point x="476" y="336" type="line"/>
			<point x="476" y="532" type="line"/>
			<point x="316" y="532" type="line"/>
			<point x="316" y="336" type="line"/>
			<point x="286" y="336" type="line"/>
			<point x="230" y="450" type="line" smooth="yes"/>
			<point x="196" y="518"/>
			<point x="140" y="544"/>
			<point x="66" y="544" type="curve" smooth="yes"/>
			<point x="44" y="544"/>
			<point x="22" y="540"/>
			<point x="8" y="534" type="curve"/>
			<point x="36" y="384" type="line"/>
			<point x="44" y="386"/>
			<point x="54" y="388"/>
			<point x="64" y="388" type="curve" smooth="yes"/>
			<point x="92" y="388"/>
			<point x="108" y="374"/>
			<point x="118" y="354" type="curve" smooth="yes"/>
			<point x="156" y="276" type="line"/>
		</contour>
		<contour>
			<point name="aboveUC" x="615" y="682" type="move"/>
		</contour>
	</outline>
</glyph>
<glyph name="Zhedescender.a" format="1">
  <advance width="962"/>
  <outline>
    <contour>
      <point x="790" y="-192" type="line"/>
      <point x="936" y="-192" type="line"/>
      <point x="954" y="24" type="line"/>
      <point x="954" y="144" type="line"/>
      <point x="756" y="144" type="line"/>
      <point x="756" y="0" type="line"/>
      <point x="790" y="0" type="line"/>
    </contour>
    <component base="Zhe.a" xOffset="10"/>
  </outline>
</glyph>
<glyph name="a.a" format="1">
	<advance width="580"/>
	<outline>
		<component base="alphalatin"/>
		<contour>
			<point name="aboveLC" x="306" y="522" type="move"/>
		</contour>
		<contour>
			<point name="belowLC" x="308" y="-22" type="move"/>
		</contour>
		<contour>
			<point name="ogonekLC" x="414" y="0" type="move"/>
		</contour>
	</outline>
</glyph>
<glyph name="acircumflexacute.a" format="1">
	<advance width="580"/>
	<outline>
		<component base="a.a"/>
		<component base="circumflexacute" xOffset="306"/>
		<contour>
			<point name="aboveLC" x="268" y="500" type="move"/>
		</contour>
		<contour>
			<point name="belowLC" x="268" y="-22" type="move"/>
		</contour>
	</outline>
</glyph>
<glyph name="acutecmb.cap" format="1">
  <advance width="0"/>
  <outline>
    <contour>
      <point x="0" y="672" type="move" name="_aboveUC"/>
    </contour>
    <contour>
      <point x="-8" y="674" type="line"/>
      <point x="188" y="794" type="line"/>
      <point x="98" y="904" type="line"/>
      <point x="-84" y="760" type="line"/>
    </contour>
  </outline>
</glyph>
<glyph name="aogonek.a" format="1">
	<advance width="536"/>
	<outline>
		<contour>
			<point x="248" y="-212" type="curve" smooth="yes"/>
			<point x="282" y="-212"/>
			<point x="330" y="-198"/>
			<point x="358" y="-176" type="curve"/>
			<point x="324" y="-100" type="line"/>
			<point x="316" y="-106"/>
			<point x="302" y="-112"/>
			<point x="290" y="-112" type="curve" smooth="yes"/>
			<point x="270" y="-112"/>
			<point x="250" y="-102"/>
			<point x="250" y="-78" type="curve" smooth="yes"/>
			<point x="250" y="-54"/>
			<point x="258" y="-29"/>
			<point x="272" y="-6" type="curve" smooth="yes"/>
			<point x="285" y="17"/>
			<point x="304" y="36"/>
			<point x="326" y="48" type="curve"/>
			<point x="330" y="48" type="line"/>
			<point x="342" y="0" type="line"/>
			<point x="482" y="0" type="line"/>
			<point x="482" y="278" type="line" smooth="yes"/>
			<point x="482" y="442"/>
			<point x="404" y="512"/>
			<point x="274" y="512" type="curve" smooth="yes"/>
			<point x="196" y="512"/>
			<point x="124" y="488"/>
			<point x="54" y="446" type="curve"/>
			<point x="114" y="334" type="line"/>
			<point x="166" y="362"/>
			<point x="204" y="376"/>
			<point x="240" y="376" type="curve" smooth="yes"/>
			<point x="284" y="376"/>
			<point x="306" y="360"/>
			<point x="310" y="324" type="curve"/>
			<point x="118" y="304"/>
			<point x="38" y="246"/>
			<point x="38" y="142" type="curve" smooth="yes"/>
			<point x="38" y="60"/>
			<point x="92" y="-12"/>
			<point x="192" y="-12" type="curve"/>
			<point x="206" y="-10" type="line"/>
			<point x="206" y="2" type="line"/>
			<point x="182" y="-14"/>
			<point x="136" y="-58"/>
			<point x="136" y="-118" type="curve" smooth="yes"/>
			<point x="136" y="-180"/>
			<point x="186" y="-212"/>
		</contour>
		<contour>
			<point x="248" y="120" type="curve" smooth="yes"/>
			<point x="218" y="120"/>
			<point x="202" y="133"/>
			<point x="202" y="156" type="curve" smooth="yes"/>
			<point x="202" y="184"/>
			<point x="228" y="210"/>
			<point x="310" y="222" type="curve"/>
			<point x="310" y="154" type="line"/>
			<point x="292" y="134"/>
			<point x="276" y="120"/>
		</contour>
		<contour>
			<point name="aboveLC" x="285" y="522" type="move"/>
		</contour>
	</outline>
</glyph>
<glyph name="aogonek.b" format="1">
	<advance width="580"/>
	<outline>
		<contour>
			<point x="288" y="-212" type="curve" smooth="yes"/>
			<point x="322" y="-212"/>
			<point x="370" y="-198"/>
			<point x="398" y="-176" type="curve"/>
			<point x="364" y="-100" type="line"/>
			<point x="356" y="-106"/>
			<point x="342" y="-112"/>
			<point x="330" y="-112" type="curve" smooth="yes"/>
			<point x="310" y="-112"/>
			<point x="290" y="-102"/>
			<point x="290" y="-78" type="curve" smooth="yes"/>
			<point x="290" y="-55"/>
			<point x="298" y="-31"/>
			<point x="311" y="-9" type="curve" smooth="yes"/>
			<point x="325" y="13"/>
			<point x="344" y="32"/>
			<point x="366" y="44" type="curve"/>
			<point x="370" y="44" type="line"/>
			<point x="382" y="0" type="line"/>
			<point x="522" y="0" type="line"/>
			<point x="522" y="500" type="line"/>
			<point x="388" y="500" type="line"/>
			<point x="374" y="450" type="line"/>
			<point x="370" y="450" type="line"/>
			<point x="332" y="494"/>
			<point x="292" y="512"/>
			<point x="244" y="512" type="curve" smooth="yes"/>
			<point x="142" y="512"/>
			<point x="36" y="414"/>
			<point x="36" y="250" type="curve" smooth="yes"/>
			<point x="36" y="88"/>
			<point x="116" y="-12"/>
			<point x="240" y="-12" type="curve"/>
			<point x="246" y="-10" type="line"/>
			<point x="246" y="2" type="line"/>
			<point x="222" y="-14"/>
			<point x="176" y="-58"/>
			<point x="176" y="-118" type="curve" smooth="yes"/>
			<point x="176" y="-180"/>
			<point x="226" y="-212"/>
		</contour>
		<contour>
			<point x="286" y="128" type="curve" smooth="yes"/>
			<point x="240" y="128"/>
			<point x="212" y="162"/>
			<point x="212" y="252" type="curve" smooth="yes"/>
			<point x="212" y="340"/>
			<point x="246" y="372"/>
			<point x="282" y="372" type="curve" smooth="yes"/>
			<point x="304" y="372"/>
			<point x="330" y="366"/>
			<point x="350" y="348" type="curve"/>
			<point x="350" y="164" type="line"/>
			<point x="332" y="136"/>
			<point x="312" y="128"/>
		</contour>
		<contour>
			<point name="aboveLC" x="306" y="522" type="move"/>
		</contour>
	</outline>
</glyph>
<glyph name="asper.cap" format="1">
	<advance width="178"/>
	<outline>
		<contour>
			<point x="138" y="418" type="curve"/>
			<point x="150" y="484" type="line"/>
			<point x="130" y="490"/>
			<point x="110" y="500"/>
			<point x="110" y="528" type="curve" smooth="yes"/>
			<point x="110" y="549"/>
			<point x="130" y="565"/>
			<point x="188" y="570" type="curve"/>
			<point x="168" y="654" type="line"/>
			<point x="30" y="650"/>
			<point x="-12" y="606"/>
			<point x="-12" y="546" type="curve" smooth="yes"/>
			<point x="-12" y="460"/>
			<point x="56" y="424"/>
		</contour>
	</outline>
</glyph>
<glyph name="asperacute.cap" format="1">
  <advance width="350"/>
  <outline>
    <contour>
      <point x="200" y="450" type="line"/>
      <point x="308" y="430" type="line"/>
      <point x="372" y="650" type="line"/>
      <point x="228" y="670" type="line"/>
    </contour>
    <contour>
      <point x="118" y="426" type="curve"/>
      <point x="130" y="492" type="line"/>
      <point x="114" y="500"/>
      <point x="100" y="509"/>
      <point x="100" y="532" type="curve" smooth="yes"/>
      <point x="100" y="553"/>
      <point x="118" y="573"/>
      <point x="168" y="578" type="curve"/>
      <point x="148" y="662" type="line"/>
      <point x="36" y="658"/>
      <point x="-12" y="614"/>
      <point x="-12" y="550" type="curve" smooth="yes"/>
      <point x="-12" y="474"/>
      <point x="56" y="436"/>
    </contour>
  </outline>
</glyph>
<glyph name="asperacutecmb" format="1">
	<outline>
		<contour>
			<point x="-48" y="564" type="curve"/>
			<point x="-36" y="630" type="line"/>
			<point x="-55" y="636"/>
			<point x="-66" y="646"/>
			<point x="-66" y="668" type="curve" smooth="yes"/>
			<point x="-66" y="690"/>
			<point x="-48" y="708"/>
			<point x="2" y="712" type="curve"/>
			<point x="-6" y="806" type="line"/>
			<point x="-126" y="802"/>
			<point x="-188" y="758"/>
			<point x="-188" y="686" type="curve" smooth="yes"/>
			<point x="-188" y="606"/>
			<point x="-110" y="572"/>
		</contour>
		<contour>
			<point x="122" y="556" type="line"/>
			<point x="194" y="776" type="line"/>
			<point x="58" y="802" type="line"/>
			<point x="28" y="574" type="line"/>
		</contour>
		<contour>
			<point name="_aboveLC" x="0" y="522" type="move"/>
		</contour>
	</outline>
</glyph>
<glyph name="aspercmb" format="1">
  <advance width="0"/>
  <outline>
    <contour>
      <point x="0" y="522" type="move" name="_aboveLC"/>
    </contour>
    <contour>
      <point x="48" y="566" type="curve"/>
      <point x="60" y="632" type="line"/>
      <point x="38" y="635"/>
      <point x="20" y="642"/>
      <point x="20" y="662" type="curve" smooth="yes"/>
      <point x="20" y="684"/>
      <point x="40" y="698"/>
      <point x="98" y="702" type="curve"/>
      <point x="88" y="796" type="line"/>
      <point x="-58" y="792"/>
      <point x="-104" y="743"/>
      <point x="-104" y="674" type="curve" smooth="yes"/>
      <point x="-104" y="602"/>
      <point x="-34" y="570"/>
    </contour>
  </outline>
</glyph>
<glyph name="aspergravecmb" format="1">
  <advance width="0"/>
  <outline>
    <contour>
      <point x="0" y="522" type="move" name="_aboveLC"/>
    </contour>
    <contour>
      <point x="-78" y="574" type="curve"/>
      <point x="-66" y="640" type="line"/>
      <point x="-82" y="643"/>
      <point x="-96" y="649"/>
      <point x="-96" y="668" type="curve" smooth="yes"/>
      <point x="-96" y="685"/>
      <point x="-78" y="696"/>
      <point x="-28" y="700" type="curve"/>
      <point x="-36" y="794" type="line"/>
      <point x="-156" y="790"/>
      <point x="-208" y="747"/>
      <point x="-208" y="686" type="curve" smooth="yes"/>
      <point x="-208" y="611"/>
      <point x="-139" y="582"/>
    </contour>
    <contour>
      <point x="70" y="556" type="line"/>
      <point x="164" y="574" type="line"/>
      <point x="134" y="802" type="line"/>
      <point x="-2" y="776" type="line"/>
    </contour>
  </outline>
</glyph>
<glyph name="aspertilde.cap" format="1">
  <advance width="236"/>
  <outline>
    <contour>
      <point x="156" y="389" type="curve"/>
      <point x="166" y="441" type="line"/>
      <point x="150" y="443"/>
      <point x="140" y="446"/>
      <point x="140" y="455" type="curve" smooth="yes"/>
      <point x="140" y="465"/>
      <point x="153" y="471"/>
      <point x="204" y="475" type="curve"/>
      <point x="188" y="541" type="line"/>
      <point x="66" y="537"/>
      <point x="30" y="513"/>
      <point x="30" y="473" type="curve" smooth="yes"/>
      <point x="30" y="420"/>
      <point x="86" y="396"/>
    </contour>
    <contour>
      <point x="-24" y="574" type="curve"/>
      <point x="48" y="564" type="line"/>
      <point x="52" y="584"/>
      <point x="58" y="590"/>
      <point x="72" y="590" type="curve" smooth="yes"/>
      <point x="98" y="590"/>
      <point x="124" y="558"/>
      <point x="170" y="558" type="curve" smooth="yes"/>
      <point x="220" y="558"/>
      <point x="250" y="575"/>
      <point x="260" y="652" type="curve"/>
      <point x="188" y="662" type="line"/>
      <point x="184" y="642"/>
      <point x="178" y="636"/>
      <point x="164" y="636" type="curve" smooth="yes"/>
      <point x="138" y="636"/>
      <point x="112" y="668"/>
      <point x="66" y="668" type="curve" smooth="yes"/>
      <point x="16" y="668"/>
      <point x="-14" y="651"/>
    </contour>
  </outline>
</glyph>
<glyph name="aspertildecmb" format="1">
	<outline>
		<contour>
			<point x="38" y="564" type="curve"/>
			<point x="48" y="616" type="line"/>
			<point x="32" y="618"/>
			<point x="22" y="621"/>
			<point x="22" y="630" type="curve" smooth="yes"/>
			<point x="22" y="640"/>
			<point x="35" y="646"/>
			<point x="86" y="650" type="curve"/>
			<point x="70" y="716" type="line"/>
			<point x="-52" y="712"/>
			<point x="-88" y="688"/>
			<point x="-88" y="648" type="curve" smooth="yes"/>
			<point x="-88" y="595"/>
			<point x="-32" y="571"/>
		</contour>
		<contour>
			<point x="56" y="730" type="curve" smooth="yes"/>
			<point x="113" y="730"/>
			<point x="153" y="764"/>
			<point x="162" y="850" type="curve"/>
			<point x="76" y="858" type="line"/>
			<point x="70" y="832"/>
			<point x="60" y="822"/>
			<point x="46" y="822" type="curve" smooth="yes"/>
			<point x="20" y="822"/>
			<point x="-2" y="864"/>
			<point x="-56" y="864" type="curve" smooth="yes"/>
			<point x="-113" y="864"/>
			<point x="-153" y="830"/>
			<point x="-162" y="744" type="curve"/>
			<point x="-76" y="736" type="line"/>
			<point x="-70" y="762"/>
			<point x="-60" y="772"/>
			<point x="-46" y="772" type="curve" smooth="yes"/>
			<point x="-20" y="772"/>
			<point x="2" y="730"/>
		</contour>
		<contour>
			<point name="_aboveLC" x="0" y="522" type="move"/>
		</contour>
	</outline>
</glyph>
<glyph name="aturned.b" format="1">
	<advance width="542"/>
	<outline>
		<contour>
			<point x="280" y="-12" type="curve" smooth="yes"/>
			<point x="353" y="-12"/>
			<point x="423" y="12"/>
			<point x="490" y="54" type="curve"/>
			<point x="430" y="166" type="line"/>
			<point x="378" y="138"/>
			<point x="343" y="124"/>
			<point x="306" y="124" type="curve" smooth="yes"/>
			<point x="256" y="124"/>
			<point x="229" y="138"/>
			<point x="224" y="174" type="curve"/>
			<point x="416" y="195"/>
			<point x="496" y="266"/>
			<point x="496" y="372" type="curve" smooth="yes"/>
			<point x="496" y="449"/>
			<point x="448" y="512"/>
			<point x="360" y="512" type="curve" smooth="yes"/>
			<point x="294" y="512"/>
			<point x="244" y="484"/>
			<point x="208" y="442" type="curve"/>
			<point x="204" y="442" type="line"/>
			<point x="192" y="500" type="line"/>
			<point x="52" y="500" type="line"/>
			<point x="52" y="226" type="line" smooth="yes"/>
			<point x="52" y="62"/>
			<point x="138" y="-12"/>
		</contour>
		<contour>
			<point x="224" y="278" type="curve"/>
			<point x="224" y="336" type="line"/>
			<point x="243" y="362"/>
			<point x="264" y="380"/>
			<point x="292" y="380" type="curve" smooth="yes"/>
			<point x="316" y="380"/>
			<point x="332" y="367"/>
			<point x="332" y="344" type="curve" smooth="yes"/>
			<point x="332" y="316"/>
			<point x="306" y="290"/>
		</contour>
		<contour>
			<point name="aboveLC" x="290" y="522" type="move"/>
		</contour>
		<contour>
			<point name="belowLC" x="280" y="-22" type="move"/>
		</contour>
		<contour>
			<point name="ogonekLC" x="280" y="0" type="move"/>
		</contour>
	</outline>
</glyph>
<glyph name="breveacute.cap" format="1">
  <advance width="0"/>
  <outline>
    <contour>
      <point x="0" y="672" type="move" name="_aboveUC"/>
    </contour>
    <contour>
      <point x="-62" y="860" type="line"/>
      <point x="22" y="806" type="line"/>
      <point x="140" y="940" type="line"/>
      <point x="34" y="1004" type="line"/>
    </contour>
    <contour>
      <point x="0" y="694" type="curve" smooth="yes"/>
      <point x="102" y="694"/>
      <point x="160" y="738"/>
      <point x="170" y="834" type="curve"/>
      <point x="88" y="850" type="line"/>
      <point x="77" y="804"/>
      <point x="45" y="782"/>
      <point x="0" y="782" type="curve" smooth="yes"/>
      <point x="-45" y="782"/>
      <point x="-77" y="804"/>
      <point x="-88" y="850" type="curve"/>
      <point x="-170" y="834" type="line"/>
      <point x="-160" y="738"/>
      <point x="-102" y="694"/>
    </contour>
  </outline>
</glyph>
<glyph name="breveacute" format="1">
	<outline>
		<contour>
			<point x="14" y="706" type="line"/>
			<point x="136" y="830" type="line"/>
			<point x="36" y="904" type="line"/>
			<point x="-60" y="756" type="line"/>
		</contour>
		<contour>
			<point x="0" y="572" type="curve" smooth="yes"/>
			<point x="118" y="572"/>
			<point x="172" y="638"/>
			<point x="174" y="732" type="curve"/>
			<point x="88" y="748" type="line"/>
			<point x="81" y="702"/>
			<point x="54" y="668"/>
			<point x="0" y="668" type="curve" smooth="yes"/>
			<point x="-54" y="668"/>
			<point x="-81" y="702"/>
			<point x="-88" y="748" type="curve"/>
			<point x="-174" y="732" type="line"/>
			<point x="-172" y="638"/>
			<point x="-117" y="572"/>
		</contour>
		<contour>
			<point name="_aboveLC" x="0" y="522" type="move"/>
		</contour>
	</outline>
</glyph>
<glyph name="brevecmb.cap" format="1">
  <advance width="0"/>
  <outline>
    <contour>
      <point x="0" y="672" type="move" name="_aboveUC"/>
    </contour>
    <contour>
      <point x="0" y="694" type="curve" smooth="yes"/>
      <point x="102" y="694"/>
      <point x="160" y="738"/>
      <point x="170" y="834" type="curve"/>
      <point x="78" y="850" type="line"/>
      <point x="69" y="811"/>
      <point x="40" y="792"/>
      <point x="0" y="792" type="curve" smooth="yes"/>
      <point x="-40" y="792"/>
      <point x="-69" y="811"/>
      <point x="-78" y="850" type="curve"/>
      <point x="-170" y="834" type="line"/>
      <point x="-160" y="738"/>
      <point x="-102" y="694"/>
    </contour>
  </outline>
</glyph>
<glyph name="brevehoi.cap" format="1">
  <advance width="0"/>
  <outline>
    <contour>
      <point x="0" y="672" type="move" name="_aboveUC"/>
    </contour>
    <contour>
      <point x="-36" y="808" type="line"/>
      <point x="35" y="812"/>
      <point x="88" y="836"/>
      <point x="88" y="898" type="curve" smooth="yes"/>
      <point x="88" y="942"/>
      <point x="54" y="978"/>
      <point x="-68" y="982" type="curve"/>
      <point x="-84" y="914" type="line"/>
      <point x="-33" y="910"/>
      <point x="-20" y="900"/>
      <point x="-20" y="884" type="curve" smooth="yes"/>
      <point x="-20" y="868"/>
      <point x="-32" y="863"/>
      <point x="-48" y="860" type="curve"/>
    </contour>
    <contour>
      <point x="0" y="694" type="curve" smooth="yes"/>
      <point x="102" y="694"/>
      <point x="160" y="738"/>
      <point x="170" y="834" type="curve"/>
      <point x="88" y="850" type="line"/>
      <point x="77" y="804"/>
      <point x="45" y="782"/>
      <point x="0" y="782" type="curve" smooth="yes"/>
      <point x="-45" y="782"/>
      <point x="-77" y="804"/>
      <point x="-88" y="850" type="curve"/>
      <point x="-170" y="834" type="line"/>
      <point x="-160" y="738"/>
      <point x="-102" y="694"/>
    </contour>
  </outline>
</glyph>
<glyph name="brevehoi" format="1">
	<outline>
		<contour>
			<point x="0" y="572" type="curve" smooth="yes"/>
			<point x="118" y="572"/>
			<point x="172" y="638"/>
			<point x="174" y="732" type="curve"/>
			<point x="88" y="748" type="line"/>
			<point x="81" y="702"/>
			<point x="54" y="668"/>
			<point x="0" y="668" type="curve" smooth="yes"/>
			<point x="-54" y="668"/>
			<point x="-81" y="702"/>
			<point x="-88" y="748" type="curve"/>
			<point x="-174" y="732" type="line"/>
			<point x="-172" y="638"/>
			<point x="-117" y="572"/>
		</contour>
		<contour>
			<point x="-38" y="703" type="line"/>
			<point x="32" y="711"/>
			<point x="88" y="731"/>
			<point x="88" y="801" type="curve" smooth="yes"/>
			<point x="88" y="859"/>
			<point x="52" y="900"/>
			<point x="-70" y="904" type="curve"/>
			<point x="-86" y="813" type="line"/>
			<point x="-35" y="809"/>
			<point x="-22" y="799"/>
			<point x="-22" y="783" type="curve" smooth="yes"/>
			<point x="-22" y="767"/>
			<point x="-32" y="762"/>
			<point x="-48" y="759" type="curve"/>
		</contour>
		<contour>
			<point name="_aboveLC" x="0" y="522" type="move"/>
		</contour>
	</outline>
</glyph>
<glyph name="breveinvertedcmb.cap" format="1">
  <advance width="0"/>
  <outline>
    <contour>
      <point x="0" y="672" type="move" name="_aboveUC"/>
    </contour>
    <contour>
      <point x="-78" y="690" type="line"/>
      <point x="-69" y="729"/>
      <point x="-40" y="748"/>
      <point x="0" y="748" type="curve" smooth="yes"/>
      <point x="40" y="748"/>
      <point x="69" y="729"/>
      <point x="78" y="690" type="curve"/>
      <point x="170" y="706" type="line"/>
      <point x="160" y="802"/>
      <point x="102" y="846"/>
      <point x="0" y="846" type="curve" smooth="yes"/>
      <point x="-102" y="846"/>
      <point x="-160" y="802"/>
      <point x="-170" y="706" type="curve"/>
    </contour>
  </outline>
</glyph>
